<svg width="19" height="18" viewBox="0 0 19 18" fill="none" xmlns="http://www.w3.org/2000/svg">
<path d="M0.315063 9C0.315063 7.346 1.74763 6 3.50801 6C4.35308 6 5.11725 6.315 5.68879 6.82L12.0651 3.396C12.0459 3.266 12.0225 3.136 12.0225 3C12.0225 1.346 13.4551 0 15.2155 0C16.9759 0 18.4084 1.346 18.4084 3C18.4084 4.654 16.9759 6 15.2155 6C14.3704 6 13.6062 5.685 13.0347 5.18L6.65838 8.603C6.67754 8.734 6.70096 8.864 6.70096 9C6.70096 9.136 6.67754 9.266 6.65838 9.397L13.0347 12.82C13.6062 12.315 14.3704 12 15.2155 12C16.9759 12 18.4084 13.346 18.4084 15C18.4084 16.654 16.9759 18 15.2155 18C13.4551 18 12.0225 16.654 12.0225 15C12.0225 14.864 12.0459 14.734 12.0651 14.603L5.68879 11.18C5.10023 11.7053 4.3198 11.9988 3.50801 12C1.74763 12 0.315063 10.654 0.315063 9Z" fill="#808191"/>
</svg>
