<svg width="24" height="24" viewBox="0 0 24 24" fill="none" xmlns="http://www.w3.org/2000/svg">
<path d="M21.8181 17.4546H20.7272V8.72728C20.7272 3.91528 16.8119 0 11.9999 0C7.18794 0 3.27266 3.91528 3.27266 8.72728V17.4546H2.18174C1.57846 17.4546 1.09082 17.9422 1.09082 18.5455C1.09082 19.1488 1.57846 19.6364 2.18174 19.6364H3.27266H7.6363C7.6363 22.0429 9.59338 24 11.9999 24C14.4065 24 16.3636 22.0429 16.3636 19.6364H20.7272H21.8181C22.4214 19.6364 22.9091 19.1487 22.9091 18.5454C22.9091 17.9422 22.4214 17.4546 21.8181 17.4546ZM11.9999 21.8182C10.7967 21.8182 9.81815 20.8396 9.81815 19.6364H14.1818C14.1817 20.8396 13.2032 21.8182 11.9999 21.8182ZM18.5454 17.4546H16.3636H7.6363H5.45451V8.72728C5.45451 5.11748 8.39015 2.18184 11.9999 2.18184C15.6097 2.18184 18.5454 5.11748 18.5454 8.72728V17.4546Z" fill="#556EE6"/>
</svg>
