<svg width="12" height="17" viewBox="0 0 12 17" fill="none" xmlns="http://www.w3.org/2000/svg">
<path d="M0 2.12503C0 1.56144 0.210714 1.02093 0.585786 0.622408C0.960859 0.223887 1.46957 0 2 0L10 0C10.5304 0 11.0391 0.223887 11.4142 0.622408C11.7893 1.02093 12 1.56144 12 2.12503V16.469C12 16.5651 11.9754 16.6594 11.9289 16.7418C11.8824 16.8243 11.8157 16.8917 11.736 16.9371C11.6563 16.9825 11.5664 17.004 11.4761 16.9994C11.3858 16.9948 11.2983 16.9643 11.223 16.911L6 13.92L0.777 16.911C0.701705 16.9643 0.61423 16.9948 0.523891 16.9994C0.433553 17.004 0.343733 16.9825 0.263999 16.9371C0.184266 16.8917 0.117604 16.8243 0.0711141 16.7418C0.024624 16.6594 4.67204e-05 16.5651 0 16.469V2.12503ZM2 1.06252C1.73478 1.06252 1.48043 1.17446 1.29289 1.37372C1.10536 1.57298 1 1.84324 1 2.12503V15.4766L5.723 12.8395C5.80506 12.7814 5.90143 12.7505 6 12.7505C6.09857 12.7505 6.19494 12.7814 6.277 12.8395L11 15.4766V2.12503C11 1.84324 10.8946 1.57298 10.7071 1.37372C10.5196 1.17446 10.2652 1.06252 10 1.06252H2Z" fill="#808191"/>
<path d="M6 4.25006C6.13261 4.25006 6.25979 4.30603 6.35355 4.40566C6.44732 4.50529 6.5 4.64042 6.5 4.78132V6.3751H8C8.13261 6.3751 8.25979 6.43107 8.35355 6.5307C8.44732 6.63033 8.5 6.76546 8.5 6.90635C8.5 7.04725 8.44732 7.18238 8.35355 7.28201C8.25979 7.38164 8.13261 7.43761 8 7.43761H6.5V9.03139C6.5 9.17229 6.44732 9.30742 6.35355 9.40705C6.25979 9.50668 6.13261 9.56265 6 9.56265C5.86739 9.56265 5.74021 9.50668 5.64645 9.40705C5.55268 9.30742 5.5 9.17229 5.5 9.03139V7.43761H4C3.86739 7.43761 3.74021 7.38164 3.64645 7.28201C3.55268 7.18238 3.5 7.04725 3.5 6.90635C3.5 6.76546 3.55268 6.63033 3.64645 6.5307C3.74021 6.43107 3.86739 6.3751 4 6.3751H5.5V4.78132C5.5 4.64042 5.55268 4.50529 5.64645 4.40566C5.74021 4.30603 5.86739 4.25006 6 4.25006Z" fill="#808191"/>
</svg>
