<svg width="17" height="16" viewBox="0 0 17 16" fill="none" xmlns="http://www.w3.org/2000/svg">
<path d="M16.4648 3.09767C16.203 2.49149 15.8256 1.94218 15.3535 1.48048C14.8811 1.01741 14.3241 0.64941 13.7129 0.396498C13.0791 0.133203 12.3992 -0.00156599 11.7129 1.37283e-05C10.75 1.37283e-05 9.81055 0.263686 8.99414 0.761732C8.79883 0.880873 8.61328 1.01173 8.4375 1.15431C8.26172 1.01173 8.07617 0.880873 7.88086 0.761732C7.06445 0.263686 6.125 1.37283e-05 5.16211 1.37283e-05C4.46875 1.37283e-05 3.79687 0.132826 3.16211 0.396498C2.54883 0.650404 1.99609 1.01564 1.52148 1.48048C1.04882 1.94166 0.671246 2.4911 0.410156 3.09767C0.138672 3.72853 0 4.39845 0 5.0879C0 5.7383 0.132813 6.41603 0.396484 7.10548C0.617188 7.68165 0.933594 8.27931 1.33789 8.88283C1.97852 9.8379 2.85937 10.834 3.95312 11.8438C5.76562 13.5176 7.56055 14.6738 7.63672 14.7207L8.09961 15.0176C8.30469 15.1485 8.56836 15.1485 8.77344 15.0176L9.23633 14.7207C9.3125 14.6719 11.1055 13.5176 12.9199 11.8438C14.0137 10.834 14.8945 9.8379 15.5352 8.88283C15.9395 8.27931 16.2578 7.68165 16.4766 7.10548C16.7402 6.41603 16.873 5.7383 16.873 5.0879C16.875 4.39845 16.7363 3.72853 16.4648 3.09767ZM8.4375 13.4727C8.4375 13.4727 1.48437 9.01759 1.48437 5.0879C1.48437 3.09767 3.13086 1.48439 5.16211 1.48439C6.58984 1.48439 7.82812 2.28126 8.4375 3.44533C9.04687 2.28126 10.2852 1.48439 11.7129 1.48439C13.7441 1.48439 15.3906 3.09767 15.3906 5.0879C15.3906 9.01759 8.4375 13.4727 8.4375 13.4727Z" fill="#ACB1C0"/>
</svg>
