<svg width="27" height="26" viewBox="0 0 27 26" fill="none" xmlns="http://www.w3.org/2000/svg">
<path d="M1.33333 0V2.66667H22.6667V0H1.33333ZM1.33333 4L0 10.6667V13.3333H1.33333V21.3333H13.3333C13.2667 20.88 13.2267 20.4133 13.2267 19.9333C13.2267 18.3067 13.7333 16.7067 14.6667 15.3733V13.3333H16.72C18.0533 12.44 19.6133 11.9467 21.2133 11.9467C22.16 11.9467 23.1067 12.12 24 12.4533V10.6667L22.6667 4H1.33333ZM4 13.3333H12V18.6667H4V13.3333ZM20 14.6667V18.6667H16V21.3333H20V25.3333H22.6667V21.3333H26.6667V18.6667H22.6667V14.6667" fill="white"/>
</svg>
