<svg width="20" height="20" viewBox="0 0 20 20" fill="none" xmlns="http://www.w3.org/2000/svg">
<path d="M9.91895 4.98407C9.42449 4.98407 8.94114 5.13069 8.53002 5.4054C8.1189 5.6801 7.79847 6.07055 7.60925 6.52736C7.42003 6.98418 7.37052 7.48684 7.46698 7.9718C7.56345 8.45675 7.80155 8.90221 8.15118 9.25184C8.50081 9.60147 8.94627 9.83957 9.43122 9.93603C9.91617 10.0325 10.4188 9.98299 10.8757 9.79377C11.3325 9.60455 11.7229 9.28412 11.9976 8.873C12.2723 8.46187 12.4189 7.97852 12.4189 7.48407C12.4182 6.82126 12.1546 6.18581 11.6859 5.71714C11.2172 5.24846 10.5818 4.98482 9.91895 4.98407ZM9.91895 8.73407C9.67172 8.73407 9.43004 8.66076 9.22448 8.52341C9.01892 8.38605 8.85871 8.19083 8.7641 7.96242C8.66949 7.73402 8.64473 7.48268 8.69296 7.24021C8.7412 6.99773 8.86025 6.775 9.03506 6.60019C9.20988 6.42537 9.43261 6.30632 9.67508 6.25809C9.91756 6.20986 10.1689 6.23461 10.3973 6.32922C10.6257 6.42383 10.8209 6.58405 10.9583 6.78961C11.0956 6.99517 11.1689 7.23684 11.1689 7.48407C11.1686 7.81547 11.0367 8.13319 10.8024 8.36753C10.5681 8.60187 10.2503 8.73369 9.91895 8.73407Z" fill="#5F40AF"/>
<path d="M14.7227 2.6764C13.5349 1.48891 11.9494 0.7835 10.2721 0.696302C8.59475 0.609105 6.9446 1.1463 5.64008 2.20422C4.33556 3.26214 3.46916 4.76577 3.20809 6.42493C2.94701 8.08408 3.30977 9.78113 4.22636 11.1885L8.94929 18.4391C9.05439 18.6004 9.1981 18.7329 9.36738 18.8247C9.53666 18.9165 9.72617 18.9645 9.91872 18.9645C10.1113 18.9645 10.3008 18.9165 10.4701 18.8247C10.6393 18.7329 10.7831 18.6004 10.8882 18.4391L15.6112 11.1885C16.4617 9.88296 16.8376 8.32471 16.6758 6.77497C16.514 5.22523 15.8245 3.77819 14.7227 2.6764ZM14.5639 10.5062L9.91874 17.6371L5.27355 10.5062C3.85167 8.32347 4.15663 5.40237 5.99866 3.56026C6.51345 3.04546 7.1246 2.6371 7.79721 2.35849C8.46981 2.07988 9.19071 1.93648 9.91874 1.93648C10.6468 1.93648 11.3677 2.07988 12.0403 2.35849C12.7129 2.6371 13.324 3.04546 13.8388 3.56026C15.6809 5.40237 15.9858 8.32347 14.5639 10.5062Z" fill="#5F40AF"/>
</svg>
