<svg width="15" height="3" viewBox="0 0 15 3" fill="none" xmlns="http://www.w3.org/2000/svg">
<path fillRule="evenodd" clipRule="evenodd" d="M1.60183 -0.000162601C2.4865 -0.000162601 3.20366 0.596791 3.20366 1.33317C3.20366 2.06955 2.4865 2.6665 1.60183 2.6665C0.717164 2.6665 0 2.06955 0 1.33317C0 0.596791 0.717164 -0.000162601 1.60183 -0.000162601ZM7.20767 -0.000162601C8.09233 -0.000162601 8.8095 0.596791 8.8095 1.33317C8.8095 2.06955 8.09233 2.6665 7.20767 2.6665C6.323 2.6665 5.60584 2.06955 5.60584 1.33317C5.60584 0.596791 6.323 -0.000162601 7.20767 -0.000162601ZM14.4164 1.33317C14.4164 0.596791 13.6993 -0.000162601 12.8146 -0.000162601C11.9299 -0.000162601 11.2128 0.596791 11.2128 1.33317C11.2128 2.06955 11.9299 2.6665 12.8146 2.6665C13.6993 2.6665 14.4164 2.06955 14.4164 1.33317Z" fill="#92929D"/>
</svg>
