<svg width="17" height="18" viewBox="0 0 17 18" fill="none" xmlns="http://www.w3.org/2000/svg">
<path d="M0.000152588 9C0.000152588 7.346 1.34615 6 3.00015 6C3.79415 6 4.51215 6.315 5.04915 6.82L11.0402 3.396C11.0222 3.266 11.0002 3.136 11.0002 3C11.0002 1.346 12.3462 0 14.0002 0C15.6542 0 17.0002 1.346 17.0002 3C17.0002 4.654 15.6542 6 14.0002 6C13.2062 6 12.4882 5.685 11.9512 5.18L5.96015 8.603C5.97815 8.734 6.00015 8.864 6.00015 9C6.00015 9.136 5.97815 9.266 5.96015 9.397L11.9512 12.82C12.4882 12.315 13.2062 12 14.0002 12C15.6542 12 17.0002 13.346 17.0002 15C17.0002 16.654 15.6542 18 14.0002 18C12.3462 18 11.0002 16.654 11.0002 15C11.0002 14.864 11.0222 14.734 11.0402 14.603L5.04915 11.18C4.49616 11.7053 3.76289 11.9988 3.00015 12C1.34615 12 0.000152588 10.654 0.000152588 9Z" fill="#808191"/>
</svg>
