<svg width="10" height="10" viewBox="0 0 10 10" fill="none" xmlns="http://www.w3.org/2000/svg">
<path d="M0 5C0 4.08111 0.791765 3.33333 1.76471 3.33333C2.23176 3.33333 2.65412 3.50833 2.97 3.78889L6.49412 1.88667C6.48353 1.81444 6.47059 1.74222 6.47059 1.66667C6.47059 0.747777 7.26235 0 8.23529 0C9.20824 0 10 0.747777 10 1.66667C10 2.58556 9.20824 3.33333 8.23529 3.33333C7.76824 3.33333 7.34588 3.15833 7.03 2.87778L3.50588 4.77944C3.51647 4.85222 3.52941 4.92444 3.52941 5C3.52941 5.07556 3.51647 5.14778 3.50588 5.22056L7.03 7.12222C7.34588 6.84167 7.76824 6.66667 8.23529 6.66667C9.20824 6.66667 10 7.41444 10 8.33333C10 9.25222 9.20824 10 8.23529 10C7.26235 10 6.47059 9.25222 6.47059 8.33333C6.47059 8.25778 6.48353 8.18556 6.49412 8.11278L2.97 6.21111C2.64471 6.50296 2.21337 6.66598 1.76471 6.66667C0.791765 6.66667 0 5.91889 0 5Z" fill="black"/>
</svg>
