<svg width="17" height="18" viewBox="0 0 17 18" fill="none" xmlns="http://www.w3.org/2000/svg">
<path d="M13.1407 11.2697C12.6729 11.272 12.2115 11.3794 11.7907 11.5838C11.3699 11.7883 11.0004 12.0846 10.7094 12.4509L6.14068 9.59466C6.30719 9.05726 6.30719 8.48206 6.14068 7.94466L10.7094 5.08841C11.1731 5.66261 11.8251 6.05414 12.5499 6.19366C13.2746 6.33318 14.0254 6.21168 14.6691 5.85068C15.3129 5.48967 15.8081 4.91247 16.067 4.22131C16.3259 3.53016 16.3319 2.76967 16.0838 2.07455C15.8357 1.37944 15.3496 0.794571 14.7115 0.423553C14.0735 0.0525344 13.3247 -0.0806849 12.5979 0.0474939C11.8711 0.175673 11.213 0.556976 10.7404 1.12386C10.2678 1.69074 10.011 2.40661 10.0157 3.14466C10.0186 3.42415 10.0607 3.70184 10.1407 3.96966L5.57193 6.82591C5.16858 6.31815 4.61727 5.94844 3.9944 5.76803C3.37153 5.58762 2.70797 5.60545 2.09569 5.81904C1.48341 6.03264 0.952735 6.43141 0.577233 6.9601C0.201732 7.48878 0 8.12119 0 8.76966C0 9.41813 0.201732 10.0505 0.577233 10.5792C0.952735 11.1079 1.48341 11.5067 2.09569 11.7203C2.70797 11.9339 3.37153 11.9517 3.9944 11.7713C4.61727 11.5909 5.16858 11.2212 5.57193 10.7134L10.1407 13.5697C10.0607 13.8375 10.0186 14.1152 10.0157 14.3947C10.0157 15.0127 10.199 15.6169 10.5423 16.1308C10.8857 16.6447 11.3738 17.0453 11.9448 17.2818C12.5158 17.5183 13.1441 17.5802 13.7503 17.4596C14.3565 17.339 14.9133 17.0414 15.3504 16.6044C15.7874 16.1673 16.0851 15.6105 16.2056 15.0043C16.3262 14.3981 16.2643 13.7698 16.0278 13.1988C15.7913 12.6278 15.3907 12.1397 14.8768 11.7963C14.3629 11.4529 13.7587 11.2697 13.1407 11.2697ZM13.1407 1.26966C13.5115 1.26966 13.874 1.37963 14.1824 1.58565C14.4907 1.79168 14.731 2.08452 14.873 2.42713C15.0149 2.76974 15.052 3.14674 14.9797 3.51045C14.9073 3.87417 14.7287 4.20826 14.4665 4.47048C14.2043 4.73271 13.8702 4.91128 13.5065 4.98363C13.1428 5.05598 12.7658 5.01885 12.4231 4.87693C12.0805 4.73502 11.7877 4.4947 11.5817 4.18635C11.3756 3.87801 11.2657 3.5155 11.2657 3.14466C11.2657 2.64738 11.4632 2.17046 11.8149 1.81883C12.1665 1.4672 12.6434 1.26966 13.1407 1.26966ZM3.14068 10.6447C2.76984 10.6447 2.40733 10.5347 2.09898 10.3287C1.79064 10.1226 1.55032 9.8298 1.4084 9.48719C1.26649 9.14458 1.22936 8.76758 1.30171 8.40386C1.37405 8.04015 1.55263 7.70606 1.81485 7.44383C2.07708 7.18161 2.41117 7.00303 2.77488 6.93069C3.1386 6.85834 3.5156 6.89547 3.85821 7.03738C4.20082 7.1793 4.49366 7.41962 4.69968 7.72797C4.90571 8.03631 5.01568 8.39882 5.01568 8.76966C5.01568 9.26694 4.81814 9.74385 4.4665 10.0955C4.11487 10.4471 3.63796 10.6447 3.14068 10.6447ZM13.1407 16.2697C12.7698 16.2697 12.4073 16.1597 12.099 15.9537C11.7906 15.7476 11.5503 15.4548 11.4084 15.1122C11.2665 14.7696 11.2294 14.3926 11.3017 14.0289C11.3741 13.6652 11.5526 13.3311 11.8149 13.0688C12.0771 12.8066 12.4112 12.628 12.7749 12.5557C13.1386 12.4833 13.5156 12.5205 13.8582 12.6624C14.2008 12.8043 14.4937 13.0446 14.6997 13.353C14.9057 13.6613 15.0157 14.0238 15.0157 14.3947C15.0157 14.8919 14.8181 15.3689 14.4665 15.7205C14.1149 16.0721 13.638 16.2697 13.1407 16.2697Z" fill="#808191"/>
</svg>
