<svg width="17" height="17" viewBox="0 0 17 17" fill="none" xmlns="http://www.w3.org/2000/svg">
<path fillRule="evenodd" clipRule="evenodd" d="M3.33333 8.33334H4.16667C6.00762 8.33334 7.5 9.82572 7.5 11.6667V13.3333C7.5 15.1743 6.00762 16.6667 4.16667 16.6667H3.33333C1.49238 16.6667 0 15.1743 0 13.3333V11.6667C0 9.82572 1.49238 8.33334 3.33333 8.33334ZM3.33333 10C2.41285 10 1.66666 10.7462 1.66666 11.6667V13.3333C1.66666 14.2538 2.41285 15 3.33333 15H4.16666C5.08713 15 5.83333 14.2538 5.83333 13.3333V11.6667C5.83333 10.7462 5.08713 10 4.16666 10H3.33333ZM2.91667 0C4.5275 0 5.83333 1.30584 5.83333 2.91667V3.75C5.83333 5.36083 4.5275 6.66667 2.91667 6.66667C1.30584 6.66667 0 5.36083 0 3.75V2.91667C0 1.30584 1.30584 0 2.91667 0ZM2.91666 1.66666C2.2263 1.66666 1.66666 2.2263 1.66666 2.91666V3.74999C1.66666 4.44035 2.2263 4.99999 2.91666 4.99999C3.60701 4.99999 4.16666 4.44035 4.16666 3.74999V2.91666C4.16666 2.2263 3.60701 1.66666 2.91666 1.66666ZM12.5 7.5H13.3333C15.1743 7.5 16.6667 8.99238 16.6667 10.8333V13.3333C16.6667 15.1743 15.1743 16.6667 13.3333 16.6667H12.5C10.659 16.6667 9.16666 15.1743 9.16666 13.3333V10.8333C9.16666 8.99238 10.659 7.5 12.5 7.5ZM12.5 9.16666C11.5795 9.16666 10.8333 9.91285 10.8333 10.8333V13.3333C10.8333 14.2538 11.5795 15 12.5 15H13.3333C14.2538 15 15 14.2538 15 13.3333V10.8333C15 9.91285 14.2538 9.16666 13.3333 9.16666H12.5ZM10.4167 0H13.75C15.3608 0 16.6667 1.30584 16.6667 2.91667C16.6667 4.5275 15.3608 5.83333 13.75 5.83333H10.4167C8.80584 5.83333 7.5 4.5275 7.5 2.91667C7.5 1.30584 8.80584 0 10.4167 0ZM10.4167 1.66666C9.7263 1.66666 9.16666 2.2263 9.16666 2.91666C9.16666 3.60701 9.7263 4.16666 10.4167 4.16666H13.75C14.4403 4.16666 15 3.60701 15 2.91666C15 2.2263 14.4403 1.66666 13.75 1.66666H10.4167Z" fill="#808191"/>
</svg>
