<svg width="20" height="20" viewBox="0 0 20 20" fill="none" xmlns="http://www.w3.org/2000/svg">
<path d="M10 0C4.48547 0 0 4.48547 0 10C0 15.5145 4.48547 20 10 20C15.5145 20 20 15.5145 20 10C20 4.48547 15.5145 0 10 0ZM10 19.3339C4.85344 19.3339 0.666085 15.1466 0.666085 10C0.666085 4.85344 4.85344 0.666085 10 0.666085C15.1466 0.666085 19.3339 4.85344 19.3339 10C19.3339 15.1466 15.1466 19.3339 10 19.3339Z" fill="#34526F"/>
<path d="M12.8051 7.50533H10.6235V5.32184C10.6441 5.13786 10.495 4.9888 10.311 4.9888H8.70257C8.53418 4.9888 8.39261 5.11353 8.37203 5.2813C8.31278 5.75717 8.20613 6.14759 8.05582 6.44321C7.9106 6.73156 7.70915 6.98793 7.46333 7.19723C7.26313 7.3675 6.91886 7.53526 6.46857 7.68058C6.40143 7.6998 6.34334 7.74231 6.30471 7.80049C6.26608 7.85866 6.24944 7.9287 6.25777 7.99803V9.68756C6.25249 9.72991 6.25695 9.77291 6.27083 9.81327C6.28471 9.85363 6.30762 9.89028 6.33783 9.92043C6.36804 9.95057 6.40474 9.97342 6.44512 9.98721C6.48551 10.001 6.52851 10.0054 6.57085 10L7.50512 10.6237V13.535C7.48391 13.3473 7.52819 13.4745 7.61488 13.6791L7.65168 13.7676C7.6548 13.7758 7.971 14.5616 8.35144 14.8896C8.6321 15.1304 8.972 15.3175 9.3618 15.446C9.74077 15.5776 10.14 15.6414 10.5412 15.6343C10.9665 15.6343 11.3688 15.5913 11.7386 15.5052C12.1557 15.4088 12.5609 15.2672 12.9473 15.083C13.0049 15.0585 13.0529 15.0157 13.0837 14.9613C13.1146 14.9068 13.1267 14.8437 13.1182 14.7817V13.2818C13.1381 13.1596 13.0714 13.0467 12.9635 12.9881C12.8556 12.9294 12.7247 12.9357 12.6217 13.003C12.1821 13.2918 11.9463 13.3435 11.5016 13.3435C11.2946 13.3435 11.1149 13.3011 10.9522 13.212C10.8867 13.0928 10.7919 12.7267 10.7557 12.5827C10.733 12.4896 10.7068 12.3975 10.6771 12.3064C10.6428 12.2153 10.6428 11.8898 10.6434 11.5131L10.6441 10H12.8051C12.8474 10.0054 12.8904 10.001 12.9308 9.98721C12.9712 9.97342 13.0079 9.95057 13.0381 9.92043C13.0683 9.89028 13.0912 9.85363 13.1051 9.81327C13.119 9.77291 13.1235 9.72991 13.1182 9.68756V7.81654C13.1235 7.77424 13.1191 7.73128 13.1052 7.69096C13.0913 7.65065 13.0684 7.61405 13.0381 7.58399C13.0079 7.55393 12.9712 7.53121 12.9308 7.51757C12.8904 7.50394 12.8474 7.49975 12.8051 7.50533ZM12.4721 9.37635H10.311C10.2688 9.37057 10.2258 9.37464 10.1854 9.38823C10.145 9.40183 10.1083 9.42458 10.0782 9.45472C10.048 9.48486 10.0253 9.52156 10.0117 9.56195C9.9981 9.60235 9.99403 9.64534 9.99982 9.68756L9.99857 11.5112C9.97612 12.0432 9.97612 12.3357 10.0528 12.5403C10.0672 12.5783 10.0859 12.655 10.1102 12.7486C10.2686 13.3654 10.3684 13.6429 10.5736 13.7633C10.8468 13.9267 11.1586 14.0096 11.5016 14.0096C11.859 14.0096 12.1459 13.9784 12.4721 13.8419V14.5653C12.186 14.688 11.8897 14.7851 11.5864 14.8553C11.2432 14.9323 10.8923 14.9699 10.5405 14.9676C10.2099 14.975 9.88071 14.9223 9.56886 14.8123C9.28209 14.7217 9.01579 14.5759 8.7849 14.3832C8.61526 14.2373 8.37701 13.7882 8.27037 13.5207L8.2292 13.4203C8.16995 13.2799 8.15 13.2325 8.12879 12.9113V9.68756C8.15 9.50358 8.00094 9.35452 7.81695 9.35452H6.90389V8.23565C7.33298 8.07911 7.6654 7.90074 7.89491 7.70428C8.2084 7.43838 8.46525 7.11219 8.65018 6.74507C8.80174 6.44633 8.91587 6.08148 8.99009 5.65488H9.97799V7.81654C9.97799 8.00052 10.127 8.14958 10.311 8.129H12.4721V9.37635Z" fill="#34526F"/>
</svg>
