<svg width="20" height="20" viewBox="0 0 20 20" fill="none" xmlns="http://www.w3.org/2000/svg">
<circle cx="10" cy="10" r="10" fill="white"/>
<circle cx="10" cy="10" r="9.5" stroke="#CA7323" stroke-opacity="0.8"/>
<path d="M14.2857 5H5.71429C5.52485 5 5.34316 5.10536 5.20921 5.29289C5.07525 5.48043 5 5.73478 5 6V14C5 14.2652 5.07525 14.5196 5.20921 14.7071C5.34316 14.8946 5.52485 15 5.71429 15H14.2857C14.4752 15 14.6568 14.8946 14.7908 14.7071C14.9247 14.5196 15 14.2652 15 14V6C15 5.73478 14.9247 5.48043 14.7908 5.29289C14.6568 5.10536 14.4752 5 14.2857 5V5ZM13.5 6L10 9.39L6.5 6H13.5ZM5.71429 14V6.455L9.79643 10.41C9.85621 10.4681 9.92724 10.4992 10 10.4992C10.0728 10.4992 10.1438 10.4681 10.2036 10.41L14.2857 6.455V14H5.71429Z" fill="#CA7323"/>
</svg>
