<svg width="20" height="20" viewBox="0 0 20 20" fill="none" xmlns="http://www.w3.org/2000/svg">
<path d="M10 0C4.48644 0 0 4.48547 0 10C0 15.5145 4.48644 20 10 20C15.5136 20 20 15.5145 20 10C20 4.48547 15.5136 0 10 0ZM10 19.3339C4.85376 19.3339 0.66729 15.1466 0.66729 10C0.66729 4.85344 4.85376 0.666085 10 0.666085C15.1462 0.666085 19.3327 4.85344 19.3327 10C19.3327 15.1466 15.1462 19.3339 10 19.3339Z" fill="#3B5998"/>
<path d="M12.183 4.38692H10.5191C8.40001 4.36572 8.12935 5.6773 8.12935 7.09679V8.12897H7.1939C7.15162 8.12332 7.10861 8.1275 7.0682 8.14117C7.02779 8.15484 6.99108 8.17765 6.96092 8.20781C6.93076 8.23798 6.90796 8.27469 6.89428 8.3151C6.88061 8.35551 6.87643 8.39852 6.88208 8.44081V10.3118C6.87643 10.3541 6.88061 10.3971 6.89428 10.4375C6.90796 10.4779 6.93076 10.5147 6.96092 10.5448C6.99108 10.575 7.02779 10.5978 7.0682 10.6115C7.10861 10.6251 7.15162 10.6293 7.1939 10.6237H8.12935V15.3012C8.12416 15.3436 8.12871 15.3866 8.14267 15.4269C8.15662 15.4672 8.17961 15.5038 8.20988 15.5339C8.24014 15.564 8.27688 15.5868 8.31729 15.6005C8.35771 15.6142 8.40072 15.6185 8.44304 15.6131H10.3483C10.5322 15.6343 10.6813 15.4852 10.6226 15.3012L10.6239 10.6237H12.183C12.2253 10.6293 12.2683 10.6251 12.3087 10.6115C12.3491 10.5978 12.3858 10.575 12.416 10.5448C12.4461 10.5147 12.4689 10.4779 12.4826 10.4375C12.4963 10.3971 12.5005 10.3541 12.4948 10.3118V8.44081C12.5005 8.39852 12.4963 8.35551 12.4826 8.3151C12.4689 8.27469 12.4461 8.23798 12.416 8.20781C12.3858 8.17765 12.3491 8.15484 12.3087 8.14117C12.2683 8.1275 12.2253 8.12332 12.183 8.12897H10.622L10.6239 7.19346C10.6844 6.79493 10.6844 6.85979 11.0542 6.88162H12.1699C12.2566 6.86229 12.3489 6.87289 12.4137 6.8099C12.4786 6.74691 12.516 6.66084 12.4942 6.56978V4.69876C12.4999 4.65651 12.4959 4.6135 12.4823 4.57309C12.4687 4.53267 12.4459 4.49594 12.4158 4.46576C12.3857 4.43558 12.349 4.41276 12.3086 4.39909C12.2682 4.38541 12.2252 4.38125 12.183 4.38692ZM11.8493 6.22302L11.0673 6.19308C10.0988 6.19308 10.0177 6.71884 10.0177 7.25707L10.0152 8.43956C10.0151 8.48335 10.0237 8.52672 10.0404 8.5672C10.0571 8.60768 10.0816 8.64447 10.1125 8.67546C10.1435 8.70645 10.1802 8.73104 10.2207 8.74781C10.2611 8.76459 10.3045 8.77322 10.3483 8.77322H11.8712V9.97816H10.3495C10.2611 9.97816 10.1763 10.0132 10.1138 10.0757C10.0512 10.1381 10.016 10.2228 10.0159 10.3112L10.0152 14.9894H8.75299V10.3118C8.75299 10.1278 8.62764 9.97879 8.44304 9.97879H7.50572V8.77385H8.44304C8.4868 8.77392 8.53014 8.76536 8.57059 8.74866C8.61104 8.73197 8.6478 8.70747 8.67878 8.67656C8.74114 8.61356 8.75237 8.52874 8.75237 8.44018V7.09616C8.75237 5.69789 9.03487 5.0318 10.5185 5.0318H11.8487V6.22302H11.8493Z" fill="#3B5998"/>
</svg>
