<svg width="22" height="22" viewBox="0 0 22 22" fill="none" xmlns="http://www.w3.org/2000/svg">
<path d="M5.81472 3.0919L6.17437 2.91349C7.67309 2.02163 9.35151 1.60541 11.03 1.60541C16.3052 1.60541 20.6213 5.88648 20.6213 11.1189C20.6213 13.6162 19.6021 16.054 17.8038 17.8378C16.0055 19.6216 13.6076 20.6324 11.03 20.6324C5.75483 20.6324 1.43868 16.3513 1.49866 11.0594C1.49866 9.27569 2.03817 7.55129 2.93732 6.06488L3.17708 5.70807L2.21804 2.19995L5.81472 3.0919Z" fill="#00E676"/>
<path d="M18.8229 18.7892C16.7847 20.8702 13.9673 22 11.0899 22C4.97553 22 0.0599834 17.0649 0.119881 11.0595C0.119881 9.15678 0.659388 7.31347 1.55862 5.64866L0 0L5.8147 1.48649C7.43322 0.594547 9.23152 0.178322 11.03 0.178322C17.0845 0.178322 22 5.11352 22 11.1188C22 14.0324 20.861 16.7676 18.8229 18.7892H18.8229ZM11.0899 2.02154C9.47137 2.02154 7.85285 2.43768 6.47409 3.27013L6.11444 3.44854L2.63764 2.55668L3.53679 5.9458L3.29703 6.30262C0.659388 10.5242 1.91827 16.1135 6.23432 18.7298C10.5504 21.346 16.1253 20.0973 18.763 15.8162C21.4005 11.5351 20.1416 6.00539 15.8257 3.38913C14.4468 2.49726 12.7684 2.02163 11.0899 2.02163V2.02154ZM16.3651 8.62148L15.7057 8.91879C15.7057 8.91879 14.7466 9.33502 14.1472 9.63233C14.0872 9.63233 14.0273 9.69183 13.9673 9.69183C13.7874 9.69183 13.6675 9.63233 13.5477 9.57283C13.5477 9.57283 13.4878 9.51342 12.6485 8.56206C12.5885 8.44315 12.4686 8.38366 12.3488 8.38366H12.2888C12.2289 8.38366 12.109 8.44315 12.049 8.50257L11.7493 8.62148C11.0899 8.91879 10.4905 9.2756 10.0109 9.75124C9.89099 9.87015 9.71113 9.98906 9.59125 10.108C9.17162 10.5242 8.752 10.9999 8.45234 11.535L8.39235 11.654C8.33246 11.7135 8.33246 11.7729 8.27247 11.8918C8.27247 12.0107 8.27247 12.1296 8.33246 12.1891C8.33246 12.1891 8.57222 12.4864 8.752 12.6647C8.87196 12.7837 8.93186 12.962 9.05174 13.081C9.17162 13.2594 9.23161 13.4972 9.17162 13.6756C9.11172 13.9729 8.39235 15.5783 8.21257 15.935C8.09261 16.1134 7.97281 16.1729 7.79295 16.2323H7.13356C7.01359 16.2323 6.8938 16.1729 6.77383 16.1729L6.71385 16.1134C6.59397 16.0539 6.47409 15.935 6.35421 15.8756C6.23432 15.7566 6.17434 15.6378 6.05446 15.5188C5.63483 14.9837 5.39507 14.3296 5.39507 13.6756C5.39507 13.1999 5.51495 12.7242 5.69482 12.308L5.7548 12.1296C6.29431 10.9999 7.01359 9.98906 7.97281 9.0972L8.21257 8.85938C8.39235 8.68097 8.57222 8.56206 8.6921 8.38374C9.95098 7.31339 11.3896 6.54044 13.0082 6.12421C13.188 6.0648 13.4278 6.0648 13.6076 6.0053H14.2071C14.5068 6.0053 14.8664 6.12421 15.1063 6.24312C15.2861 6.36203 15.4059 6.36203 15.5258 6.48094L15.6458 6.59993C15.7657 6.71884 15.8856 6.77825 16.0054 6.89716C16.1253 7.01607 16.2452 7.13498 16.3052 7.25398C16.4251 7.49179 16.485 7.78911 16.5449 8.08634V8.50257C16.5449 8.50257 16.485 8.56206 16.3651 8.62148Z" fill="white"/>
</svg>
