<svg width="20" height="20" viewBox="0 0 20 20" fill="none" xmlns="http://www.w3.org/2000/svg">
<circle cx="10" cy="10" r="9.5" fill="white" stroke="#3C3737"/>
<path d="M9.5 9H7.5C7.10218 9 6.72064 9.15804 6.43934 9.43934C6.15804 9.72064 6 10.1022 6 10.5C6 10.8978 6.15804 11.2794 6.43934 11.5607C6.72064 11.842 7.10218 12 7.5 12H9.5V13H7.5C6.83696 13 6.20107 12.7366 5.73223 12.2678C5.26339 11.7989 5 11.163 5 10.5C5 9.83696 5.26339 9.20107 5.73223 8.73223C6.20107 8.26339 6.83696 8 7.5 8H9.5V9ZM10.5 12H12.5C12.8978 12 13.2794 11.842 13.5607 11.5607C13.842 11.2794 14 10.8978 14 10.5C14 10.1022 13.842 9.72064 13.5607 9.43934C13.2794 9.15804 12.8978 9 12.5 9H10.5V8H12.5C13.163 8 13.7989 8.26339 14.2678 8.73223C14.7366 9.20107 15 9.83696 15 10.5C15 11.163 14.7366 11.7989 14.2678 12.2678C13.7989 12.7366 13.163 13 12.5 13H10.5V12ZM8.5 10H11.5C11.6326 10 11.7598 10.0527 11.8536 10.1464C11.9473 10.2402 12 10.3674 12 10.5C12 10.6326 11.9473 10.7598 11.8536 10.8536C11.7598 10.9473 11.6326 11 11.5 11H8.5C8.36739 11 8.24021 10.9473 8.14645 10.8536C8.05268 10.7598 8 10.6326 8 10.5C8 10.3674 8.05268 10.2402 8.14645 10.1464C8.24021 10.0527 8.36739 10 8.5 10V10Z" fill="#706868"/>
</svg>
