<svg width="20" height="20" viewBox="0 0 20 20" fill="none" xmlns="http://www.w3.org/2000/svg">
<path d="M10 0C4.48644 0 0 4.48547 0 10C0 15.5145 4.48644 20 10 20C15.5136 20 20 15.5145 20 10C20 4.48547 15.5136 0 10 0ZM10 19.3339C4.85376 19.3339 0.66729 15.1466 0.66729 10C0.66729 4.85344 4.85376 0.666085 10 0.666085C15.1462 0.666085 19.3327 4.85344 19.3327 10C19.3327 15.1466 15.1462 19.3339 10 19.3339Z" fill="#00ACEE"/>
<path d="M15.4842 6.9103C15.5533 6.78225 15.6103 6.64799 15.6544 6.50928C15.6748 6.44494 15.6752 6.37592 15.6556 6.31134C15.636 6.24677 15.5972 6.18966 15.5444 6.14757C15.4917 6.10548 15.4274 6.08038 15.3601 6.07559C15.2927 6.07079 15.2255 6.08654 15.1674 6.12073C14.8478 6.31058 14.5019 6.45203 14.1409 6.54046C13.7026 6.14491 13.1334 5.92563 12.5431 5.9249C12.2224 5.92514 11.905 5.99015 11.61 6.11603C11.315 6.2419 11.0485 6.42605 10.8264 6.65744C10.6042 6.88882 10.4311 7.16267 10.3174 7.46258C10.2037 7.76249 10.1517 8.08227 10.1646 8.40276C8.762 8.22618 7.48125 7.51642 6.588 6.42072C6.55377 6.37921 6.51004 6.34657 6.4605 6.32558C6.41097 6.30459 6.3571 6.29587 6.30347 6.30016C6.24984 6.30444 6.19804 6.32161 6.15247 6.3502C6.10689 6.37879 6.06889 6.41796 6.04169 6.46438C5.83716 6.81546 5.72598 7.2131 5.71878 7.61936C5.71157 8.02562 5.80858 8.42695 6.00053 8.78507C5.95346 8.79301 5.90823 8.8095 5.86708 8.83372C5.81665 8.86587 5.77514 8.91021 5.74636 8.96264C5.71759 9.01507 5.70248 9.0739 5.70244 9.1337C5.70244 9.84157 6.01737 10.4914 6.52501 10.933L6.50318 10.9548C6.46486 10.9982 6.43849 11.0508 6.42668 11.1074C6.41487 11.1641 6.41803 11.2228 6.43583 11.2779C6.54169 11.6081 6.71843 11.9113 6.9537 12.1661C7.18897 12.4208 7.47708 12.6211 7.79785 12.7529C7.13904 13.0743 6.40176 13.1996 5.67375 13.114C5.59892 13.1064 5.52367 13.1238 5.45979 13.1635C5.39592 13.2032 5.34702 13.263 5.32077 13.3335C5.29556 13.4045 5.29509 13.482 5.31943 13.5533C5.34377 13.6246 5.39149 13.6857 5.45485 13.7264C6.44457 14.3617 7.59595 14.6992 8.77197 14.6988C12.626 14.6988 14.9298 11.5679 14.9298 8.54121L14.9291 8.43893C15.3026 8.14731 15.6271 7.79779 15.8902 7.40363C15.93 7.34404 15.9496 7.27321 15.946 7.20162C15.9425 7.13003 15.9159 7.06149 15.8704 7.00614C15.8249 6.9508 15.7627 6.91159 15.6931 6.89433C15.6236 6.87707 15.5503 6.88267 15.4842 6.9103ZM14.3959 8.00485C14.3507 8.0374 14.3143 8.08076 14.2901 8.13098C14.2659 8.18121 14.2547 8.23669 14.2575 8.29237C14.2612 8.37469 14.2631 8.45826 14.2631 8.54059C14.2631 11.2399 12.2095 14.032 8.7726 14.032C8.15963 14.0323 7.55098 13.9294 6.97216 13.7277C7.66539 13.5948 8.31661 13.2975 8.87113 12.8608C8.92511 12.8182 8.96462 12.76 8.98427 12.6941C9.00392 12.6283 9.00275 12.5579 8.98091 12.4928C8.95907 12.4276 8.91763 12.3707 8.86226 12.33C8.80689 12.2893 8.74029 12.2666 8.67157 12.2652C8.40267 12.26 8.13875 12.1918 7.90108 12.0659C7.66341 11.94 7.45865 11.76 7.30331 11.5405C7.46109 11.5299 7.61575 11.5037 7.76605 11.4631C7.83879 11.4437 7.90278 11.4001 7.94759 11.3396C7.9924 11.2791 8.01537 11.2051 8.01277 11.1299C8.01016 11.0546 7.98213 10.9825 7.93325 10.9252C7.88436 10.8679 7.81751 10.8289 7.7436 10.8145C7.4399 10.7527 7.15871 10.6095 6.93012 10.4003C6.70152 10.191 6.53411 9.92349 6.44581 9.62641C6.6117 9.66819 6.78195 9.69252 6.9522 9.69813C7.09876 9.6975 7.23471 9.6077 7.28024 9.46675C7.32576 9.3258 7.27213 9.1705 7.14802 9.08817C6.85459 8.89266 6.62865 8.61132 6.50107 8.28259C6.37349 7.95385 6.35049 7.59375 6.43521 7.25145C7.51848 8.36304 8.98124 9.02497 10.5312 9.10501C10.641 9.10564 10.737 9.06635 10.8038 8.98589C10.8705 8.90544 10.8961 8.79879 10.8724 8.69651C10.7871 8.32916 10.8252 7.94394 10.9809 7.60047C11.1366 7.25699 11.4012 6.97441 11.7336 6.79645C12.0661 6.61848 12.4479 6.55507 12.8201 6.61601C13.1922 6.67696 13.5339 6.85886 13.7922 7.13358C13.831 7.17489 13.8796 7.20567 13.9334 7.22302C13.9873 7.24037 14.0448 7.24371 14.1003 7.23274C14.2032 7.21216 14.3049 7.18846 14.4053 7.16102C14.36 7.19491 14.313 7.22634 14.2643 7.25519C14.1997 7.29481 14.1504 7.35528 14.1247 7.42663C14.099 7.49798 14.0984 7.57597 14.1229 7.64773C14.1475 7.71949 14.1957 7.78074 14.2598 7.8214C14.3238 7.86205 14.3997 7.87968 14.4751 7.87139L14.5886 7.85704C14.5261 7.90853 14.4618 7.95783 14.3959 8.00485Z" fill="#00ACEE"/>
</svg>
