<svg width="20" height="20" viewBox="0 0 20 20" fill="none" xmlns="http://www.w3.org/2000/svg">
<path d="M10 0C4.485 0 0 4.48375 0 10C0 15.5163 4.48375 20 10 20C15.5163 20 20 15.515 20 10C20 4.485 15.515 0 10 0ZM10 18.6637C9.13008 18.664 8.26504 18.5338 7.43375 18.2775C7.785 17.7038 8.31625 16.7575 8.51125 16.0075C8.61625 15.6012 9.05 13.9488 9.05 13.9488C9.33125 14.4875 10.16 14.945 11.0337 14.945C13.6475 14.945 15.53 12.5425 15.53 9.55375C15.53 6.69 13.1938 4.55 10.19 4.55C6.45125 4.55 4.4675 7.06125 4.4675 9.7925C4.4675 11.0625 5.14375 12.6437 6.225 13.1475C6.38875 13.2262 6.475 13.19 6.51375 13.03C6.54125 12.9087 6.69 12.3225 6.75625 12.0463C6.76833 12.003 6.76928 11.9574 6.75901 11.9137C6.74874 11.87 6.72758 11.8296 6.6975 11.7963C6.33875 11.3625 6.0525 10.5612 6.0525 9.82C6.0525 7.91 7.4975 6.05875 9.9625 6.05875C12.0912 6.05875 13.58 7.5075 13.58 9.5825C13.58 11.9262 12.3962 13.5512 10.8575 13.5512C10.0062 13.5512 9.36875 12.8475 9.57625 11.985C9.8225 10.9538 10.295 9.84375 10.295 9.1025C10.295 8.43875 9.94 7.88375 9.1975 7.88375C8.32625 7.88375 7.63125 8.7825 7.63125 9.98875C7.63125 10.7537 7.88875 11.2738 7.88875 11.2738C7.88875 11.2738 7.02875 14.9025 6.8725 15.5788C6.69625 16.3288 6.7675 17.38 6.84125 18.0638C5.21828 17.4305 3.82425 16.3221 2.84159 14.8836C1.85892 13.445 1.33339 11.7434 1.33375 10.0013C1.334 8.28808 1.84222 6.61344 2.79417 5.18909C3.74611 3.76474 5.09902 2.65464 6.68183 1.99915C8.26465 1.34367 10.0063 1.17222 11.6865 1.50651C13.3668 1.84079 14.9102 2.66579 16.1216 3.87719C17.333 5.08858 18.158 6.63198 18.4922 8.31222C18.8265 9.99247 18.6551 11.7341 17.9996 13.3169C17.3441 14.8997 16.234 16.2526 14.8097 17.2046C13.3853 18.1565 11.7107 18.6648 9.9975 18.665L10 18.6637Z" fill="#C8232C"/>
</svg>
