<svg width="11" height="11" viewBox="0 0 11 11" fill="none" xmlns="http://www.w3.org/2000/svg">
<path fillRule="evenodd" clipRule="evenodd" d="M1.2499 10.1388C1.04876 10.1728 0.891863 9.9652 0.976619 9.77722L1.73528 8.09457C1.22915 7.33491 0.953596 6.43805 0.953596 5.49973C0.953596 2.93569 3.00431 0.857117 5.53399 0.857117C8.06368 0.857117 10.1144 2.93569 10.1144 5.49973C10.1144 8.06378 8.06368 10.1424 5.53399 10.1424C4.87621 10.1424 4.23767 10.0016 3.65121 9.73318L1.2499 10.1388ZM3.64491 9.21128C3.69608 9.20264 3.74864 9.21006 3.79554 9.23254C4.33424 9.49077 4.92437 9.6265 5.534 9.6265C7.78261 9.6265 9.60546 7.77888 9.60546 5.49973C9.60546 3.22058 7.78261 1.37296 5.534 1.37296C3.28539 1.37296 1.46253 3.22058 1.46253 5.49973C1.46253 6.38023 1.73496 7.21846 2.23334 7.91645C2.28706 7.99169 2.29672 8.09039 2.25863 8.17487L1.63853 9.55022L3.64491 9.21128ZM3.96092 4.19839C3.96092 4.32141 4.05931 4.42114 4.18068 4.42114H7.25741C7.37879 4.42114 7.47718 4.32141 7.47718 4.19839C7.47718 4.07537 7.37879 3.97564 7.25741 3.97564H4.18068C4.05931 3.97564 3.96092 4.07537 3.96092 4.19839ZM3.96092 5.5349C3.96092 5.65792 4.05931 5.75765 4.18068 5.75765H7.25741C7.37879 5.75765 7.47718 5.65792 7.47718 5.5349C7.47718 5.41188 7.37879 5.31215 7.25741 5.31215H4.18068C4.05931 5.31215 3.96092 5.41188 3.96092 5.5349ZM4.18068 7.09416C4.05931 7.09416 3.96092 6.99443 3.96092 6.87141C3.96092 6.74839 4.05931 6.64866 4.18068 6.64866H6.37835C6.49972 6.64866 6.59811 6.74839 6.59811 6.87141C6.59811 6.99443 6.49972 7.09416 6.37835 7.09416H4.18068Z" fill="white"/>
</svg>
