<svg width="11" height="11" viewBox="0 0 11 11" fill="none" xmlns="http://www.w3.org/2000/svg">
<path fillRule="evenodd" clipRule="evenodd" d="M10.4466 4.04369H10.4417C10.4159 2.43438 9.18769 1 7.67109 1C6.7938 1 6.02069 1.48769 5.51187 2.20375C5.00305 1.48769 4.22994 1 3.35266 1C1.83605 1 0.607853 2.43438 0.582083 4.04369H0.577148C0.577148 4.05381 0.578793 4.06281 0.578793 4.07238C0.578793 4.07969 0.577148 4.087 0.577148 4.09488C0.577148 4.13988 0.587566 4.17419 0.589759 4.2175C0.72519 8.31869 5.47294 10 5.47294 10C5.47294 10 10.2903 8.32037 10.4329 4.22369C10.4356 4.17812 10.4466 4.14213 10.4466 4.09488C10.4466 4.087 10.4449 4.07969 10.4449 4.07238C10.4449 4.06169 10.4466 4.05325 10.4466 4.04369Z" stroke="white"/>
<mask id="mask0" style="mask-type:alpha" maskUnits="userSpaceOnUse" x="0" y="0" width="11" height="11">
<path fillRule="evenodd" clipRule="evenodd" d="M10.4466 4.04369H10.4417C10.4159 2.43438 9.18769 1 7.67109 1C6.7938 1 6.02069 1.48769 5.51187 2.20375C5.00305 1.48769 4.22994 1 3.35266 1C1.83605 1 0.607853 2.43438 0.582083 4.04369H0.577148C0.577148 4.05381 0.578793 4.06281 0.578793 4.07238C0.578793 4.07969 0.577148 4.087 0.577148 4.09488C0.577148 4.13988 0.587566 4.17419 0.589759 4.2175C0.72519 8.31869 5.47294 10 5.47294 10C5.47294 10 10.2903 8.32037 10.4329 4.22369C10.4356 4.17812 10.4466 4.14213 10.4466 4.09488C10.4466 4.087 10.4449 4.07969 10.4449 4.07238C10.4449 4.06169 10.4466 4.05325 10.4466 4.04369Z" stroke="white"/>
</mask>
<g mask="url(#mask0)">
</g>
</svg>
