<svg width="30" height="30" viewBox="0 0 30 30" fill="none" xmlns="http://www.w3.org/2000/svg">
<circle cx="15" cy="15" r="15" fill="#E9EEFC"/>
<path d="M21.4 11.3684H16.9104L17.8088 8.35584C17.9704 7.81184 17.8888 7.20879 17.5888 6.74353C17.2888 6.27826 16.8024 6 16.2896 6H15C14.7624 6 14.5376 6.11811 14.3848 6.32211L10.6248 11.3684H8.6C7.7176 11.3684 7 12.171 7 13.1579V21.2105C7 22.1974 7.7176 23 8.6 23H19.2456C19.5711 22.9988 19.8886 22.8871 20.1562 22.6798C20.4237 22.4724 20.6287 22.1791 20.744 21.8386L22.9496 15.2614C22.9831 15.161 23.0002 15.0546 23 14.9474V13.1579C23 12.171 22.2824 11.3684 21.4 11.3684ZM8.6 13.1579H10.2V21.2105H8.6V13.1579ZM21.4 14.7854L19.2456 21.2105H11.8V12.5871L15.3744 7.78947H16.2912L15.0416 11.9795C15.001 12.114 14.9897 12.2574 15.0086 12.3978C15.0275 12.5381 15.076 12.6714 15.1501 12.7866C15.2243 12.9018 15.3219 12.9956 15.4349 13.0602C15.5479 13.1247 15.6731 13.1582 15.8 13.1579H21.4V14.7854Z" fill="#9333EA"/>
</svg>
