<svg width="30" height="30" viewBox="0 0 30 30" fill="none" xmlns="http://www.w3.org/2000/svg">
<circle cx="15" cy="15" r="15" fill="#E9EEFC"/>
<path d="M7 15C7 16.4702 8.18765 17.6667 9.64706 17.6667C10.3476 17.6667 10.9812 17.3867 11.455 16.9378L16.7412 19.9813C16.7253 20.0969 16.7059 20.2124 16.7059 20.3333C16.7059 21.8036 17.8935 23 19.3529 23C20.8124 23 22 21.8036 22 20.3333C22 18.8631 20.8124 17.6667 19.3529 17.6667C18.6524 17.6667 18.0188 17.9467 17.545 18.3956L12.2588 15.3529C12.2747 15.2364 12.2941 15.1209 12.2941 15C12.2941 14.8791 12.2747 14.7636 12.2588 14.6471L17.545 11.6044C18.0188 12.0533 18.6524 12.3333 19.3529 12.3333C20.8124 12.3333 22 11.1369 22 9.66667C22 8.19644 20.8124 7 19.3529 7C17.8935 7 16.7059 8.19644 16.7059 9.66667C16.7059 9.78756 16.7253 9.90311 16.7412 10.0196L11.455 13.0622C10.9671 12.5953 10.3201 12.3344 9.64706 12.3333C8.18765 12.3333 7 13.5298 7 15Z" fill="#3D42DF"/>
</svg>
