<svg width="35" height="36" viewBox="0 0 35 36" fill="none" xmlns="http://www.w3.org/2000/svg">
<path d="M17.8566 0.283274C22.4033 0.307961 26.7542 2.17535 29.9522 5.47465C33.1501 8.77395 34.9331 13.2349 34.9089 17.8761C34.8847 22.5173 33.0553 26.9587 29.8232 30.223C26.5911 33.4874 22.221 35.3075 17.6742 35.2828C13.1275 35.2581 8.7766 33.3907 5.57868 30.0914C2.38075 26.7921 0.597766 22.3312 0.62195 17.6899C0.646135 13.0487 2.47551 8.60739 5.70764 5.34301C8.93976 2.07863 13.3099 0.258586 17.8566 0.283274ZM10.2709 16.6486C9.98668 16.647 9.71355 16.7608 9.51154 16.9648C9.30953 17.1688 9.1952 17.4464 9.19369 17.7365C9.19217 18.0266 9.30361 18.3054 9.50348 18.5116C9.70335 18.7178 9.97528 18.8345 10.2595 18.836L22.6735 18.9034L18.0481 23.5728C17.8459 23.7771 17.7314 24.055 17.7299 24.3454C17.7284 24.6359 17.8399 24.915 18.0401 25.1215C18.2402 25.328 18.5125 25.4448 18.797 25.4464C19.0815 25.4479 19.355 25.334 19.5573 25.1297L26.0203 18.6022C26.1206 18.5012 26.2004 18.3809 26.2551 18.2483C26.3098 18.1157 26.3383 17.9734 26.3391 17.8296C26.3398 17.6857 26.3128 17.5431 26.2594 17.4099C26.2061 17.2768 26.1276 17.1556 26.0283 17.0535L19.6337 10.4562C19.4336 10.2497 19.1613 10.1329 18.8768 10.1313C18.5923 10.1298 18.3188 10.2437 18.1165 10.448C17.9143 10.6522 17.7998 10.9302 17.7983 11.2206C17.7968 11.5111 17.9083 11.7902 18.1085 11.9967L22.6849 16.716L10.2709 16.6486Z" fill="white"/>
</svg>
