<svg width="41" height="41" viewBox="0 0 41 41" fill="none" xmlns="http://www.w3.org/2000/svg">
<path d="M20.2125 0.106458C25.5167 0.134672 30.5925 2.26884 34.3233 6.03946C38.054 9.81009 40.134 14.9083 40.1058 20.2126C40.0776 25.5168 37.9434 30.5926 34.1728 34.3233C30.4022 38.0541 25.304 40.1341 19.9997 40.1059C14.6955 40.0777 9.61966 37.9435 5.88894 34.1729C2.15822 30.4023 0.0781674 25.304 0.106381 19.9998C0.134596 14.6955 2.26876 9.61974 6.03939 5.88902C9.81001 2.15829 14.9082 0.0782441 20.2125 0.106458ZM11.3629 18.8097C11.0314 18.8079 10.7127 18.9379 10.4771 19.1711C10.2414 19.4042 10.108 19.7215 10.1062 20.053C10.1045 20.3845 10.2345 20.7031 10.4677 20.9388C10.7008 21.1745 11.0181 21.3079 11.3496 21.3096L25.8319 21.3866L20.4359 26.723C20.1999 26.9565 20.0664 27.2741 20.0646 27.6061C20.0629 27.938 20.193 28.257 20.4265 28.493C20.66 28.729 20.9776 28.8625 21.3095 28.8643C21.6415 28.866 21.9605 28.7359 22.1965 28.5024L29.7363 21.0424C29.8533 20.9269 29.9464 20.7895 30.0102 20.6379C30.074 20.4864 30.1073 20.3238 30.1082 20.1594C30.1091 19.995 30.0775 19.832 30.0153 19.6798C29.9531 19.5276 29.8615 19.3892 29.7457 19.2724L22.2857 11.7327C22.0522 11.4967 21.7346 11.3631 21.4026 11.3614C21.0707 11.3596 20.7517 11.4898 20.5157 11.7232C20.2797 11.9567 20.1462 12.2743 20.1444 12.6063C20.1426 12.9382 20.2728 13.2573 20.5063 13.4932L25.8452 18.8867L11.3629 18.8097Z" fill="#556EE6"/>
</svg>
