<?xml version="1.0" encoding="UTF-8" standalone="no"?><!-- Generator: Gravit.io --><svg xmlns="http://www.w3.org/2000/svg" xmlns:xlink="http://www.w3.org/1999/xlink" style="isolation:isolate" viewBox="0 0 60 60" width="60pt" height="60pt"><path d=" M 437.772 2080.6 L 437.411 2080.825 L 429.571 2086.2 L 424.26 2086.2 L 424.26 2099 L 443.733 2099 C 445.363 2099 446.785 2098.203 447.129 2097.1 L 449.623 2089.1 C 450.077 2087.622 448.407 2086.2 446.226 2086.2 L 439.578 2086.2 L 439.796 2085.6 C 440.03 2085.475 440.179 2085.422 440.518 2085.1 C 441.059 2084.588 441.601 2083.794 441.601 2082.725 C 441.601 2081.584 440.11 2080.6 438.242 2080.6 L 437.772 2080.6 Z  M 438.602 2082.275 C 439.09 2082.341 439.289 2082.478 439.289 2082.725 C 439.289 2083.447 438.974 2083.894 438.675 2084.175 C 438.377 2084.456 438.169 2084.525 438.169 2084.525 L 437.772 2084.675 L 437.628 2085 L 436.941 2086.8 L 436.579 2087.8 L 446.226 2087.8 C 446.989 2087.8 447.503 2088.259 447.346 2088.775 L 444.889 2096.775 C 444.766 2097.146 444.284 2097.407 443.733 2097.4 L 431.196 2097.4 L 431.196 2087.325 L 438.602 2082.275 Z  M 426.572 2087.8 L 428.884 2087.8 L 428.884 2097.4 L 426.572 2097.4 L 426.572 2087.8 Z " fill="rgb(145,143,143)"/><path d=" M 33.378 2 C 32.89 2 32.403 2.187 32.051 2.55 L 26.481 8.297 L 23.378 5.095 C 22.593 4.286 21.321 4.286 20.535 5.095 L 13.498 12.357 L 7.74 12.357 C 6.161 12.364 4.852 13.621 4.732 15.246 L 2.008 54.665 C 1.947 55.524 2.239 56.38 2.808 57.011 C 3.38 57.641 4.178 57.999 5.015 58 L 54.985 58 C 55.821 57.998 56.619 57.64 57.191 57.011 C 57.76 56.379 58.051 55.524 57.993 54.665 L 55.263 15.246 C 55.147 13.621 53.837 12.362 52.258 12.357 L 44.203 12.357 L 34.7 2.551 C 34.346 2.194 33.87 1.996 33.376 2 L 33.378 2 Z  M 33.378 4.115 L 41.36 12.357 L 25.39 12.357 L 33.378 4.115 Z  M 21.957 6.563 L 25.059 9.764 L 22.546 12.357 L 16.341 12.357 L 21.957 6.563 Z  M 7.741 14.432 L 52.255 14.432 C 52.781 14.432 53.22 14.857 53.26 15.396 L 55.985 54.815 C 56.007 55.103 55.91 55.387 55.719 55.598 C 55.529 55.808 55.263 55.927 54.985 55.925 L 5.015 55.925 C 4.733 55.925 4.469 55.808 4.277 55.598 C 4.089 55.385 3.993 55.103 4.009 54.815 L 6.52 18.581 L 41.059 18.581 C 41.614 18.581 42.064 18.117 42.064 17.544 C 42.064 16.971 41.614 16.506 41.059 16.506 L 6.666 16.506 L 6.739 15.396 C 6.779 14.857 7.219 14.432 7.74 14.432 L 7.741 14.432 Z  M 45.08 16.506 C 44.525 16.506 44.075 16.971 44.075 17.544 C 44.075 18.117 44.525 18.581 45.08 18.581 L 49.101 18.581 C 49.657 18.581 50.107 18.117 50.107 17.544 C 50.107 16.971 49.657 16.506 49.101 16.506 L 45.08 16.506 Z  M 18.941 20.656 C 17.28 20.656 15.925 22.054 15.925 23.768 C 15.925 25.133 16.789 26.284 17.979 26.701 C 18.411 33.164 23.63 38.29 30 38.29 C 36.37 38.29 41.588 33.165 42.021 26.701 C 43.244 26.278 44.07 25.099 44.075 23.768 C 44.075 22.054 42.719 20.656 41.059 20.656 C 39.398 20.656 38.043 22.054 38.043 23.768 C 38.043 25.101 38.867 26.236 40.01 26.672 C 39.598 32.005 35.27 36.216 30 36.216 C 24.73 36.216 20.402 32.005 19.989 26.672 C 21.168 26.222 21.953 25.065 21.957 23.768 C 21.957 22.054 20.602 20.656 18.941 20.656 Z  M 18.941 22.73 C 19.494 22.73 19.946 23.197 19.946 23.768 C 19.946 24.338 19.494 24.805 18.941 24.805 C 18.388 24.805 17.936 24.338 17.936 23.768 C 17.936 23.197 18.388 22.73 18.941 22.73 Z  M 41.059 22.73 C 41.611 22.73 42.064 23.197 42.064 23.768 C 42.064 24.338 41.611 24.805 41.059 24.805 C 40.506 24.805 40.053 24.338 40.053 23.768 C 40.053 23.197 40.506 22.73 41.059 22.73 Z  M 6.877 49.701 C 6.321 49.701 5.871 50.166 5.871 50.739 L 5.871 52.813 C 5.871 53.386 6.321 53.851 6.877 53.851 C 7.432 53.851 7.882 53.386 7.882 52.813 L 7.882 50.739 C 7.882 50.166 7.432 49.701 6.877 49.701 Z  M 11.903 49.701 C 11.348 49.701 10.898 50.166 10.898 50.739 L 10.898 52.813 C 10.898 53.386 11.348 53.851 11.903 53.851 C 12.459 53.851 12.909 53.386 12.909 52.813 L 12.909 50.739 C 12.909 50.166 12.459 49.701 11.903 49.701 Z  M 16.93 49.701 C 16.375 49.701 15.925 50.166 15.925 50.739 L 15.925 52.813 C 15.925 53.386 16.375 53.851 16.93 53.851 C 17.485 53.851 17.936 53.386 17.936 52.813 L 17.936 50.739 C 17.936 50.166 17.485 49.701 16.93 49.701 Z  M 21.957 49.701 C 21.402 49.701 20.952 50.166 20.952 50.739 L 20.952 52.813 C 20.952 53.386 21.402 53.851 21.957 53.851 C 22.512 53.851 22.962 53.386 22.962 52.813 L 22.962 50.739 C 22.962 50.166 22.512 49.701 21.957 49.701 Z  M 26.984 49.701 C 26.428 49.701 25.978 50.166 25.978 50.739 L 25.978 52.813 C 25.978 53.386 26.428 53.851 26.984 53.851 C 27.539 53.851 27.989 53.386 27.989 52.813 L 27.989 50.739 C 27.989 50.166 27.539 49.701 26.984 49.701 Z  M 33.016 49.701 C 32.461 49.701 32.01 50.166 32.01 50.739 L 32.01 52.813 C 32.01 53.386 32.461 53.851 33.016 53.851 C 33.571 53.851 34.021 53.386 34.021 52.813 L 34.021 50.739 C 34.021 50.166 33.571 49.701 33.016 49.701 Z  M 38.043 49.701 C 37.487 49.701 37.037 50.166 37.037 50.739 L 37.037 52.813 C 37.037 53.386 37.487 53.851 38.043 53.851 C 38.598 53.851 39.048 53.386 39.048 52.813 L 39.048 50.739 C 39.048 50.166 38.598 49.701 38.043 49.701 Z  M 43.069 49.701 C 42.514 49.701 42.064 50.166 42.064 50.739 L 42.064 52.813 C 42.064 53.386 42.514 53.851 43.069 53.851 C 43.624 53.851 44.075 53.386 44.075 52.813 L 44.075 50.739 C 44.075 50.166 43.624 49.701 43.069 49.701 Z  M 48.096 49.701 C 47.541 49.701 47.091 50.166 47.091 50.739 L 47.091 52.813 C 47.091 53.386 47.541 53.851 48.096 53.851 C 48.651 53.851 49.101 53.386 49.101 52.813 L 49.101 50.739 C 49.101 50.166 48.651 49.701 48.096 49.701 Z  M 53.123 49.701 C 52.568 49.701 52.117 50.166 52.117 50.739 L 52.117 52.813 C 52.117 53.386 52.568 53.851 53.123 53.851 C 53.678 53.851 54.128 53.386 54.128 52.813 L 54.128 50.739 C 54.128 50.166 53.678 49.701 53.123 49.701 Z " fill="rgb(255,255,255)"/></svg>