<?xml version="1.0" encoding="UTF-8" standalone="no"?><!-- Generator: Gravit.io --><svg xmlns="http://www.w3.org/2000/svg" xmlns:xlink="http://www.w3.org/1999/xlink" style="isolation:isolate" viewBox="0 0 60 60" width="60pt" height="60pt"><path d=" M 22 2.25 C 17.052 2.25 12.837 4.224 9.918 7.825 C 6.999 11.423 5.375 16.597 5.375 22.959 C 5.375 27.758 6.974 35.556 6.974 35.556 L 7.107 36.213 L 16.458 36.213 L 16.458 36.352 C 15.32 36.633 12.787 37.323 10.224 38.397 C 8.504 39.118 6.767 40.012 5.409 41.122 C 4.048 42.232 3 43.626 3 45.325 L 3 49.466 L 35.598 49.466 C 37.481 54.316 42.026 57.75 47.333 57.75 C 54.319 57.75 60 51.806 60 44.496 C 60 37.187 54.319 31.243 47.333 31.243 C 45.654 31.243 44.052 31.595 42.583 32.217 L 42.583 29.621 C 42.94 29.365 43.267 29.075 43.567 28.757 L 50.664 28.757 L 50.871 28.252 C 50.871 28.252 52.083 25.189 52.083 18.97 C 52.083 15.048 51.121 11.741 49.557 9.373 C 48.066 7.127 45.985 5.755 43.727 5.616 C 43.375 5.159 41.697 3.078 38.625 3.078 C 34.833 3.078 32.007 5.039 30.798 6.046 C 30.124 5.803 29.422 5.659 28.711 5.618 C 28.547 5.327 28.324 4.825 27.443 4.088 C 26.333 3.16 24.552 2.25 22 2.25 Z  M 22 3.907 C 24.198 3.907 25.584 4.654 26.453 5.382 C 27.322 6.111 27.625 6.764 27.625 6.764 L 27.845 7.22 L 28.333 7.22 C 30.65 7.22 32.771 8.589 34.386 11.171 C 36 13.753 37.042 17.536 37.042 22.131 C 37.042 28.123 35.804 33.663 35.601 34.556 L 27.542 34.556 L 27.542 33.617 C 29.571 31.806 30.708 28.984 30.708 25.871 L 30.708 21.079 C 30.708 18.523 29.917 16.801 29.088 15.752 C 28.259 14.704 27.344 14.287 27.344 14.287 L 26.865 14.08 L 26.49 14.455 C 26.49 14.455 26.051 14.908 24.966 15.426 C 23.88 15.948 22.198 16.485 19.841 16.485 C 18.444 16.485 16.872 17.215 15.58 18.52 C 14.288 19.819 13.292 21.749 13.292 24.127 L 13.292 25.871 C 13.292 28.983 14.43 31.805 16.458 33.617 L 16.458 34.556 L 8.409 34.556 C 8.214 33.543 6.958 27.036 6.958 22.959 C 6.958 16.895 8.502 12.129 11.124 8.893 C 13.746 5.66 17.448 3.907 22 3.907 Z  M 38.625 4.735 C 41.201 4.735 42.738 6.884 42.738 6.884 L 42.976 7.22 L 43.375 7.22 C 45.169 7.22 46.91 8.285 48.252 10.317 C 49.598 12.349 50.5 15.332 50.5 18.97 C 50.5 24.237 49.748 26.524 49.544 27.101 L 44.736 27.101 C 45.394 25.845 45.75 24.367 45.75 22.803 L 45.75 18.97 C 45.75 16.892 45.101 15.471 44.417 14.604 C 43.734 13.737 42.963 13.384 42.963 13.384 L 42.484 13.174 L 42.107 13.55 C 42.107 13.55 41.779 13.893 40.929 14.3 C 40.218 14.64 39.154 14.976 37.741 15.08 C 37.246 13.255 36.563 11.627 35.709 10.265 C 34.797 8.799 33.674 7.648 32.415 6.848 C 33.668 5.944 35.86 4.735 38.625 4.735 Z  M 28.333 8.049 C 27.898 8.049 27.542 8.421 27.542 8.877 C 27.542 9.332 27.898 9.705 28.333 9.705 C 28.769 9.705 29.125 9.332 29.125 8.877 C 29.125 8.421 28.769 8.049 28.333 8.049 Z  M 28.333 11.362 C 27.898 11.362 27.542 11.735 27.542 12.19 C 27.542 12.646 27.898 13.019 28.333 13.019 C 28.769 13.019 29.125 12.646 29.125 12.19 C 29.125 11.735 28.769 11.362 28.333 11.362 Z  M 42.608 15.138 C 42.747 15.222 42.871 15.244 43.198 15.659 C 43.666 16.251 44.167 17.241 44.167 18.97 L 44.167 22.804 C 44.167 26.055 42.552 28.567 39.704 29.097 L 39.478 29.143 L 39.312 29.301 C 39.126 29.483 38.88 29.585 38.625 29.586 C 38.43 29.586 38.263 29.515 38.109 29.414 C 38.393 27.233 38.625 24.69 38.625 22.131 C 38.625 20.196 38.445 18.39 38.121 16.724 C 39.609 16.581 40.765 16.2 41.591 15.804 C 42.243 15.494 42.348 15.346 42.608 15.138 Z  M 26.988 16.041 C 27.155 16.132 27.393 16.209 27.867 16.808 C 28.479 17.585 29.125 18.875 29.125 21.079 L 29.125 25.871 C 29.125 28.907 28.002 31.456 25.968 32.874 L 25.958 32.874 L 25.958 32.88 C 25.18 33.417 24.304 33.779 23.385 33.945 L 23.16 33.986 L 22.99 34.145 C 22.434 34.694 21.566 34.694 21.01 34.145 L 20.84 33.987 L 20.615 33.945 C 19.696 33.779 18.82 33.417 18.042 32.88 L 18.042 32.874 L 18.032 32.874 C 15.998 31.456 14.875 28.906 14.875 25.871 L 14.875 24.127 C 14.875 22.228 15.648 20.749 16.678 19.71 C 17.708 18.675 19.019 18.141 19.841 18.141 C 22.43 18.141 24.347 17.545 25.624 16.937 C 26.512 16.51 26.706 16.28 26.988 16.041 L 26.988 16.041 Z  M 41.396 20.474 C 40.74 20.474 40.208 21.03 40.208 21.716 C 40.208 22.403 40.74 22.959 41.396 22.959 C 42.052 22.959 42.583 22.403 42.583 21.716 C 42.583 21.03 42.052 20.474 41.396 20.474 Z  M 18.438 22.959 C 17.782 22.959 17.25 23.515 17.25 24.201 C 17.25 24.888 17.782 25.444 18.438 25.444 C 19.093 25.444 19.625 24.888 19.625 24.201 C 19.625 23.515 19.093 22.959 18.438 22.959 Z  M 25.563 22.959 C 24.907 22.959 24.375 23.515 24.375 24.201 C 24.375 24.888 24.907 25.444 25.563 25.444 C 26.218 25.444 26.75 24.888 26.75 24.201 C 26.75 23.515 26.218 22.959 25.563 22.959 Z  M 41 30.44 L 41 32.782 C 40.87 32.918 40.697 33.113 40.27 33.439 C 39.716 33.867 39.003 34.223 38.625 34.223 C 38.19 34.23 37.759 34.133 37.366 33.938 C 37.551 32.999 37.716 32.056 37.861 31.11 C 38.106 31.19 38.36 31.243 38.625 31.243 C 39.212 31.243 39.751 31.022 40.184 30.683 C 40.46 30.619 40.733 30.538 41 30.44 Z  M 47.333 32.899 C 53.462 32.899 58.417 38.083 58.417 44.496 C 58.417 50.909 53.462 56.093 47.333 56.093 C 41.204 56.093 36.25 50.909 36.25 44.496 C 36.25 38.083 41.204 32.899 47.333 32.899 Z  M 18.042 34.724 C 18.679 35.06 19.369 35.323 20.117 35.488 C 20.633 35.919 21.28 36.213 22 36.213 C 22.72 36.213 23.367 35.919 23.883 35.488 C 24.632 35.322 25.321 35.06 25.958 34.724 L 25.958 37.584 C 25.863 37.785 24.833 39.859 22 39.859 C 19.167 39.859 18.137 37.785 18.042 37.584 L 18.042 34.724 Z  M 37.02 35.572 C 37.261 35.666 37.518 35.744 37.799 35.799 C 36.924 36.84 36.212 38.02 35.687 39.293 C 32.45 37.629 28.819 36.659 27.542 36.352 L 27.542 36.213 L 36.868 36.213 L 37.017 35.585 L 37.02 35.572 Z  M 27.536 38.054 C 29.125 38.472 32.428 39.439 35.161 40.866 C 34.836 42.046 34.669 43.268 34.667 44.496 C 34.667 45.642 34.821 46.749 35.084 47.81 L 4.583 47.81 L 4.583 45.325 C 4.583 44.354 5.217 43.376 6.38 42.425 C 7.546 41.477 9.173 40.623 10.818 39.934 C 13.072 38.986 15.265 38.368 16.468 38.057 L 16.541 38.216 C 16.541 38.216 18.184 41.516 22 41.516 C 25.816 41.516 27.459 38.216 27.459 38.216 L 27.536 38.054 Z  M 46.542 38.698 L 46.542 43.668 L 41.792 43.668 L 41.792 45.325 L 46.542 45.325 L 46.542 50.295 L 48.125 50.295 L 48.125 45.325 L 52.875 45.325 L 52.875 43.668 L 48.125 43.668 L 48.125 38.698 L 46.542 38.698 Z  M 7.75 44.496 C 7.315 44.496 6.958 44.869 6.958 45.325 C 6.958 45.78 7.315 46.153 7.75 46.153 C 8.185 46.153 8.542 45.78 8.542 45.325 C 8.542 44.869 8.185 44.496 7.75 44.496 Z  M 10.917 44.496 C 10.481 44.496 10.125 44.869 10.125 45.325 C 10.125 45.78 10.481 46.153 10.917 46.153 C 11.352 46.153 11.708 45.78 11.708 45.325 C 11.708 44.869 11.352 44.496 10.917 44.496 Z  M 14.083 44.496 C 13.648 44.496 13.292 44.869 13.292 45.325 C 13.292 45.78 13.648 46.153 14.083 46.153 C 14.519 46.153 14.875 45.78 14.875 45.325 C 14.875 44.869 14.519 44.496 14.083 44.496 Z  M 17.25 44.496 C 16.815 44.496 16.458 44.869 16.458 45.325 C 16.458 45.78 16.815 46.153 17.25 46.153 C 17.685 46.153 18.042 45.78 18.042 45.325 C 18.042 44.869 17.685 44.496 17.25 44.496 Z  M 20.417 44.496 C 19.981 44.496 19.625 44.869 19.625 45.325 C 19.625 45.78 19.981 46.153 20.417 46.153 C 20.852 46.153 21.208 45.78 21.208 45.325 C 21.208 44.869 20.852 44.496 20.417 44.496 Z  M 23.583 44.496 C 23.148 44.496 22.792 44.869 22.792 45.325 C 22.792 45.78 23.148 46.153 23.583 46.153 C 24.019 46.153 24.375 45.78 24.375 45.325 C 24.375 44.869 24.019 44.496 23.583 44.496 Z  M 26.75 44.496 C 26.315 44.496 25.958 44.869 25.958 45.325 C 25.958 45.78 26.315 46.153 26.75 46.153 C 27.185 46.153 27.542 45.78 27.542 45.325 C 27.542 44.869 27.185 44.496 26.75 44.496 Z  M 29.917 44.496 C 29.481 44.496 29.125 44.869 29.125 45.325 C 29.125 45.78 29.481 46.153 29.917 46.153 C 30.352 46.153 30.708 45.78 30.708 45.325 C 30.708 44.869 30.352 44.496 29.917 44.496 Z  M 33.083 44.496 C 32.648 44.496 32.292 44.869 32.292 45.325 C 32.292 45.78 32.648 46.153 33.083 46.153 C 33.519 46.153 33.875 45.78 33.875 45.325 C 33.875 44.869 33.519 44.496 33.083 44.496 Z " fill="rgb(255,153,0)"/></svg>