<?xml version="1.0" encoding="UTF-8" standalone="no"?><!-- Generator: Gravit.io --><svg xmlns="http://www.w3.org/2000/svg" xmlns:xlink="http://www.w3.org/1999/xlink" style="isolation:isolate" viewBox="0 0 60 60" width="60pt" height="60pt"><path d=" M 30 2 C 20.974 2 12.925 6.145 7.7 12.595 C 7.65 12.643 7.592 12.684 7.554 12.745 C 7.542 12.765 7.539 12.791 7.527 12.809 C 3.757 17.557 1.5 23.524 1.5 30 C 1.5 36.479 3.757 42.446 7.534 47.199 C 7.546 47.217 7.542 47.236 7.558 47.255 C 7.612 47.338 7.677 47.405 7.749 47.47 C 12.975 53.881 21.006 58 30 58 C 39.051 58 47.126 53.829 52.346 47.346 C 52.377 47.312 52.415 47.289 52.438 47.251 C 52.446 47.239 52.446 47.225 52.454 47.213 C 56.239 42.457 58.5 36.486 58.5 30 C 58.5 23.517 56.24 17.543 52.458 12.791 C 52.45 12.779 52.45 12.764 52.438 12.749 C 52.412 12.708 52.37 12.682 52.338 12.643 C 47.114 6.167 39.044 2 30 2 Z  M 29.017 4.018 L 29.017 17.433 C 25.27 17.369 21.669 16.936 18.391 16.17 C 20.707 9.328 24.654 4.636 29.017 4.018 Z  M 30.983 4.018 C 35.347 4.636 39.294 9.328 41.609 16.17 C 38.331 16.936 34.726 17.369 30.983 17.433 L 30.983 4.018 Z  M 23.078 4.837 C 20.338 7.216 18.03 10.976 16.467 15.668 C 14.026 14.971 11.803 14.084 9.888 13.02 C 13.353 9.058 17.948 6.208 23.078 4.837 Z  M 36.922 4.837 C 42.054 6.206 46.649 9.059 50.112 13.024 C 48.196 14.084 45.974 14.971 43.533 15.668 C 41.97 10.975 39.662 7.216 36.922 4.837 Z  M 8.648 14.54 C 10.752 15.743 13.205 16.743 15.907 17.512 C 15.225 19.992 14.759 22.524 14.514 25.082 C 14.463 25.612 14.858 26.082 15.397 26.134 C 15.432 26.138 15.462 26.138 15.493 26.138 C 15.992 26.138 16.422 25.764 16.471 25.263 C 16.71 22.814 17.162 20.39 17.823 18.018 C 21.286 18.837 25.082 19.296 29.017 19.364 L 29.017 25.172 C 29.017 25.706 29.457 26.138 30 26.138 C 30.543 26.138 30.983 25.706 30.983 25.172 L 30.983 19.364 C 34.922 19.3 38.718 18.836 42.176 18.018 C 42.84 20.391 43.292 22.817 43.529 25.267 C 43.553 25.522 43.68 25.757 43.882 25.92 C 44.084 26.083 44.343 26.16 44.603 26.134 C 44.862 26.11 45.101 25.985 45.266 25.788 C 45.432 25.59 45.511 25.336 45.486 25.082 C 45.24 22.525 44.776 19.992 44.097 17.512 C 46.799 16.743 49.252 15.743 51.352 14.54 C 54.724 19.014 56.54 24.434 56.534 30 C 56.539 35.566 54.721 40.987 51.348 45.46 C 49.248 44.257 46.795 43.257 44.093 42.488 C 44.775 40.008 45.241 37.476 45.486 34.918 C 45.537 34.388 45.142 33.918 44.603 33.866 C 44.064 33.818 43.586 34.204 43.529 34.733 C 43.29 37.183 42.838 39.608 42.177 41.982 C 38.714 41.164 34.918 40.7 30.983 40.636 L 30.983 34.828 C 30.983 34.294 30.543 33.862 30 33.862 C 29.457 33.862 29.017 34.294 29.017 34.828 L 29.017 40.636 C 25.078 40.7 21.282 41.164 17.824 41.982 C 17.162 39.61 16.71 37.186 16.471 34.737 C 16.447 34.481 16.32 34.246 16.118 34.082 C 15.917 33.919 15.657 33.841 15.397 33.866 C 14.856 33.919 14.46 34.39 14.51 34.922 C 14.775 37.611 15.255 40.146 15.903 42.488 C 13.201 43.26 10.748 44.257 8.648 45.46 C 5.278 40.986 3.461 35.566 3.466 30 C 3.461 24.434 5.278 19.014 8.648 14.54 L 8.648 14.54 Z  M 5.431 28.069 C 4.891 28.069 4.448 28.503 4.448 29.034 L 4.448 30.966 C 4.448 31.497 4.891 31.931 5.431 31.931 C 5.972 31.931 6.414 31.497 6.414 30.966 L 6.414 29.034 C 6.414 28.503 5.972 28.069 5.431 28.069 Z  M 10.345 28.069 C 9.804 28.069 9.362 28.503 9.362 29.034 L 9.362 30.966 C 9.362 31.497 9.804 31.931 10.345 31.931 C 10.885 31.931 11.328 31.497 11.328 30.966 L 11.328 29.034 C 11.328 28.503 10.885 28.069 10.345 28.069 Z  M 15.259 28.069 C 14.718 28.069 14.276 28.503 14.276 29.034 L 14.276 30.966 C 14.276 31.497 14.718 31.931 15.259 31.931 C 15.799 31.931 16.241 31.497 16.241 30.966 L 16.241 29.034 C 16.241 28.503 15.799 28.069 15.259 28.069 Z  M 20.172 28.069 C 19.632 28.069 19.19 28.503 19.19 29.034 L 19.19 30.966 C 19.19 31.497 19.632 31.931 20.172 31.931 C 20.713 31.931 21.155 31.497 21.155 30.966 L 21.155 29.034 C 21.155 28.503 20.713 28.069 20.172 28.069 Z  M 25.086 28.069 C 24.546 28.069 24.103 28.503 24.103 29.034 L 24.103 30.966 C 24.103 31.497 24.546 31.931 25.086 31.931 C 25.627 31.931 26.069 31.497 26.069 30.966 L 26.069 29.034 C 26.069 28.503 25.627 28.069 25.086 28.069 Z  M 30 28.069 C 29.459 28.069 29.017 28.503 29.017 29.034 L 29.017 30.966 C 29.017 31.497 29.459 31.931 30 31.931 C 30.541 31.931 30.983 31.497 30.983 30.966 L 30.983 29.034 C 30.983 28.503 30.541 28.069 30 28.069 Z  M 34.914 28.069 C 34.373 28.069 33.931 28.503 33.931 29.034 L 33.931 30.966 C 33.931 31.497 34.373 31.931 34.914 31.931 C 35.454 31.931 35.897 31.497 35.897 30.966 L 35.897 29.034 C 35.897 28.503 35.454 28.069 34.914 28.069 Z  M 39.828 28.069 C 39.287 28.069 38.845 28.503 38.845 29.034 L 38.845 30.966 C 38.845 31.497 39.287 31.931 39.828 31.931 C 40.368 31.931 40.81 31.497 40.81 30.966 L 40.81 29.034 C 40.81 28.503 40.368 28.069 39.828 28.069 Z  M 44.741 28.069 C 44.201 28.069 43.759 28.503 43.759 29.034 L 43.759 30.966 C 43.759 31.497 44.201 31.931 44.741 31.931 C 45.282 31.931 45.724 31.497 45.724 30.966 L 45.724 29.034 C 45.724 28.503 45.282 28.069 44.741 28.069 Z  M 49.655 28.069 C 49.115 28.069 48.672 28.503 48.672 29.034 L 48.672 30.966 C 48.672 31.497 49.115 31.931 49.655 31.931 C 50.196 31.931 50.638 31.497 50.638 30.966 L 50.638 29.034 C 50.638 28.503 50.196 28.069 49.655 28.069 Z  M 54.569 28.069 C 54.028 28.069 53.586 28.503 53.586 29.034 L 53.586 30.966 C 53.586 31.497 54.028 31.931 54.569 31.931 C 55.109 31.931 55.552 31.497 55.552 30.966 L 55.552 29.034 C 55.552 28.503 55.109 28.069 54.569 28.069 Z  M 29.017 42.567 L 29.017 55.982 C 24.653 55.364 20.706 50.672 18.391 43.83 C 21.669 43.064 25.274 42.631 29.017 42.567 Z  M 30.983 42.567 C 34.73 42.631 38.331 43.064 41.609 43.83 C 39.293 50.672 35.346 55.364 30.983 55.982 L 30.983 42.567 Z  M 16.467 44.332 C 18.03 49.025 20.338 52.784 23.078 55.163 C 17.946 53.794 13.351 50.941 9.888 46.976 C 11.804 45.916 14.026 45.029 16.467 44.332 Z  M 43.533 44.332 C 45.974 45.029 48.197 45.916 50.112 46.98 C 46.647 50.942 42.052 53.793 36.922 55.164 C 39.662 52.784 41.97 49.024 43.533 44.331 L 43.533 44.332 Z " fill="rgb(142,142,142)"/></svg>