<?xml version="1.0" encoding="UTF-8" standalone="no"?><!-- Generator: Gravit.io --><svg xmlns="http://www.w3.org/2000/svg" xmlns:xlink="http://www.w3.org/1999/xlink" style="isolation:isolate" viewBox="0 0 60 60" width="60pt" height="60pt"><path d=" M 437.772 2080.6 L 437.411 2080.825 L 429.571 2086.2 L 424.26 2086.2 L 424.26 2099 L 443.733 2099 C 445.363 2099 446.785 2098.203 447.129 2097.1 L 449.623 2089.1 C 450.077 2087.622 448.407 2086.2 446.226 2086.2 L 439.578 2086.2 L 439.796 2085.6 C 440.03 2085.475 440.179 2085.422 440.518 2085.1 C 441.059 2084.588 441.601 2083.794 441.601 2082.725 C 441.601 2081.584 440.11 2080.6 438.242 2080.6 L 437.772 2080.6 Z  M 438.602 2082.275 C 439.09 2082.341 439.289 2082.478 439.289 2082.725 C 439.289 2083.447 438.974 2083.894 438.675 2084.175 C 438.377 2084.456 438.169 2084.525 438.169 2084.525 L 437.772 2084.675 L 437.628 2085 L 436.941 2086.8 L 436.579 2087.8 L 446.226 2087.8 C 446.989 2087.8 447.503 2088.259 447.346 2088.775 L 444.889 2096.775 C 444.766 2097.146 444.284 2097.407 443.733 2097.4 L 431.196 2097.4 L 431.196 2087.325 L 438.602 2082.275 Z  M 426.572 2087.8 L 428.884 2087.8 L 428.884 2097.4 L 426.572 2097.4 L 426.572 2087.8 Z " fill="rgb(145,143,143)"/><path d=" M 20.667 2 C 18.165 2.001 15.854 3.394 14.604 5.656 C 13.354 7.917 13.354 10.702 14.606 12.962 C 15.858 15.223 18.17 16.614 20.671 16.614 C 24.539 16.612 27.673 13.34 27.671 9.304 C 27.67 5.269 24.534 1.999 20.667 2 L 20.667 2 Z  M 39.333 2 C 35.466 2.001 32.332 5.274 32.333 9.309 C 32.335 13.345 35.471 16.615 39.338 16.614 C 43.205 16.612 46.339 13.34 46.338 9.304 C 46.337 5.269 43.201 1.999 39.333 2 L 39.333 2 Z  M 11.333 16.609 C 8.832 16.61 6.52 18.003 5.27 20.264 C 4.02 22.525 4.021 25.311 5.273 27.571 C 6.524 29.831 8.836 31.223 11.338 31.222 C 15.205 31.221 18.339 27.948 18.338 23.913 C 18.337 19.878 15.201 16.607 11.333 16.609 L 11.333 16.609 Z  M 48.667 16.609 C 46.165 16.61 43.854 18.003 42.604 20.264 C 41.354 22.525 41.354 25.311 42.606 27.571 C 43.858 29.831 46.17 31.223 48.671 31.222 C 52.539 31.221 55.673 27.948 55.671 23.913 C 55.67 19.878 52.534 16.607 48.667 16.609 L 48.667 16.609 Z  M 30 28.783 C 27.498 28.783 25.187 30.177 23.937 32.438 C 22.687 34.699 22.688 37.485 23.939 39.745 C 25.191 42.005 27.503 43.397 30.005 43.396 C 33.872 43.395 37.006 40.122 37.005 36.087 C 37.003 32.052 33.867 28.781 30 28.783 L 30 28.783 Z  M 6.886 32.435 C 4.086 34.139 2 37.304 2 40.957 L 2 43.849 C 2 43.849 4.333 45.826 11.333 45.826 C 18.333 45.826 20.667 43.847 20.667 43.847 L 20.667 40.957 C 20.667 37.304 18.578 34.139 15.781 32.435 C 14.378 33.165 12.964 33.652 11.333 33.652 C 9.7 33.652 8.288 33.165 6.886 32.435 Z  M 44.219 32.435 C 41.419 34.139 39.333 37.304 39.333 40.957 L 39.333 43.849 C 39.333 43.849 41.667 45.826 48.667 45.826 C 55.667 45.826 58 43.847 58 43.847 L 58 40.957 C 58 37.304 55.912 34.139 53.114 32.435 C 51.712 33.165 50.298 33.652 48.667 33.652 C 47.033 33.652 45.622 33.165 44.219 32.435 Z  M 25.553 44.609 C 22.753 46.313 20.667 49.478 20.667 53.13 L 20.667 56.023 C 20.667 56.023 23 58 30 58 C 37 58 39.333 56.021 39.333 56.021 L 39.333 53.13 C 39.333 49.478 37.245 46.313 34.447 44.609 C 33.045 45.339 31.631 45.826 30 45.826 C 28.367 45.826 26.955 45.339 25.553 44.609 Z " fill="rgb(255,255,255)"/></svg>