<?xml version="1.0" encoding="UTF-8" standalone="no"?><!-- Generator: Gravit.io --><svg xmlns="http://www.w3.org/2000/svg" xmlns:xlink="http://www.w3.org/1999/xlink" style="isolation:isolate" viewBox="0 0 60 60" width="60pt" height="60pt"><path d=" M 437.772 2080.6 L 437.411 2080.825 L 429.571 2086.2 L 424.26 2086.2 L 424.26 2099 L 443.733 2099 C 445.363 2099 446.785 2098.203 447.129 2097.1 L 449.623 2089.1 C 450.077 2087.622 448.407 2086.2 446.226 2086.2 L 439.578 2086.2 L 439.796 2085.6 C 440.03 2085.475 440.179 2085.422 440.518 2085.1 C 441.059 2084.588 441.601 2083.794 441.601 2082.725 C 441.601 2081.584 440.11 2080.6 438.242 2080.6 L 437.772 2080.6 Z  M 438.602 2082.275 C 439.09 2082.341 439.289 2082.478 439.289 2082.725 C 439.289 2083.447 438.974 2083.894 438.675 2084.175 C 438.377 2084.456 438.169 2084.525 438.169 2084.525 L 437.772 2084.675 L 437.628 2085 L 436.941 2086.8 L 436.579 2087.8 L 446.226 2087.8 C 446.989 2087.8 447.503 2088.259 447.346 2088.775 L 444.889 2096.775 C 444.766 2097.146 444.284 2097.407 443.733 2097.4 L 431.196 2097.4 L 431.196 2087.325 L 438.602 2082.275 Z  M 426.572 2087.8 L 428.884 2087.8 L 428.884 2097.4 L 426.572 2097.4 L 426.572 2087.8 Z " fill="rgb(145,143,143)"/><path d=" M 53.2 54 L 53.2 30 L 59 30 L 30 3 L 1 30 L 6.8 30 L 6.8 54 C 6.8 55.806 7.954 57 9.7 57 L 24.2 57 L 24.2 36 L 35.8 36 L 35.8 57 L 50.3 57 C 52.046 57 53.2 55.806 53.2 54 Z " fill="rgb(255,255,255)"/></svg>