<?xml version="1.0" encoding="UTF-8" standalone="no"?><!-- Generator: Gravit.io --><svg xmlns="http://www.w3.org/2000/svg" xmlns:xlink="http://www.w3.org/1999/xlink" style="isolation:isolate" viewBox="0 0 60 60" width="60pt" height="60pt"><path d=" M 437.772 2080.6 L 437.411 2080.825 L 429.571 2086.2 L 424.26 2086.2 L 424.26 2099 L 443.733 2099 C 445.363 2099 446.785 2098.203 447.129 2097.1 L 449.623 2089.1 C 450.077 2087.622 448.407 2086.2 446.226 2086.2 L 439.578 2086.2 L 439.796 2085.6 C 440.03 2085.475 440.179 2085.422 440.518 2085.1 C 441.059 2084.588 441.601 2083.794 441.601 2082.725 C 441.601 2081.584 440.11 2080.6 438.242 2080.6 L 437.772 2080.6 Z  M 438.602 2082.275 C 439.09 2082.341 439.289 2082.478 439.289 2082.725 C 439.289 2083.447 438.974 2083.894 438.675 2084.175 C 438.377 2084.456 438.169 2084.525 438.169 2084.525 L 437.772 2084.675 L 437.628 2085 L 436.941 2086.8 L 436.579 2087.8 L 446.226 2087.8 C 446.989 2087.8 447.503 2088.259 447.346 2088.775 L 444.889 2096.775 C 444.766 2097.146 444.284 2097.407 443.733 2097.4 L 431.196 2097.4 L 431.196 2087.325 L 438.602 2082.275 Z  M 426.572 2087.8 L 428.884 2087.8 L 428.884 2097.4 L 426.572 2097.4 L 426.572 2087.8 Z " fill="rgb(145,143,143)"/><path d=" M 27.657 5 C 27.011 5 26.483 5.493 26.483 6.095 L 26.483 14.583 L 20.614 25.536 L 20.614 23.619 C 20.614 23.017 20.086 22.524 19.44 22.524 L 4.182 22.524 C 3.847 22.524 3.526 22.665 3.301 22.901 C 3.076 23.133 2.969 23.445 3.008 23.756 L 6.529 50.042 C 6.603 50.589 7.111 51 7.703 51 L 19.44 51 C 20.089 51 20.614 50.51 20.614 49.905 L 20.614 48.81 L 21.971 48.81 C 22.457 50.084 23.778 51 25.309 51 L 47.61 51 C 50.201 51 52.305 49.036 52.305 46.619 C 52.305 45.717 51.998 44.886 51.498 44.189 C 53.382 43.57 54.646 41.912 54.653 40.048 C 54.653 38.974 54.239 38.003 53.552 37.241 C 54.963 36.444 55.826 35.016 55.826 33.476 C 55.826 32.403 55.413 31.431 54.725 30.669 C 56.137 29.872 57 28.445 57 26.905 C 57 24.488 54.895 22.524 52.305 22.524 L 35.139 22.524 C 35.855 20.41 37.046 16.628 37.046 14.857 C 37.046 10.732 33.809 5 30.627 5 L 27.657 5 Z  M 28.83 7.19 L 30.627 7.19 C 31.706 7.19 34.699 11.002 34.699 14.857 C 34.699 16.572 33.058 21.518 32.424 23.277 C 32.298 23.611 32.353 23.98 32.571 24.27 C 32.793 24.553 33.149 24.719 33.525 24.714 L 52.305 24.714 C 53.599 24.714 54.653 25.698 54.653 26.905 C 54.653 28.112 53.599 29.095 52.305 29.095 L 51.131 29.095 C 50.48 29.095 49.958 29.583 49.958 30.19 C 49.958 30.798 50.48 31.286 51.131 31.286 C 52.425 31.286 53.479 32.269 53.479 33.476 C 53.479 34.683 52.425 35.667 51.131 35.667 L 49.958 35.667 C 49.306 35.667 48.784 36.154 48.784 36.762 C 48.784 37.37 49.306 37.857 49.958 37.857 C 51.251 37.857 52.305 38.841 52.305 40.048 C 52.305 41.255 51.251 42.238 49.958 42.238 L 47.61 42.238 C 46.959 42.238 46.436 42.725 46.436 43.333 C 46.436 43.941 46.959 44.429 47.61 44.429 C 48.904 44.429 49.958 45.412 49.958 46.619 C 49.958 47.826 48.904 48.81 47.61 48.81 L 25.309 48.81 C 24.663 48.81 24.135 48.317 24.135 47.714 C 24.135 47.109 23.61 46.619 22.962 46.619 L 20.614 46.619 L 20.614 28 L 21.201 28 C 21.646 28 22.062 27.756 22.264 27.383 L 28.72 15.336 C 28.798 15.187 28.836 15.023 28.83 14.857 L 28.83 7.19 Z  M 5.502 24.714 L 18.267 24.714 L 18.267 48.81 L 8.73 48.81 L 5.502 24.714 Z  M 14.159 43.333 C 13.186 43.333 12.398 44.069 12.398 44.976 C 12.398 45.884 13.186 46.619 14.159 46.619 C 15.131 46.619 15.919 45.884 15.919 44.976 C 15.919 44.069 15.131 43.333 14.159 43.333 Z " fill="rgb(145,143,143)"/></svg>