<?xml version="1.0" encoding="UTF-8" standalone="no"?><!-- Generator: Gravit.io --><svg xmlns="http://www.w3.org/2000/svg" xmlns:xlink="http://www.w3.org/1999/xlink" style="isolation:isolate" viewBox="0 0 60 60" width="60pt" height="60pt"><path d=" M 30 1 C 26.41 1 23.5 3.885 23.5 7.444 C 23.5 11.004 26.41 13.889 30 13.889 C 33.59 13.889 36.5 11.004 36.5 7.444 C 36.5 3.885 33.59 1 30 1 Z  M 30 23.556 C 26.41 23.556 23.5 26.441 23.5 30 C 23.5 33.559 26.41 36.444 30 36.444 C 33.59 36.444 36.5 33.559 36.5 30 C 36.5 26.441 33.59 23.556 30 23.556 Z  M 30 46.111 C 26.41 46.111 23.5 48.996 23.5 52.556 C 23.5 56.115 26.41 59 30 59 C 33.59 59 36.5 56.115 36.5 52.556 C 36.5 48.996 33.59 46.111 30 46.111 Z " fill="rgb(0,0,0)"/></svg>