<?xml version="1.0" encoding="UTF-8" standalone="no"?><!-- Generator: Gravit.io --><svg xmlns="http://www.w3.org/2000/svg" xmlns:xlink="http://www.w3.org/1999/xlink" style="isolation:isolate" viewBox="0 0 60 60" width="60pt" height="60pt"><path d=" M 23.439 2 C 12.001 2 2.5 10.807 2.5 21.873 C 2.5 27.227 4.752 32.081 8.355 35.648 C 7.825 37.315 6.702 38.642 5.497 39.689 C 4.824 40.272 4.171 40.772 3.636 41.268 C 3.37 41.516 3.124 41.737 2.913 42.077 C 2.703 42.417 2.491 43.004 2.638 43.583 L 2.776 44.023 L 3.155 44.281 C 4.3 44.974 5.689 45.088 7.15 44.978 C 8.609 44.869 10.185 44.478 11.73 44.023 C 13.861 43.399 15.686 42.655 17.206 42.003 C 20.237 49.479 27.843 54.677 36.664 54.677 C 38.193 54.677 39.648 54.418 41.004 54.198 C 42.54 54.942 45.291 56.168 48.27 57.028 C 51.366 57.922 54.53 58.589 56.811 57.211 L 57.224 56.954 L 57.328 56.513 C 57.475 55.939 57.294 55.388 57.087 55.044 C 56.896 54.729 56.664 54.444 56.398 54.198 C 55.873 53.689 55.205 53.176 54.539 52.582 C 53.337 51.517 52.209 50.176 51.646 48.542 C 55.236 44.974 57.5 40.143 57.5 34.803 C 57.5 26.083 51.542 18.645 43.38 15.995 C 40.75 7.842 32.76 2 23.439 2 Z  M 23.439 4.351 C 33.823 4.351 42.071 12.238 42.071 21.873 C 42.071 31.498 33.719 39.396 23.336 39.396 C 21.847 39.396 20.382 39.28 19.065 38.955 L 18.721 38.844 L 18.376 38.991 C 18.248 39.05 17.976 39.179 17.825 39.247 C 17.8 39.257 17.748 39.239 17.722 39.247 C 17.463 39.267 17.219 39.385 17.034 39.579 C 15.475 40.263 13.422 41.116 11.145 41.783 C 9.686 42.21 8.213 42.531 6.977 42.627 C 6.43 42.669 6.202 42.494 5.772 42.444 C 6.125 42.15 6.422 41.916 6.874 41.526 C 8.342 40.249 10.149 38.403 10.731 35.648 L 10.869 34.95 L 10.386 34.473 C 6.861 31.264 4.704 26.796 4.704 21.873 C 4.704 12.25 13.056 4.351 23.439 4.351 Z  M 44 18.678 C 44.207 18.76 44.418 18.842 44.62 18.934 C 44.469 19.131 44.384 19.377 44.379 19.632 C 44.379 20.279 44.875 20.808 45.481 20.808 C 45.988 20.808 46.385 20.422 46.515 19.926 C 48.959 21.368 51 23.32 52.507 25.62 C 52.377 25.553 52.237 25.516 52.093 25.51 C 51.487 25.51 50.991 26.039 50.991 26.685 C 51.005 27.31 51.474 27.815 52.06 27.835 C 52.646 27.855 53.145 27.382 53.195 26.759 C 53.702 27.676 54.143 28.66 54.469 29.66 C 54.379 29.831 54.297 30.005 54.297 30.212 C 54.297 30.652 54.548 31.001 54.883 31.204 C 55.146 32.37 55.296 33.568 55.296 34.803 C 55.296 35.244 55.262 35.689 55.228 36.125 C 54.697 36.21 54.303 36.693 54.297 37.264 C 54.297 37.723 54.56 38.099 54.918 38.293 C 54.16 41.819 52.287 44.974 49.614 47.403 L 49.097 47.88 L 49.27 48.615 C 49.828 50.939 51.202 52.592 52.507 53.832 C 52.377 53.765 52.237 53.727 52.093 53.721 C 51.487 53.721 50.991 54.25 50.991 54.897 C 50.991 55.017 51.03 55.118 51.061 55.227 C 50.317 55.12 49.581 54.96 48.856 54.75 C 46.497 54.07 44.198 53.102 42.656 52.399 C 43.014 52.206 43.277 51.83 43.277 51.37 C 43.277 50.724 42.781 50.195 42.175 50.195 C 41.568 50.195 41.073 50.724 41.073 51.37 C 41.073 51.531 41.12 51.669 41.176 51.811 L 41.003 51.847 C 39.579 52.083 38.102 52.326 36.664 52.326 C 36.504 52.326 36.341 52.329 36.182 52.326 C 36.48 52.111 36.66 51.754 36.664 51.37 C 36.664 50.724 36.168 50.195 35.562 50.195 C 34.956 50.195 34.46 50.724 34.46 51.37 C 34.46 51.696 34.572 52.005 34.77 52.215 C 33.154 52.071 31.559 51.726 30.018 51.187 C 29.939 50.621 29.486 50.201 28.95 50.195 C 28.699 50.194 28.456 50.285 28.261 50.452 C 27.379 50.044 26.527 49.565 25.712 49.019 C 26.296 48.965 26.739 48.434 26.721 47.809 C 26.702 47.184 26.23 46.683 25.644 46.668 C 25.037 46.668 24.543 47.197 24.543 47.844 C 24.543 47.977 24.572 48.091 24.612 48.212 C 23.507 47.335 22.501 46.323 21.614 45.199 C 21.809 45.378 22.063 45.493 22.338 45.493 C 22.945 45.493 23.44 44.964 23.44 44.317 C 23.44 43.671 22.945 43.142 22.338 43.142 C 21.732 43.142 21.236 43.671 21.236 44.317 C 21.236 44.584 21.336 44.818 21.478 45.016 C 20.711 44.014 20.039 42.958 19.514 41.819 C 19.683 41.727 19.827 41.587 19.928 41.415 C 21.056 41.603 22.201 41.747 23.337 41.747 C 23.854 41.747 24.379 41.709 24.887 41.672 C 25.086 41.865 25.356 41.966 25.645 41.966 C 25.986 41.962 26.306 41.785 26.505 41.489 C 28.185 41.246 29.799 40.841 31.327 40.24 C 31.237 40.41 31.155 40.584 31.155 40.791 C 31.155 41.437 31.651 41.966 32.257 41.966 C 32.863 41.966 33.359 41.437 33.359 40.791 C 33.359 40.25 32.998 39.827 32.533 39.688 C 33.414 39.276 34.272 38.816 35.082 38.293 C 35.232 38.375 35.383 38.44 35.563 38.44 C 36.169 38.44 36.665 37.911 36.665 37.264 C 36.665 37.237 36.631 37.217 36.631 37.19 C 37.54 36.483 38.392 35.697 39.179 34.839 C 39.558 34.716 39.821 34.376 39.903 33.958 C 40.595 33.109 41.254 32.232 41.797 31.278 C 41.922 31.327 42.034 31.387 42.176 31.387 C 42.782 31.387 43.278 30.858 43.278 30.212 C 43.278 29.798 43.063 29.467 42.761 29.256 C 43.753 26.939 44.27 24.422 44.276 21.874 C 44.276 20.784 44.177 19.714 44.001 18.677 L 44 18.678 Z  M 48.787 21.983 C 48.181 21.983 47.685 22.512 47.685 23.159 C 47.685 23.805 48.181 24.334 48.787 24.334 C 49.393 24.334 49.889 23.805 49.889 23.159 C 49.889 22.512 49.393 21.983 48.787 21.983 Z  M 45.481 25.51 C 44.875 25.51 44.379 26.039 44.379 26.685 C 44.379 27.332 44.875 27.861 45.481 27.861 C 46.087 27.861 46.583 27.332 46.583 26.685 C 46.583 26.039 46.087 25.51 45.481 25.51 Z  M 48.787 29.036 C 48.181 29.036 47.685 29.565 47.685 30.212 C 47.685 30.858 48.181 31.387 48.787 31.387 C 49.393 31.387 49.889 30.858 49.889 30.212 C 49.889 29.565 49.393 29.036 48.787 29.036 Z  M 45.481 32.562 C 44.875 32.562 44.379 33.091 44.379 33.738 C 44.379 34.384 44.875 34.913 45.481 34.913 C 46.087 34.913 46.583 34.384 46.583 33.738 C 46.583 33.091 46.087 32.562 45.481 32.562 Z  M 52.093 32.562 C 51.487 32.562 50.991 33.091 50.991 33.738 C 50.991 34.384 51.487 34.913 52.093 34.913 C 52.699 34.913 53.195 34.384 53.195 33.738 C 53.195 33.091 52.699 32.562 52.093 32.562 Z  M 42.175 36.089 C 41.568 36.089 41.073 36.618 41.073 37.264 C 41.073 37.911 41.568 38.44 42.175 38.44 C 42.781 38.44 43.277 37.911 43.277 37.264 C 43.277 36.618 42.781 36.089 42.175 36.089 Z  M 48.787 36.089 C 48.181 36.089 47.685 36.618 47.685 37.264 C 47.685 37.911 48.181 38.44 48.787 38.44 C 49.393 38.44 49.889 37.911 49.889 37.264 C 49.889 36.618 49.393 36.089 48.787 36.089 Z  M 38.868 39.615 C 38.262 39.615 37.766 40.144 37.766 40.791 C 37.766 41.437 38.262 41.966 38.868 41.966 C 39.475 41.966 39.97 41.437 39.97 40.791 C 39.97 40.144 39.475 39.615 38.868 39.615 Z  M 45.481 39.615 C 44.875 39.615 44.379 40.144 44.379 40.791 C 44.379 41.437 44.875 41.966 45.481 41.966 C 46.087 41.966 46.583 41.437 46.583 40.791 C 46.583 40.144 46.087 39.615 45.481 39.615 Z  M 52.093 39.615 C 51.487 39.615 50.991 40.144 50.991 40.791 C 50.991 41.437 51.487 41.966 52.093 41.966 C 52.699 41.966 53.195 41.437 53.195 40.791 C 53.195 40.144 52.699 39.615 52.093 39.615 Z  M 28.95 43.142 C 28.344 43.142 27.848 43.671 27.848 44.317 C 27.848 44.964 28.344 45.493 28.95 45.493 C 29.556 45.493 30.052 44.964 30.052 44.317 C 30.052 43.671 29.556 43.142 28.95 43.142 Z  M 35.562 43.142 C 34.956 43.142 34.46 43.671 34.46 44.317 C 34.46 44.964 34.956 45.493 35.562 45.493 C 36.168 45.493 36.664 44.964 36.664 44.317 C 36.664 43.671 36.168 43.142 35.562 43.142 Z  M 42.175 43.142 C 41.568 43.142 41.073 43.671 41.073 44.317 C 41.073 44.964 41.568 45.493 42.175 45.493 C 42.781 45.493 43.277 44.964 43.277 44.317 C 43.277 43.671 42.781 43.142 42.175 43.142 Z  M 48.787 43.142 C 48.181 43.142 47.685 43.671 47.685 44.317 C 47.685 44.964 48.181 45.493 48.787 45.493 C 49.393 45.493 49.889 44.964 49.889 44.317 C 49.889 43.671 49.393 43.142 48.787 43.142 Z  M 32.256 46.668 C 31.65 46.668 31.154 47.197 31.154 47.844 C 31.154 48.49 31.65 49.019 32.256 49.019 C 32.862 49.019 33.358 48.49 33.358 47.844 C 33.358 47.197 32.862 46.668 32.256 46.668 Z  M 38.868 46.668 C 38.262 46.668 37.766 47.197 37.766 47.844 C 37.766 48.49 38.262 49.019 38.868 49.019 C 39.475 49.019 39.97 48.49 39.97 47.844 C 39.97 47.197 39.475 46.668 38.868 46.668 Z  M 45.481 46.668 C 44.875 46.668 44.379 47.197 44.379 47.844 C 44.379 48.49 44.875 49.019 45.481 49.019 C 46.087 49.019 46.583 48.49 46.583 47.844 C 46.583 47.197 46.087 46.668 45.481 46.668 Z  M 48.787 50.195 C 48.181 50.195 47.685 50.724 47.685 51.37 C 47.685 52.017 48.181 52.546 48.787 52.546 C 49.393 52.546 49.889 52.017 49.889 51.37 C 49.889 50.724 49.393 50.195 48.787 50.195 Z  M 52.989 54.236 C 53.036 54.277 53.08 54.342 53.126 54.382 C 53.583 54.786 53.909 55.034 54.263 55.337 C 53.893 55.374 53.488 55.379 53.058 55.374 C 53.127 55.222 53.195 55.075 53.195 54.897 C 53.193 54.658 53.12 54.427 52.988 54.235 L 52.989 54.236 Z " fill="rgb(255,255,255)"/></svg>