<?xml version="1.0" encoding="UTF-8" standalone="no"?><!-- Generator: Gravit.io --><svg xmlns="http://www.w3.org/2000/svg" xmlns:xlink="http://www.w3.org/1999/xlink" style="isolation:isolate" viewBox="0 0 60 60" width="60pt" height="60pt"><path d=" M 437.772 2080.6 L 437.411 2080.825 L 429.571 2086.2 L 424.26 2086.2 L 424.26 2099 L 443.733 2099 C 445.363 2099 446.785 2098.203 447.129 2097.1 L 449.623 2089.1 C 450.077 2087.622 448.407 2086.2 446.226 2086.2 L 439.578 2086.2 L 439.796 2085.6 C 440.03 2085.475 440.179 2085.422 440.518 2085.1 C 441.059 2084.588 441.601 2083.794 441.601 2082.725 C 441.601 2081.584 440.11 2080.6 438.242 2080.6 L 437.772 2080.6 Z  M 438.602 2082.275 C 439.09 2082.341 439.289 2082.478 439.289 2082.725 C 439.289 2083.447 438.974 2083.894 438.675 2084.175 C 438.377 2084.456 438.169 2084.525 438.169 2084.525 L 437.772 2084.675 L 437.628 2085 L 436.941 2086.8 L 436.579 2087.8 L 446.226 2087.8 C 446.989 2087.8 447.503 2088.259 447.346 2088.775 L 444.889 2096.775 C 444.766 2097.146 444.284 2097.407 443.733 2097.4 L 431.196 2097.4 L 431.196 2087.325 L 438.602 2082.275 Z  M 426.572 2087.8 L 428.884 2087.8 L 428.884 2097.4 L 426.572 2097.4 L 426.572 2087.8 Z " fill="rgb(145,143,143)"/><path d=" M 30 0 C 27.067 0 24.667 2.16 24.667 4.8 C 24.667 5.419 24.803 6.019 25.041 6.563 C 17.541 8.315 12.667 14.179 12.667 21.6 C 12.667 30.998 10.104 35.278 7.667 37.687 C 6.448 38.892 5.245 39.624 4.208 40.313 C 3.688 40.655 3.213 40.997 2.792 41.437 C 2.369 41.878 2 42.505 2 43.2 C 2 44.85 3.125 46.252 4.708 47.176 C 6.292 48.098 8.369 48.694 10.875 49.163 C 14.125 49.768 18.136 50.087 22.541 50.25 C 22.191 51.064 22.008 51.928 22 52.8 C 22 56.76 25.6 60 30 60 C 34.4 60 38 56.76 38 52.8 C 38 51.9 37.797 51.042 37.459 50.25 C 41.864 50.086 45.875 49.768 49.125 49.163 C 51.631 48.695 53.708 48.098 55.292 47.174 C 56.875 46.253 58 44.851 58 43.2 C 58 42.506 57.631 41.878 57.208 41.437 C 56.787 40.997 56.312 40.655 55.792 40.313 C 54.755 39.624 53.552 38.892 52.333 37.687 C 49.896 35.278 47.333 30.998 47.333 21.6 C 47.333 14.184 42.448 8.324 34.959 6.563 C 35.199 6.019 35.333 5.419 35.333 4.8 C 35.333 2.16 32.933 0 30 0 Z  M 30 2.4 C 31.489 2.4 32.667 3.46 32.667 4.8 C 32.667 6.14 31.489 7.2 30 7.2 C 28.511 7.2 27.333 6.14 27.333 4.8 C 27.333 3.46 28.511 2.4 30 2.4 Z  M 33.125 8.626 C 40.235 9.763 44.667 14.71 44.667 21.6 C 44.667 31.402 47.437 36.436 50.333 39.3 C 51.781 40.729 53.245 41.626 54.208 42.263 C 54.688 42.581 55.048 42.848 55.208 43.013 C 55.369 43.176 55.333 43.163 55.333 43.2 C 55.333 43.95 54.947 44.498 53.833 45.15 C 52.719 45.802 50.907 46.406 48.583 46.837 C 43.937 47.705 37.323 48 30 48 C 22.677 48 16.063 47.705 11.416 46.837 C 9.093 46.405 7.281 45.802 6.167 45.15 C 5.052 44.498 4.667 43.95 4.667 43.2 C 4.667 43.163 4.631 43.176 4.792 43.013 C 4.952 42.848 5.312 42.581 5.792 42.263 C 6.755 41.624 8.219 40.729 9.667 39.3 C 12.563 36.436 15.333 31.402 15.333 21.6 C 15.333 14.714 19.771 9.806 26.875 8.663 C 27.777 9.269 28.873 9.598 30 9.6 C 31.183 9.6 32.24 9.221 33.125 8.624 L 33.125 8.626 Z  M 25.416 50.326 C 26.912 50.352 28.433 50.4 30 50.4 C 31.568 50.4 33.088 50.352 34.584 50.324 C 35.057 51.047 35.333 51.9 35.333 52.8 C 35.333 55.468 32.964 57.6 30 57.6 C 27.036 57.6 24.667 55.468 24.667 52.8 C 24.667 51.89 24.933 51.048 25.417 50.324 L 25.416 50.326 Z " fill="rgb(255,255,255)"/></svg>