<?xml version="1.0" encoding="UTF-8" standalone="no"?><!-- Generator: Gravit.io --><svg xmlns="http://www.w3.org/2000/svg" xmlns:xlink="http://www.w3.org/1999/xlink" style="isolation:isolate" viewBox="0 0 60 60" width="60pt" height="60pt"><path d=" M 2 2 L 2 58 L 58 58 L 58 2 L 2 2 Z  M 4.24 4.667 L 55.76 4.667 L 55.76 55.333 L 4.24 55.333 L 4.24 4.667 Z  M 6.48 7.333 L 6.48 37.708 C 6.449 37.887 6.449 38.072 6.48 38.251 L 6.48 52.667 L 53.52 52.667 L 53.52 46.208 C 53.551 46.029 53.551 45.845 53.52 45.667 L 53.52 7.333 L 6.48 7.333 Z  M 8.72 10 L 51.28 10 L 51.28 42.751 L 40.885 30.375 C 40.636 30.082 40.287 29.944 39.94 30 C 39.689 30.033 39.455 30.165 39.275 30.375 L 34.515 36.041 L 23 21.084 C 22.743 20.748 22.361 20.591 21.985 20.667 C 21.761 20.703 21.556 20.823 21.389 21 L 8.72 34.917 L 8.72 10 Z  M 41.2 16.667 C 39.999 16.667 38.89 17.43 38.29 18.668 C 37.69 19.907 37.69 21.432 38.291 22.67 C 38.892 23.908 40.001 24.67 41.202 24.669 C 43.059 24.669 44.563 22.877 44.562 20.667 C 44.562 18.457 43.056 16.666 41.2 16.667 L 41.2 16.667 Z  M 22.089 23.917 L 32.905 37.957 L 30.315 41.041 C 30.1 41.295 29.98 41.64 29.98 42 C 29.98 42.36 30.1 42.705 30.315 42.959 C 30.762 43.489 31.48 43.489 31.925 42.959 L 35.109 39.125 C 35.267 39.011 35.398 38.855 35.495 38.667 L 40.08 33.249 L 51.28 46.583 L 51.28 50 L 8.72 50 L 8.72 38.625 L 22.089 23.917 Z " fill="rgb(74,134,232)"/></svg>