<?xml version="1.0" encoding="UTF-8" standalone="no"?><!-- Generator: Gravit.io --><svg xmlns="http://www.w3.org/2000/svg" xmlns:xlink="http://www.w3.org/1999/xlink" style="isolation:isolate" viewBox="0 0 60 60" width="60pt" height="60pt"><path d=" M 56.925 20.16 L 54.406 17.711 C 53.717 17.041 52.784 16.665 51.81 16.665 C 50.837 16.665 49.903 17.041 49.215 17.711 L 47.301 19.572 L 46.024 20.814 L 43.135 23.623 L 24.591 41.669 C 24.524 41.734 24.474 41.816 24.424 41.914 L 21.232 49.785 L 19.922 52.758 C 19.804 53.019 19.872 53.329 20.073 53.542 C 20.208 53.672 20.392 53.754 20.594 53.754 C 20.695 53.754 20.795 53.738 20.879 53.689 L 23.92 52.431 L 27.195 51.174 L 32.032 49.328 C 32.116 49.295 32.2 49.246 32.284 49.165 L 43.101 38.647 L 43.101 56.106 L 3.948 56.106 L 3.948 3.894 L 29.278 3.894 L 29.278 16.404 C 29.278 16.927 29.714 17.351 30.252 17.351 L 43.118 17.351 L 43.118 23.655 L 45.067 21.761 L 45.067 16.404 C 45.067 16.388 45.05 16.372 45.05 16.339 C 45.05 16.257 45.033 16.176 44.999 16.094 C 44.983 16.061 44.983 16.029 44.966 16.012 C 44.915 15.914 44.865 15.816 44.781 15.735 L 30.941 2.278 C 30.857 2.196 30.756 2.131 30.655 2.098 C 30.621 2.082 30.588 2.082 30.571 2.065 C 30.487 2.033 30.403 2.016 30.319 2.016 C 30.302 2.016 30.286 2 30.252 2 L 2.974 2 C 2.716 2 2.468 2.1 2.285 2.277 C 2.103 2.455 2 2.696 2 2.947 L 2 57.053 C 2 57.575 2.437 58 2.974 58 L 44.092 58 C 44.63 58 45.067 57.575 45.067 57.053 L 45.067 36.753 L 53.734 28.326 L 55.01 27.085 L 55.111 26.987 L 56.925 25.223 C 57.614 24.554 58 23.655 58 22.692 C 58 21.728 57.63 20.83 56.925 20.16 L 56.925 20.16 Z  M 31.226 5.234 L 41.741 15.457 L 31.226 15.457 L 31.226 5.234 Z  M 47.821 21.075 L 53.465 26.562 L 53.213 26.807 L 47.569 21.32 L 47.821 21.075 L 47.821 21.075 Z  M 21.988 51.696 L 22.593 50.324 L 23.483 48.136 L 25.65 50.243 L 23.382 51.108 L 21.988 51.696 L 21.988 51.696 Z  M 27.128 49.671 L 24.054 46.682 L 25.381 43.416 L 28.27 46.225 L 30.487 48.381 L 27.128 49.671 L 27.128 49.671 Z  M 31.78 47.662 L 29.647 45.572 L 41.573 33.977 C 41.959 33.601 41.959 33.013 41.573 32.638 C 41.392 32.457 41.143 32.355 40.884 32.355 C 40.625 32.355 40.377 32.457 40.196 32.638 L 28.27 44.233 L 26.137 42.159 L 46.528 22.332 L 52.172 27.82 L 31.78 47.662 L 31.78 47.662 Z  M 55.9 24.211 L 54.59 25.484 L 48.947 19.997 L 50.257 18.723 C 51.13 17.89 52.524 17.89 53.398 18.723 L 55.917 21.173 C 56.337 21.581 56.572 22.12 56.572 22.692 C 56.555 23.263 56.32 23.802 55.9 24.211 L 55.9 24.211 Z  M 8.131 37.08 L 14.53 37.08 L 14.53 30.857 L 8.131 30.857 L 8.131 37.08 Z  M 8.853 31.576 L 13.791 31.576 L 13.791 36.377 L 8.853 36.377 L 8.853 31.576 Z  M 8.131 47.221 L 14.53 47.221 L 14.53 40.999 L 8.131 40.999 L 8.131 47.221 Z  M 8.853 41.718 L 13.791 41.718 L 13.791 46.519 L 8.853 46.519 L 8.853 41.718 Z  M 16.596 25.06 L 36.332 25.06 L 36.332 25.533 L 16.596 25.533 L 16.596 25.06 Z  M 16.596 22.267 L 39.49 22.267 L 39.49 22.741 L 16.596 22.741 L 16.596 22.267 Z  M 16.596 35.136 L 27.447 35.136 L 27.447 35.61 L 16.596 35.61 L 16.596 35.136 L 16.596 35.136 Z  M 16.596 32.327 L 30.134 32.327 L 30.134 32.801 L 16.596 32.801 L 16.596 32.327 L 16.596 32.327 Z  M 16.596 45.278 L 20.98 45.278 L 20.98 45.752 L 16.596 45.752 L 16.596 45.278 Z  M 16.596 42.485 L 22.173 42.485 L 22.173 42.959 L 16.596 42.959 L 16.596 42.485 Z  M 14.513 21.042 L 14.513 20.716 L 8.114 20.716 L 8.114 26.938 L 14.513 26.938 L 14.513 21.549 L 15.588 20.209 L 14.513 21.042 L 14.513 21.042 Z  M 13.791 26.219 L 8.853 26.219 L 8.853 21.418 L 13.791 21.418 L 13.791 21.598 L 11.205 23.574 L 9.441 22.888 L 11.272 25.566 L 13.808 22.447 L 13.808 26.219 L 13.791 26.219 Z " fill="rgb(255,0,0)"/></svg>