<?xml version="1.0" encoding="UTF-8" standalone="no"?><!-- Generator: Gravit.io --><svg xmlns="http://www.w3.org/2000/svg" xmlns:xlink="http://www.w3.org/1999/xlink" style="isolation:isolate" viewBox="0 0 60 60" width="60pt" height="60pt"><path d=" M 10.723 4.5 C 9.771 4.5 8.814 4.858 8.044 5.494 L 3.286 9.471 C 2.17 10.406 1.5 11.897 1.5 13.447 L 1.5 51.224 C 1.5 52.862 2.707 54.206 4.179 54.206 L 37.677 54.206 C 37.736 54.237 37.809 54.265 37.879 54.296 L 40.024 55.072 L 40.721 57.457 C 40.924 58.183 41.593 58.617 42.275 58.462 L 44.479 57.934 L 46.149 59.612 C 46.408 59.872 46.728 60 47.053 60 C 47.375 60 47.684 59.872 47.946 59.612 L 49.613 57.934 L 51.818 58.462 C 52.491 58.619 53.162 58.186 53.374 57.457 L 54.071 55.072 L 56.213 54.296 C 56.869 54.063 57.26 53.314 57.116 52.564 L 56.642 50.108 L 58.149 48.253 C 58.617 47.688 58.617 46.818 58.149 46.253 L 56.642 44.393 L 57.116 41.939 C 57.26 41.19 56.869 40.442 56.213 40.211 L 54.071 39.435 L 53.374 37.046 C 53.167 36.313 52.492 35.878 51.818 36.044 L 49.721 36.541 L 49.721 13.447 C 49.721 11.897 49.052 10.406 47.935 9.471 L 43.178 5.494 C 42.407 4.858 41.45 4.5 40.499 4.5 L 10.723 4.5 Z  M 10.723 6.488 L 24.718 6.488 L 24.718 10.465 L 5.072 10.465 L 9.118 7.083 C 9.582 6.699 10.145 6.491 10.723 6.488 Z  M 26.504 6.488 L 40.499 6.488 C 41.067 6.488 41.639 6.697 42.103 7.083 L 46.865 11.059 C 47.537 11.625 47.934 12.509 47.935 13.447 L 47.935 34.883 C 47.428 34.373 46.654 34.376 46.149 34.89 L 44.479 36.572 L 42.274 36.044 C 41.602 35.881 40.929 36.315 40.722 37.046 L 40.024 39.435 L 37.879 40.21 C 37.223 40.442 36.833 41.191 36.978 41.94 L 37.453 44.393 L 35.943 46.253 C 35.478 46.82 35.478 47.686 35.943 48.253 L 37.453 50.109 L 37.052 52.218 L 4.179 52.218 C 3.688 52.218 3.286 51.771 3.286 51.224 L 3.286 12.453 L 36.327 12.453 C 36.818 12.453 37.22 12.006 37.22 11.459 C 37.22 10.903 36.818 10.465 36.327 10.465 L 26.504 10.465 L 26.504 6.488 Z  M 39.898 10.465 C 39.403 10.465 39.005 10.907 39.005 11.459 C 39.005 12.011 39.403 12.453 39.898 12.453 L 43.47 12.453 C 43.966 12.453 44.363 12.011 44.363 11.459 C 44.363 10.907 43.966 10.465 43.47 10.465 L 39.898 10.465 Z  M 22.039 16.429 C 21.543 16.429 21.146 16.872 21.146 17.424 C 21.146 17.975 21.543 18.418 22.039 18.418 L 29.183 18.418 C 29.678 18.418 30.076 17.975 30.076 17.424 C 30.076 16.872 29.678 16.429 29.183 16.429 L 22.039 16.429 Z  M 20.253 22.394 C 20.016 22.394 19.789 22.499 19.621 22.686 L 16.942 25.668 C 16.71 25.917 16.617 26.287 16.699 26.635 C 16.781 26.982 17.024 27.254 17.337 27.345 C 17.649 27.436 17.981 27.332 18.205 27.074 L 19.36 25.788 L 19.36 33.33 C 19.36 33.881 19.757 34.324 20.253 34.324 C 20.748 34.324 21.146 33.881 21.146 33.33 L 21.146 25.788 L 22.3 27.074 C 22.474 27.267 22.702 27.365 22.932 27.365 C 23.293 27.365 23.618 27.123 23.757 26.751 C 23.895 26.38 23.818 25.952 23.563 25.668 L 20.884 22.686 C 20.717 22.499 20.49 22.394 20.253 22.394 Z  M 30.969 22.394 C 30.732 22.394 30.505 22.499 30.337 22.686 L 27.658 25.668 C 27.426 25.917 27.333 26.287 27.415 26.635 C 27.496 26.982 27.74 27.254 28.053 27.345 C 28.365 27.436 28.697 27.332 28.921 27.074 L 30.076 25.788 L 30.076 33.33 C 30.076 33.881 30.473 34.324 30.969 34.324 C 31.464 34.324 31.862 33.881 31.862 33.33 L 31.862 25.788 L 33.016 27.074 C 33.19 27.267 33.418 27.365 33.648 27.365 C 34.009 27.365 34.334 27.123 34.472 26.751 C 34.611 26.38 34.534 25.952 34.279 25.668 L 31.6 22.686 C 31.433 22.499 31.205 22.394 30.969 22.394 Z  M 16.681 36.312 C 16.185 36.312 15.788 36.754 15.788 37.306 C 15.788 37.858 16.185 38.3 16.681 38.3 L 34.541 38.3 C 35.036 38.3 35.434 37.858 35.434 37.306 C 35.434 36.754 35.036 36.312 34.541 36.312 L 16.681 36.312 Z  M 47.042 36.67 L 47.935 37.567 L 48.587 38.223 C 48.902 38.529 49.319 38.657 49.721 38.569 C 49.739 38.58 49.749 38.569 49.766 38.569 L 51.8 38.083 L 52.446 40.288 C 52.578 40.746 52.899 41.104 53.303 41.243 L 55.286 41.959 L 54.845 44.225 C 54.759 44.692 54.874 45.178 55.16 45.538 L 56.554 47.247 L 55.16 48.967 C 54.874 49.325 54.758 49.814 54.845 50.279 L 55.285 52.544 L 53.304 53.251 C 52.892 53.399 52.568 53.759 52.435 54.218 L 51.801 56.423 L 49.767 55.934 C 49.346 55.837 48.909 55.966 48.588 56.284 L 47.042 57.837 L 45.507 56.284 C 45.258 56.039 44.937 55.904 44.605 55.906 C 44.512 55.906 44.419 55.915 44.328 55.934 L 42.292 56.423 L 41.657 54.218 L 41.657 54.206 C 41.517 53.759 41.203 53.411 40.791 53.252 L 38.81 52.544 L 38.87 52.218 L 39.247 50.291 C 39.337 49.82 39.222 49.329 38.936 48.967 L 37.54 47.247 L 38.936 45.538 C 39.218 45.178 39.338 44.684 39.247 44.226 L 38.81 41.959 L 40.791 41.252 C 41.202 41.104 41.524 40.747 41.649 40.288 L 42.292 38.083 L 44.319 38.569 C 44.737 38.669 45.183 38.537 45.507 38.223 L 47.042 36.67 Z  M 5.965 46.311 C 5.469 46.311 5.072 46.753 5.072 47.305 L 5.072 49.293 C 5.072 49.842 5.472 50.287 5.965 50.287 C 6.458 50.287 6.858 49.842 6.858 49.293 L 6.858 47.305 C 6.858 46.753 6.461 46.311 5.965 46.311 Z  M 10.43 46.311 C 9.934 46.311 9.537 46.753 9.537 47.305 L 9.537 49.293 C 9.537 49.842 9.937 50.287 10.43 50.287 C 10.923 50.287 11.323 49.842 11.323 49.293 L 11.323 47.305 C 11.323 46.753 10.925 46.311 10.43 46.311 Z  M 14.895 46.311 C 14.399 46.311 14.002 46.753 14.002 47.305 L 14.002 49.293 C 14.002 49.842 14.402 50.287 14.895 50.287 C 15.388 50.287 15.788 49.842 15.788 49.293 L 15.788 47.305 C 15.788 46.753 15.39 46.311 14.895 46.311 Z  M 19.36 46.311 C 18.864 46.311 18.467 46.753 18.467 47.305 L 18.467 49.293 C 18.467 49.842 18.867 50.287 19.36 50.287 C 19.853 50.287 20.253 49.842 20.253 49.293 L 20.253 47.305 C 20.253 46.753 19.855 46.311 19.36 46.311 Z  M 23.825 46.311 C 23.329 46.311 22.932 46.753 22.932 47.305 L 22.932 49.293 C 22.932 49.842 23.332 50.287 23.825 50.287 C 24.318 50.287 24.718 49.842 24.718 49.293 L 24.718 47.305 C 24.718 46.753 24.32 46.311 23.825 46.311 Z  M 28.29 46.311 C 27.794 46.311 27.397 46.753 27.397 47.305 L 27.397 49.293 C 27.397 49.842 27.796 50.287 28.29 50.287 C 28.783 50.287 29.183 49.842 29.183 49.293 L 29.183 47.305 C 29.183 46.753 28.785 46.311 28.29 46.311 Z  M 32.755 46.311 C 32.259 46.311 31.862 46.753 31.862 47.305 L 31.862 49.293 C 31.862 49.842 32.261 50.287 32.755 50.287 C 33.248 50.287 33.648 49.842 33.648 49.293 L 33.648 47.305 C 33.648 46.753 33.25 46.311 32.755 46.311 Z " fill="rgb(0,150,136)"/></svg>