<?xml version="1.0" encoding="UTF-8" standalone="no"?><!-- Generator: Gravit.io --><svg xmlns="http://www.w3.org/2000/svg" xmlns:xlink="http://www.w3.org/1999/xlink" style="isolation:isolate" viewBox="0 0 60 60" width="60pt" height="60pt"><path d=" M 30 2.5 C 15.099 2.5 3 14.823 3 30 C 3 37.755 6.156 44.764 11.235 49.766 L 11.235 49.8 C 11.348 50.031 11.543 50.212 11.775 50.316 C 11.792 50.332 11.826 50.332 11.843 50.35 L 11.875 50.35 C 16.67 54.78 23.028 57.5 30 57.5 C 36.716 57.506 43.192 54.956 48.158 50.35 L 48.19 50.316 C 48.436 50.221 48.643 50.036 48.765 49.8 L 48.765 49.766 C 53.844 44.764 57 37.755 57 30 C 57 14.823 44.901 2.5 30 2.5 Z  M 30 4.7 C 43.732 4.7 54.84 16.013 54.84 30 C 54.84 36.94 52.118 43.238 47.685 47.807 C 45.589 46.19 43.078 45.323 40.935 44.437 C 38.564 43.458 36.856 42.495 36.345 41.206 L 36.345 41.103 C 38.226 40.854 40.023 40.536 41.307 40.037 C 42.082 39.737 42.741 39.402 43.263 38.972 C 43.787 38.543 44.243 37.953 44.243 37.15 C 44.251 36.838 44.128 36.538 43.905 36.325 C 43.774 36.204 43.522 35.736 43.365 34.916 C 43.208 34.095 43.124 32.986 43.095 31.718 C 43.036 29.188 43.154 26.02 42.993 22.918 C 42.834 19.816 42.437 16.761 41.138 14.36 C 39.88 12.034 37.56 10.431 34.352 10.44 C 33.319 9.709 31.918 9.202 30.1 9.202 L 30.032 9.202 C 25.658 9.525 22.633 11.321 20.752 13.877 C 18.87 16.434 18.09 19.639 17.714 22.815 C 17.338 25.989 17.385 29.174 17.275 31.717 C 17.22 32.99 17.11 34.119 16.937 34.949 C 16.765 35.778 16.521 36.256 16.33 36.427 C 16.094 36.634 15.958 36.935 15.959 37.252 C 15.959 38.033 16.393 38.781 16.937 39.245 C 17.482 39.71 18.132 39.989 18.895 40.243 C 20.144 40.655 21.874 40.866 23.654 41.101 C 23.65 41.141 23.658 41.162 23.654 41.205 C 23.143 42.494 21.435 43.456 19.064 44.436 C 16.921 45.322 14.41 46.19 12.314 47.806 C 7.715 43.065 5.144 36.664 5.16 30 C 5.16 16.013 16.268 4.7 30 4.7 Z  M 30.102 11.403 L 30.168 11.403 C 31.755 11.42 32.937 11.953 33.408 12.366 C 33.618 12.538 33.883 12.624 34.152 12.607 C 36.876 12.508 38.239 13.564 39.247 15.425 C 40.256 17.285 40.682 20.056 40.835 23.022 C 40.986 25.987 40.876 29.11 40.935 31.753 C 40.964 33.072 41.045 34.288 41.238 35.328 C 41.373 36.041 41.61 36.656 41.948 37.218 C 41.918 37.249 41.973 37.206 41.913 37.253 C 41.665 37.455 41.172 37.726 40.53 37.975 C 39.247 38.473 37.344 38.929 35.097 39.144 C 34.79 39.169 34.507 39.325 34.32 39.574 C 34.134 39.824 34.06 40.142 34.117 40.45 C 34.202 40.888 34.218 41.22 34.218 41.55 C 34.218 41.679 34.244 41.807 34.287 41.928 C 35.197 44.359 37.662 45.447 40.125 46.466 C 42.175 47.313 44.335 48.138 46.032 49.318 C 41.555 53.188 35.872 55.308 30 55.3 C 24.128 55.308 18.445 53.188 13.968 49.318 C 15.664 48.137 17.824 47.312 19.875 46.466 C 22.338 45.447 24.803 44.36 25.713 41.928 C 25.744 41.863 25.764 41.791 25.782 41.722 C 25.9 41.004 25.882 40.574 25.882 40.244 C 25.887 39.686 25.481 39.213 24.937 39.144 C 22.688 38.873 20.798 38.55 19.572 38.147 C 18.959 37.945 18.525 37.7 18.323 37.528 C 18.238 37.455 18.247 37.459 18.222 37.425 C 18.621 36.831 18.905 36.162 19.065 35.397 C 19.284 34.344 19.381 33.142 19.437 31.822 C 19.55 29.179 19.521 26.073 19.875 23.091 C 20.229 20.109 20.98 17.294 22.508 15.218 C 24.027 13.157 26.262 11.699 30.1 11.403 L 30.102 11.403 Z " fill="rgb(255,255,255)"/></svg>