<?xml version="1.0" encoding="UTF-8" standalone="no"?><!-- Generator: Gravit.io --><svg xmlns="http://www.w3.org/2000/svg" xmlns:xlink="http://www.w3.org/1999/xlink" style="isolation:isolate" viewBox="0 0 60 60" width="60pt" height="60pt"><path d=" M 15.287 3.5 C 14.042 3.5 13.011 4.461 13.011 5.621 L 13.011 26.826 C 13.011 27.986 14.042 28.946 15.287 28.946 L 49.438 28.946 C 50.684 28.946 51.715 27.986 51.715 26.826 L 51.715 5.621 C 51.715 4.461 50.684 3.5 49.438 3.5 L 15.287 3.5 Z  M 15.287 5.621 L 49.438 5.621 L 49.438 26.826 L 15.287 26.826 L 15.287 5.621 Z  M 27.24 7.741 C 25.673 7.751 24.406 8.932 24.394 10.392 C 24.394 11.841 25.684 13.042 27.24 13.042 L 37.486 13.042 C 39.042 13.042 40.332 11.841 40.332 10.392 C 40.332 8.942 39.042 7.741 37.486 7.741 L 27.24 7.741 Z  M 27.24 9.862 L 37.486 9.862 C 37.81 9.862 38.055 10.089 38.055 10.392 C 38.058 10.533 37.999 10.67 37.892 10.77 C 37.784 10.87 37.638 10.925 37.486 10.922 L 27.24 10.922 C 27.088 10.925 26.942 10.87 26.834 10.77 C 26.727 10.67 26.668 10.533 26.671 10.392 C 26.671 10.089 26.916 9.862 27.24 9.862 Z  M 16.96 33.187 C 13.731 33.187 12.241 33.917 10.627 34.512 C 7.547 35.651 2.268 38.025 2.268 38.025 C 1.851 38.159 1.555 38.504 1.507 38.913 C 1.459 39.321 1.668 39.718 2.045 39.932 C 2.421 40.146 2.896 40.139 3.264 39.913 C 3.264 39.913 8.581 37.536 11.481 36.468 C 13.255 35.813 14.06 35.308 16.961 35.308 C 23.355 35.308 23.164 37.987 25.783 39.449 C 26.726 39.975 28.207 40.382 29.873 40.774 C 30.016 40.849 30.172 40.895 30.337 40.907 C 30.349 40.911 30.359 40.903 30.372 40.907 C 32.253 41.334 34.249 41.669 35.779 41.669 C 36.446 41.669 37.02 41.739 37.487 41.835 L 37.558 41.835 C 37.985 41.93 38.318 42.063 38.555 42.199 C 39.052 42.493 39.194 42.734 39.194 43.26 C 39.194 43.877 39.052 44.076 38.553 44.353 C 38.055 44.63 37.089 44.85 35.778 44.85 L 29.161 44.85 C 26.373 44.85 22.438 43.823 22.438 43.823 C 21.828 43.658 21.191 43.985 21.015 44.552 C 20.838 45.119 21.189 45.713 21.798 45.877 C 21.798 45.877 25.813 46.97 29.161 46.97 L 35.778 46.97 C 37.317 46.97 38.624 46.764 39.692 46.175 C 39.998 46.006 40.269 45.794 40.509 45.545 C 40.61 45.514 40.706 45.469 40.794 45.413 L 51.039 38.986 C 52.814 38.004 54.044 37.747 54.775 37.759 C 55.504 37.772 55.753 37.975 55.984 38.257 C 56.322 38.667 56.344 38.899 56.126 39.383 C 55.909 39.868 55.303 40.546 54.205 41.272 C 52.84 42.175 37.796 51.485 36.027 52.437 C 34.719 53.141 33.674 53.908 32.47 54.227 C 31.264 54.545 29.824 54.521 27.49 53.465 C 25.933 52.76 19.342 49.554 17.208 48.528 C 16.03 47.961 15.061 47.646 14.043 47.699 C 13.024 47.753 12.134 48.188 11.231 48.727 L 8.173 50.583 C 7.643 50.901 7.492 51.563 7.835 52.056 C 8.176 52.55 8.889 52.691 9.417 52.371 L 12.477 50.516 C 13.274 50.043 13.722 49.841 14.149 49.819 C 14.576 49.799 15.159 49.927 16.177 50.416 C 18.294 51.434 24.781 54.612 26.494 55.387 C 29.184 56.604 31.341 56.708 33.074 56.248 C 34.808 55.788 36.049 54.864 37.166 54.26 C 39.536 52.98 53.809 44.125 55.522 42.994 C 56.829 42.133 57.75 41.23 58.226 40.178 C 58.709 39.113 58.546 37.888 57.799 36.964 C 57.202 36.24 56.157 35.664 54.81 35.638 C 53.863 35.623 52.716 35.946 51.466 36.468 C 51.417 36.252 51.533 36.012 51.431 35.805 C 51.044 35.021 50.159 34.491 49.189 34.313 C 47.922 34.082 46.486 34.438 45.063 35.043 C 44.96 34.753 44.88 34.442 44.672 34.215 C 44.062 33.536 43.177 33.311 42.359 33.253 C 40.728 33.137 39.033 33.63 37.805 34.313 C 36.103 35.258 31.012 38.248 30.264 38.687 C 28.743 38.306 27.361 37.854 26.956 37.626 C 25.915 37.043 24.136 33.187 16.96 33.187 Z  M 42.181 35.374 C 42.634 35.406 42.867 35.536 42.928 35.606 C 42.977 35.66 43.07 35.754 43.035 36.07 L 37.414 39.648 C 36.872 39.576 36.325 39.543 35.778 39.549 C 35.178 39.549 34.36 39.449 33.466 39.316 C 35.293 38.241 37.131 37.18 38.979 36.136 C 39.744 35.714 41.27 35.308 42.181 35.374 Z  M 48.016 36.368 C 48.318 36.344 48.566 36.331 48.762 36.368 C 49.234 36.455 49.292 36.546 49.368 36.7 C 49.42 36.811 49.448 37.097 49.402 37.461 L 41.363 42.497 C 41.167 41.73 40.689 41.05 40.012 40.576 L 44.707 37.561 C 44.844 37.496 44.965 37.406 45.063 37.296 C 45.963 36.791 46.971 36.475 48.016 36.368 Z " fill="rgb(85,110,230)"/></svg>