<?xml version="1.0" encoding="UTF-8" standalone="no"?><!-- Generator: Gravit.io --><svg xmlns="http://www.w3.org/2000/svg" xmlns:xlink="http://www.w3.org/1999/xlink" style="isolation:isolate" viewBox="0 0 60 60" width="60pt" height="60pt"><path d=" M 437.772 2080.6 L 437.411 2080.825 L 429.571 2086.2 L 424.26 2086.2 L 424.26 2099 L 443.733 2099 C 445.363 2099 446.785 2098.203 447.129 2097.1 L 449.623 2089.1 C 450.077 2087.622 448.407 2086.2 446.226 2086.2 L 439.578 2086.2 L 439.796 2085.6 C 440.03 2085.475 440.179 2085.422 440.518 2085.1 C 441.059 2084.588 441.601 2083.794 441.601 2082.725 C 441.601 2081.584 440.11 2080.6 438.242 2080.6 L 437.772 2080.6 Z  M 438.602 2082.275 C 439.09 2082.341 439.289 2082.478 439.289 2082.725 C 439.289 2083.447 438.974 2083.894 438.675 2084.175 C 438.377 2084.456 438.169 2084.525 438.169 2084.525 L 437.772 2084.675 L 437.628 2085 L 436.941 2086.8 L 436.579 2087.8 L 446.226 2087.8 C 446.989 2087.8 447.503 2088.259 447.346 2088.775 L 444.889 2096.775 C 444.766 2097.146 444.284 2097.407 443.733 2097.4 L 431.196 2097.4 L 431.196 2087.325 L 438.602 2082.275 Z  M 426.572 2087.8 L 428.884 2087.8 L 428.884 2097.4 L 426.572 2097.4 L 426.572 2087.8 Z " fill="rgb(145,143,143)"/><path d=" M 42.179 4 L 39.369 6.875 L 48.392 16.159 L 40.271 16.159 C 31.824 16.159 24.713 19.973 19.808 25.891 C 14.899 31.809 12.105 39.785 11.95 48.272 L 11.95 48.832 L 15.925 48.832 L 15.925 48.37 C 16.064 40.729 18.58 33.643 22.817 28.538 C 27.07 23.432 32.977 20.243 40.271 20.243 L 48.392 20.243 L 39.369 29.526 L 42.179 32.401 L 56 18.201 L 42.179 4 Z  M 4 16.159 L 4 50.874 C 4 54.239 6.687 57 9.962 57 L 49.712 57 C 52.987 57 55.674 54.239 55.674 50.874 L 55.674 36.579 L 51.699 36.579 L 51.699 50.874 C 51.699 52.021 50.829 52.916 49.712 52.916 L 9.962 52.916 C 9.433 52.922 8.924 52.709 8.55 52.325 C 8.176 51.941 7.968 51.417 7.975 50.874 L 7.975 16.159 L 4 16.159 Z " fill="rgb(145,143,143)"/></svg>