<?xml version="1.0" encoding="UTF-8" standalone="no"?><!-- Generator: Gravit.io --><svg xmlns="http://www.w3.org/2000/svg" xmlns:xlink="http://www.w3.org/1999/xlink" style="isolation:isolate" viewBox="0 0 60 60" width="60pt" height="60pt"><path d=" M 437.772 2080.6 L 437.411 2080.825 L 429.571 2086.2 L 424.26 2086.2 L 424.26 2099 L 443.733 2099 C 445.363 2099 446.785 2098.203 447.129 2097.1 L 449.623 2089.1 C 450.077 2087.622 448.407 2086.2 446.226 2086.2 L 439.578 2086.2 L 439.796 2085.6 C 440.03 2085.475 440.179 2085.422 440.518 2085.1 C 441.059 2084.588 441.601 2083.794 441.601 2082.725 C 441.601 2081.584 440.11 2080.6 438.242 2080.6 L 437.772 2080.6 Z  M 438.602 2082.275 C 439.09 2082.341 439.289 2082.478 439.289 2082.725 C 439.289 2083.447 438.974 2083.894 438.675 2084.175 C 438.377 2084.456 438.169 2084.525 438.169 2084.525 L 437.772 2084.675 L 437.628 2085 L 436.941 2086.8 L 436.579 2087.8 L 446.226 2087.8 C 446.989 2087.8 447.503 2088.259 447.346 2088.775 L 444.889 2096.775 C 444.766 2097.146 444.284 2097.407 443.733 2097.4 L 431.196 2097.4 L 431.196 2087.325 L 438.602 2082.275 Z  M 426.572 2087.8 L 428.884 2087.8 L 428.884 2097.4 L 426.572 2097.4 L 426.572 2087.8 Z " fill="rgb(145,143,143)"/><path d=" M 3.273 2.5 L 3.273 9.048 L 3.114 10.153 C 3.069 10.423 2 16.833 2 20.179 C 2 22.296 2.482 23.984 3.353 25.212 C 3.327 25.197 3.298 25.186 3.273 25.17 L 3.273 57.5 L 56.727 57.5 L 56.727 25.17 C 56.702 25.186 56.676 25.197 56.647 25.212 C 57.518 23.984 58 22.296 58 20.179 C 58 16.833 56.931 10.423 56.886 10.153 L 56.688 9.048 L 56.727 9.048 L 56.727 2.5 L 3.273 2.5 Z  M 5.421 11.667 L 10.909 11.667 L 10.909 23.329 C 10.074 24.22 8.901 24.762 7.727 24.762 C 5.615 24.762 4.545 23.217 4.545 20.179 C 4.545 17.835 5.127 13.647 5.421 11.667 Z  M 13.455 11.667 L 19.818 11.667 L 19.818 23.329 C 18.983 24.22 17.81 24.762 16.636 24.762 C 15.463 24.762 14.289 24.215 13.455 23.329 L 13.455 11.667 Z  M 22.364 11.667 L 28.727 11.667 L 28.727 23.329 C 27.892 24.22 26.719 24.762 25.545 24.762 C 24.372 24.762 23.199 24.215 22.364 23.329 L 22.364 11.667 Z  M 31.273 11.667 L 37.636 11.667 L 37.636 23.329 C 36.801 24.22 35.628 24.762 34.455 24.762 C 33.281 24.762 32.108 24.215 31.273 23.329 L 31.273 11.667 Z  M 40.182 11.667 L 46.545 11.667 L 46.545 23.329 C 45.711 24.22 44.537 24.762 43.364 24.762 C 42.19 24.762 41.017 24.215 40.182 23.329 L 40.182 11.667 Z  M 49.091 11.667 L 54.539 11.667 C 54.844 13.647 55.455 17.835 55.455 20.179 C 55.455 23.217 54.385 24.762 52.273 24.762 C 51.099 24.762 49.926 24.215 49.091 23.329 L 49.091 11.667 Z  M 10.909 33.929 L 31.273 33.929 L 31.273 49.643 L 10.909 49.643 L 10.909 33.929 Z  M 37.636 33.929 L 49.091 33.929 L 49.091 54.881 L 37.636 54.881 L 37.636 33.929 Z " fill="rgb(255,255,255)"/></svg>