<?xml version="1.0" encoding="UTF-8" standalone="no"?><!-- Generator: Gravit.io --><svg xmlns="http://www.w3.org/2000/svg" xmlns:xlink="http://www.w3.org/1999/xlink" style="isolation:isolate" viewBox="0 0 60 60" width="60pt" height="60pt"><g><path d=" M 52.666 30.181 C 52.569 42.267 42.319 52.025 29.825 51.925 C 17.33 51.825 7.237 41.905 7.334 29.819 C 7.431 17.733 17.681 7.975 30.175 8.075 C 42.67 8.175 52.763 18.095 52.666 30.181 Z  M 58.332 30.227 C 58.454 15.089 45.869 2.719 30.219 2.594 C 14.57 2.469 1.789 14.636 1.668 29.773 C 1.546 44.911 14.131 57.281 29.781 57.406 C 45.43 57.531 58.211 45.364 58.332 30.227 Z " fill="rgb(85,110,230)"/><path d=" M 30.121 14.927 L 41.344 28.72 L 18.678 28.539 L 30.121 14.927 Z " fill="rgb(85,110,230)"/><path d=" M 32.877 24.541 L 32.713 45.096 L 27.046 45.051 L 27.211 24.496 L 32.877 24.541 Z " fill="rgb(85,110,230)"/></g></svg>