<svg width="139" height="39" viewBox="0 0 139 39" fill="none" xmlns="http://www.w3.org/2000/svg">
<path d="M41.4775 19.5039H37.6396V25.041H41.1846C43.2842 25.041 44.334 24.1621 44.334 22.4043C44.334 20.4707 43.3818 19.5039 41.4775 19.5039ZM37.6396 11.7695V16.8525H40.4082C41.4531 16.8525 42.249 16.6426 42.7959 16.2227C43.3428 15.793 43.6162 15.1533 43.6162 14.3037C43.6162 13.4541 43.3428 12.8193 42.7959 12.3994C42.249 11.9795 41.4092 11.7695 40.2764 11.7695H37.6396ZM41.1846 28H33.7871V8.81055H40.2764C42.5811 8.81055 44.3535 9.25488 45.5938 10.1436C46.8438 11.0225 47.4688 12.3311 47.4688 14.0693C47.4688 14.9678 47.2295 15.7637 46.751 16.457C46.2822 17.1504 45.6035 17.6729 44.7148 18.0244C45.8379 18.2686 46.6924 18.7861 47.2783 19.5771C47.8643 20.3584 48.1572 21.3008 48.1572 22.4043C48.1572 24.2402 47.5566 25.6318 46.3555 26.5791C45.1641 27.5264 43.4404 28 41.1846 28ZM54.1299 10.1758V28H50.791V10.1758H54.1299ZM60.9473 28.2666C59.61 28.2666 58.5817 27.8434 57.8623 26.9971C57.1514 26.1507 56.7959 24.86 56.7959 23.125V15.6602H60.1094V23.1504C60.1094 24.0391 60.2575 24.6823 60.5537 25.0801C60.8499 25.4779 61.307 25.6768 61.9248 25.6768C62.9658 25.6768 63.7318 25.3382 64.2227 24.6611V15.6602H67.5615V28.0254H64.7178L64.4258 26.248C63.6302 27.5938 62.4707 28.2666 60.9473 28.2666ZM77.248 20.3447C77.248 19.6169 77.0788 19.0498 76.7402 18.6436C76.4102 18.2288 75.9277 18.0215 75.293 18.0215C74.6582 18.0215 74.1589 18.25 73.7949 18.707C73.431 19.1641 73.2067 19.7904 73.1221 20.5859L73.1602 20.6494H77.248V20.3447ZM75.5596 28.2793C73.7822 28.2793 72.3561 27.7165 71.2812 26.5908C70.2148 25.4652 69.6816 24.0052 69.6816 22.2109V21.7539C69.6816 20.5267 69.9059 19.4349 70.3545 18.4785C70.8115 17.5221 71.4632 16.7773 72.3096 16.2441C73.1644 15.7025 74.1504 15.4316 75.2676 15.4316C76.9264 15.4316 78.2171 15.931 79.1396 16.9297C80.0622 17.9199 80.5234 19.2826 80.5234 21.0176V22.833H73.1475L73.1221 22.9092C73.1813 23.7471 73.4564 24.4242 73.9473 24.9404C74.4382 25.4482 75.0645 25.7021 75.8262 25.7021C76.5879 25.7021 77.21 25.6344 77.6924 25.499C78.1748 25.3551 78.7249 25.1139 79.3428 24.7754L80.2441 26.832V26.8447C79.7109 27.2848 79.0381 27.6361 78.2256 27.8984C77.4215 28.1523 76.5329 28.2793 75.5596 28.2793ZM82.7197 16.1934H86.0586V29.0156C86.0586 30.4629 85.6777 31.5801 84.916 32.3672C84.1543 33.1543 83.0837 33.5479 81.7041 33.5479C81.1201 33.5479 80.5742 33.4844 80.0664 33.3574L80.2188 30.8057C80.5911 30.8988 80.9551 30.9453 81.3105 30.9453C82.25 30.9453 82.7197 30.3021 82.7197 29.0156V16.1934ZM85.9951 10.7344V13.21H82.6436V10.7344H85.9951ZM95.8594 20.3447C95.8594 19.6169 95.6901 19.0498 95.3516 18.6436C95.0215 18.2288 94.5391 18.0215 93.9043 18.0215C93.2695 18.0215 92.7702 18.25 92.4062 18.707C92.0423 19.1641 91.818 19.7904 91.7334 20.5859L91.7715 20.6494H95.8594V20.3447ZM94.1709 28.2793C92.3936 28.2793 90.9674 27.7165 89.8926 26.5908C88.8262 25.4652 88.293 24.0052 88.293 22.2109V21.7539C88.293 20.5267 88.5173 19.4349 88.9658 18.4785C89.4229 17.5221 90.0745 16.7773 90.9209 16.2441C91.7757 15.7025 92.7617 15.4316 93.8789 15.4316C95.5378 15.4316 96.8285 15.931 97.751 16.9297C98.6735 17.9199 99.1348 19.2826 99.1348 21.0176V22.833H91.7588L91.7334 22.9092C91.7926 23.7471 92.0677 24.4242 92.5586 24.9404C93.0495 25.4482 93.6758 25.7021 94.4375 25.7021C95.1992 25.7021 95.8213 25.6344 96.3037 25.499C96.7861 25.3551 97.3363 25.1139 97.9541 24.7754L98.8555 26.832V26.8447C98.3223 27.2848 97.6494 27.6361 96.8369 27.8984C96.0329 28.1523 95.1442 28.2793 94.1709 28.2793ZM105.863 25.9814V26.0195C106.473 26.0195 106.938 25.901 107.26 25.6641C107.59 25.4186 107.755 25.0928 107.755 24.6865C107.755 24.2803 107.569 23.9502 107.196 23.6963C106.832 23.4339 106.185 23.1969 105.254 22.9854C103.747 22.6807 102.634 22.2363 101.915 21.6523C101.196 21.0684 100.836 20.2559 100.836 19.2148C100.836 18.1654 101.285 17.2767 102.182 16.5488C103.087 15.821 104.302 15.457 105.825 15.457C107.357 15.457 108.589 15.8252 109.52 16.5615C110.459 17.2894 110.908 18.2246 110.865 19.3672L110.84 19.4307H107.615C107.615 18.9229 107.454 18.5166 107.133 18.2119C106.811 17.9072 106.367 17.7549 105.8 17.7549C105.241 17.7549 104.805 17.8861 104.492 18.1484C104.179 18.4023 104.022 18.7324 104.022 19.1387C104.022 19.5449 104.192 19.8665 104.53 20.1035C104.869 20.332 105.516 20.5352 106.473 20.7129C108.03 21.026 109.168 21.4788 109.888 22.0713C110.616 22.6637 110.979 23.4974 110.979 24.5723C110.979 25.6387 110.501 26.5231 109.545 27.2256C108.597 27.9196 107.332 28.2666 105.749 28.2666C104.166 28.2666 102.884 27.8646 101.902 27.0605C100.929 26.248 100.468 25.2832 100.519 24.166L100.531 24.0898H103.591C103.625 25.3509 104.382 25.9814 105.863 25.9814ZM113.76 12.6387H117.099V15.6602H119.181V18.0088H117.099V24.3057C117.099 25.1943 117.467 25.6387 118.203 25.6387C118.465 25.6387 118.762 25.5964 119.092 25.5117L119.371 27.9238C118.669 28.1523 117.996 28.2666 117.353 28.2666C114.957 28.2666 113.76 26.9505 113.76 24.3184V18.0088H111.957V15.6602H113.76V12.6387ZM124.817 15.6348V28H121.479V15.6348H124.817ZM124.817 10.1758V12.6768H121.479V10.1758H124.817ZM130.327 21.6904V22.0459C130.327 24.4919 131.131 25.7148 132.739 25.7148C133.34 25.7148 133.818 25.5413 134.174 25.1943C134.529 24.8473 134.707 24.3861 134.707 23.8105H137.741L137.767 23.874C137.8 25.1266 137.335 26.1761 136.37 27.0225C135.405 27.8604 134.195 28.2793 132.739 28.2793C130.928 28.2793 129.515 27.7122 128.499 26.5781C127.492 25.4355 126.988 23.9248 126.988 22.0459V21.7031C126.988 19.8242 127.492 18.3135 128.499 17.1709C129.515 16.0199 130.928 15.4443 132.739 15.4443C134.271 15.4443 135.498 15.8802 136.421 16.752C137.352 17.6152 137.8 18.7578 137.767 20.1797L137.754 20.2432H134.707C134.707 19.5915 134.529 19.0583 134.174 18.6436C133.818 18.2204 133.34 18.0088 132.739 18.0088C131.131 18.0088 130.327 19.236 130.327 21.6904Z" fill="white"/>
<path d="M16.3256 17.8109L17.6134 16.7554L17.2343 15.3427L10.3651 20.1136L14.5701 24.2391L16.687 23.0037L16.3256 17.8109Z" fill="#9333EA"/>
<path d="M22.8159 15.4621L23.825 18.8384L26.1624 17.4744L27.2029 15.7698L27.2127 10.058L22.8159 15.4621Z" fill="#FF7D23"/>
<path d="M17.3364 22.3322L22.8467 19.1166L21 13.9999L16.7366 17.6858L17.3364 22.3322Z" fill="#6B21A8"/>
<path d="M26.612 10.8031C26.7727 12.9005 26.5659 15.3667 26.5678 15.39C26.5717 15.4503 26.6464 16.8808 24.4467 18.1644L16.1622 22.9989C15.4096 23.4381 14.8723 23.2115 14.6103 23.0358C13.5182 22.3043 12.5703 21.1385 12.2423 20.8424C11.4284 20.1074 10.5219 19.4405 9.51478 18.8705C9.32153 18.7614 9.12313 18.657 8.92273 18.5557C14.5247 17.0925 21.5302 12.8603 24.3753 11.0461C25.0997 10.5842 25.2594 10.482 25.6953 10.1813C25.7988 10.1101 26.0751 9.91827 26.2579 9.95339C26.3937 9.97942 26.5675 10.2187 26.612 10.8031ZM26.8159 8.88502C26.0302 8.7296 25.2121 9.29476 25.0277 9.43163C24.5068 9.78061 13.8933 16.8344 7.28322 17.851C6.92466 17.7232 6.55714 17.6063 6.17798 17.5049C5.94398 17.4429 5.41014 17.316 4.76454 17.2084C4.08639 17.0956 3.24344 17.5596 2.9585 18.2039C2.70018 18.7872 2.99923 19.3004 3.63985 19.3506C4.06573 19.3839 4.52873 19.4422 5.00668 19.5383C6.07808 19.7543 7.06766 20.15 7.99508 20.6211C8.92329 21.0936 9.78089 21.663 10.5653 22.3058C10.9577 22.6273 12.757 24.7182 14.7891 25.1731C15.452 25.3214 16.158 25.3924 16.8808 25.3573C18.3331 25.2875 19.7897 24.8602 21.1358 24.2934C22.4881 23.7221 23.7546 23.006 24.9535 22.2245C25.5533 21.8321 26.1356 21.4217 26.7026 20.9954C27.2733 20.5642 27.8124 20.1366 28.3671 19.65C28.6601 19.3922 28.7214 19.0228 28.5004 18.8156C28.2741 18.6033 27.8382 18.6402 27.5266 18.8982L27.5083 18.9133C27.0253 19.3136 26.4767 19.7265 25.9377 20.1094C25.3933 20.495 24.8359 20.8649 24.2689 21.2133C23.1355 21.9089 21.9582 22.5271 20.7676 22.99C19.5806 23.4519 18.3743 23.7525 17.2754 23.7667C17.1434 23.769 17.0134 23.7666 16.8853 23.7603L24.9506 19.0222C27.7818 17.3701 27.8377 15.4236 27.8246 15.0869C27.8496 14.7779 28.0248 12.5236 27.8668 10.463C27.7964 9.53991 27.4426 9.00906 26.8159 8.88502ZM17.7274 26.2806C16.72 26.8685 16.2445 27.9292 16.6654 28.6504C17.0863 29.3717 18.2439 29.4798 19.2512 28.8919C20.2579 28.3045 20.7484 27.2702 20.3277 26.5493C19.907 25.8284 18.734 25.6932 17.7274 26.2806ZM29.5192 21.5546C29.8425 22.1086 29.4768 22.9247 28.7033 23.3761C27.929 23.828 27.0386 23.7449 26.7153 23.1908C26.3916 22.6362 26.7575 21.8204 27.5317 21.3685C28.3053 20.9171 29.1955 20.9999 29.5192 21.5546Z" fill="white"/>
<line y1="26.5" x2="15" y2="26.5" stroke="#6B21A8"/>
<line x1="11" y1="30.5" x2="30" y2="30.5" stroke="#6B21A8"/>
<line x1="21" y1="26.5" x2="26" y2="26.5" stroke="#6B21A8"/>
<line x1="3" y1="30.5" x2="8" y2="30.5" stroke="#6B21A8"/>
<path d="M17.9979 17.7517C20.8078 19.1584 21.0504 18.4417 20.3253 15.8587" stroke="white" strokeWidth="0.5"/>
</svg>
