<svg width="17" height="19" viewBox="0 0 17 19" fill="none" xmlns="http://www.w3.org/2000/svg">
<path d="M7.00102 18.0019C5.81855 18.0052 4.64718 17.7738 3.55477 17.3212C2.46236 16.8685 1.47063 16.2036 0.637024 15.3649L2.05102 13.9509C3.37302 15.2729 5.13102 16.0019 7.00102 16.0019C8.87102 16.0019 10.629 15.2729 11.951 13.9509C13.273 12.6289 14.002 10.8709 14.002 9.00092C14.002 7.13092 13.273 5.37292 11.951 4.05092C10.629 2.72892 8.87102 1.99992 7.00102 1.99992C5.13102 1.99992 3.37302 2.72892 2.05102 4.05092L0.637024 2.63692C2.33602 0.936918 4.59602 -8.01086e-05 7.00102 -8.01086e-05C9.40602 -8.01086e-05 11.666 0.936918 13.365 2.63692C15.065 4.33592 16.002 6.59592 16.002 9.00092C16.002 11.4059 15.065 13.6659 13.365 15.3649C12.5314 16.2036 11.5397 16.8685 10.4473 17.3212C9.35487 17.7738 8.1835 18.0052 7.00102 18.0019Z" fill="#A7A7A7"/>
</svg>
