<svg width="24" height="24" viewBox="0 0 24 24" fill="none" xmlns="http://www.w3.org/2000/svg">
<path fillRule="evenodd" clipRule="evenodd" d="M22.6353 20.2491C22.8749 21.3273 22.195 22.3957 21.1168 22.6353C20.831 22.6988 20.5348 22.6988 20.2491 22.6353L16.8439 21.8786C15.3503 22.6123 13.7022 23 12 23C5.92487 23 1 18.0751 1 12C1 5.92487 5.92487 1 12 1C18.0751 1 23 5.92487 23 12C23 13.7022 22.6123 15.3503 21.8786 16.8439L22.6353 20.2491ZM11 12C11 13.1046 10.1046 14 9 14C7.89543 14 7 13.1046 7 12C7 10.8954 7.89543 10 9 10C10.1046 10 11 10.8954 11 12ZM15 14C16.1046 14 17 13.1046 17 12C17 10.8954 16.1046 10 15 10C13.8954 10 13 10.8954 13 12C13 13.1046 13.8954 14 15 14Z" fill="white"/>
</svg>
