<svg width="19" height="21" viewBox="0 0 19 21" fill="none" xmlns="http://www.w3.org/2000/svg">
<path fillRule="evenodd" clipRule="evenodd" d="M6.02257 2.64094C6.2 1.15337 7.46596 0 9.0013 0C10.5367 0 11.8026 1.15337 11.98 2.64094C14.4827 3.77546 16.2235 6.29555 16.2235 9.22222V14.2399L17.894 17.5494C18.2297 18.2145 17.7463 19 17.0013 19H11.8306C11.4188 20.1652 10.3075 21 9.0013 21C7.69509 21 6.58385 20.1652 6.17201 19H1.0013C0.25626 19 -0.227141 18.2145 0.108582 17.5494L1.77908 14.2399V9.22222C1.77908 6.29555 3.5199 3.77546 6.02257 2.64094Z" fill="white"/>
</svg>
