<svg width="25" height="26" viewBox="0 0 25 26" fill="none" xmlns="http://www.w3.org/2000/svg">
<path d="M23.75 0.5H1.25C0.918479 0.5 0.600537 0.654937 0.366116 0.930726C0.131696 1.20651 0 1.58056 0 1.97059V22.5588C0 23.3389 0.263392 24.087 0.732233 24.6385C1.20107 25.1901 1.83696 25.5 2.5 25.5H22.5C23.163 25.5 23.7989 25.1901 24.2678 24.6385C24.7366 24.087 25 23.3389 25 22.5588V1.97059C25 1.58056 24.8683 1.20651 24.6339 0.930726C24.3995 0.654937 24.0815 0.5 23.75 0.5ZM12.5 13.7353C8.36375 13.7353 5 9.77794 5 4.91176H7.5C7.5 8.15588 9.7425 10.7941 12.5 10.7941C15.2575 10.7941 17.5 8.15588 17.5 4.91176H20C20 9.77794 16.6362 13.7353 12.5 13.7353Z" fill="white"/>
</svg>
