<svg width="30" height="30" viewBox="0 0 30 30" fill="none" xmlns="http://www.w3.org/2000/svg">
<path d="M14.0466 13.5349C14.4187 13.1629 14.4187 12.5582 14.0466 12.1861C13.6746 11.814 13.0699 11.814 12.6978 12.1861L7.6513 17.2326C6.79083 18.0931 6.32572 19.2094 6.32572 20.4187C6.32572 21.628 6.79083 22.7443 7.6513 23.6047C9.41874 25.3722 12.2792 25.3722 14.0234 23.6047L25.4187 12.2094C26.6048 11.0233 27.2559 9.44192 27.2559 7.76751C27.2559 6.09309 26.6048 4.51169 25.4187 3.32564C22.9536 0.860528 18.9769 0.860528 16.5118 3.32564L5.13967 14.6977C3.60479 16.2326 2.76758 18.2559 2.76758 20.4187C2.76758 22.5815 3.60479 24.628 5.13967 26.1396C6.67455 27.6745 8.69781 28.5117 10.8606 28.5117C13.0234 28.5117 15.0699 27.6745 16.5815 26.1396L21.628 21.0931C22.0001 20.721 22.0001 20.1163 21.628 19.7443C21.2559 19.3722 20.6513 19.3722 20.2792 19.7443L15.2327 24.7908C14.0699 25.9536 12.5118 26.6047 10.8606 26.6047C9.20944 26.6047 7.6513 25.9536 6.48851 24.7908C5.32572 23.628 4.67455 22.0698 4.67455 20.4187C4.67455 18.7675 5.32572 17.2094 6.48851 16.0466L17.8606 4.67448C18.6978 3.83727 19.7908 3.39541 20.9536 3.39541C22.1164 3.39541 23.2327 3.86053 24.0466 4.67448C24.8839 5.51169 25.3257 6.60471 25.3257 7.76751C25.3257 8.9303 24.8606 10.0466 24.0466 10.8605L12.6513 22.2559C11.6513 23.2559 10.0001 23.2559 8.97688 22.2559C8.48851 21.7675 8.20944 21.1163 8.20944 20.4187C8.20944 19.721 8.48851 19.0698 8.97688 18.5815L14.0466 13.5349Z" fill="#847F7F"/>
</svg>
