<svg width="30" height="30" viewBox="0 0 30 30" fill="none" xmlns="http://www.w3.org/2000/svg">
<path d="M15 9.375C16.5938 9.375 17.8125 8.15625 17.8125 6.5625C17.8125 4.96875 16.5938 3.75 15 3.75C13.4062 3.75 12.1875 4.96875 12.1875 6.5625C12.1875 8.15625 13.4062 9.375 15 9.375Z" fill="white"/>
<path d="M15 12.1875C13.4062 12.1875 12.1875 13.4062 12.1875 15C12.1875 16.5938 13.4062 17.8125 15 17.8125C16.5938 17.8125 17.8125 16.5938 17.8125 15C17.8125 13.4062 16.5938 12.1875 15 12.1875Z" fill="white"/>
<path d="M15 20.625C13.4062 20.625 12.1875 21.8438 12.1875 23.4375C12.1875 25.0312 13.4062 26.25 15 26.25C16.5938 26.25 17.8125 25.0312 17.8125 23.4375C17.8125 21.8438 16.5938 20.625 15 20.625Z" fill="white"/>
</svg>
