<svg width="18" height="18" viewBox="0 0 18 18" fill="none" xmlns="http://www.w3.org/2000/svg">
<path d="M17.7025 15.9611L12.0872 10.6682C12.9586 9.60637 13.43 8.30812 13.43 6.94261C13.43 5.30807 12.7532 3.77543 11.5294 2.61984C10.3055 1.46425 8.67521 0.828369 6.94326 0.828369C5.2113 0.828369 3.58098 1.46629 2.35715 2.61984C1.13116 3.77339 0.456543 5.30807 0.456543 6.94261C0.456543 8.57511 1.13332 10.1118 2.35715 11.2654C3.58098 12.421 5.20914 13.0568 6.94326 13.0568C8.39195 13.0568 9.76714 12.6125 10.8937 11.7932L16.509 17.0841C16.5255 17.0996 16.545 17.1119 16.5665 17.1203C16.588 17.1287 16.6111 17.1331 16.6344 17.1331C16.6577 17.1331 16.6808 17.1287 16.7023 17.1203C16.7238 17.1119 16.7433 17.0996 16.7598 17.0841L17.7025 16.1975C17.719 16.182 17.7321 16.1636 17.741 16.1433C17.7499 16.123 17.7545 16.1013 17.7545 16.0793C17.7545 16.0574 17.7499 16.0356 17.741 16.0153C17.7321 15.9951 17.719 15.9766 17.7025 15.9611ZM10.3682 10.1709C9.45145 11.033 8.23627 11.5079 6.94326 11.5079C5.65024 11.5079 4.43506 11.033 3.51827 10.1709C2.60364 9.30678 2.09984 8.16138 2.09984 6.94261C2.09984 5.72383 2.60364 4.5764 3.51827 3.71429C4.43506 2.85218 5.65024 2.37731 6.94326 2.37731C8.23627 2.37731 9.45361 2.85014 10.3682 3.71429C11.2829 4.57843 11.7867 5.72383 11.7867 6.94261C11.7867 8.16138 11.2829 9.30882 10.3682 10.1709Z" fill="#847F7F"/>
</svg>
