<svg width="11" height="10" viewBox="0 0 11 10" fill="none" xmlns="http://www.w3.org/2000/svg">
<path fillRule="evenodd" clipRule="evenodd" d="M0 4.84625C0 4.66267 0.0724249 4.48661 0.201342 4.35679C0.330259 4.22698 0.505107 4.15405 0.687423 4.15405H8.65191L5.70011 1.18315C5.57103 1.05317 5.49852 0.876885 5.49852 0.693071C5.49852 0.509257 5.57103 0.332972 5.70011 0.202996C5.82919 0.0730199 6.00426 0 6.18681 0C6.36936 0 6.54443 0.0730199 6.6735 0.202996L10.798 4.35618C10.8621 4.42047 10.9129 4.49686 10.9475 4.58095C10.9822 4.66505 11 4.7552 11 4.84625C11 4.9373 10.9822 5.02745 10.9475 5.11155C10.9129 5.19564 10.8621 5.27203 10.798 5.33633L6.6735 9.4895C6.54443 9.61948 6.36936 9.6925 6.18681 9.6925C6.00426 9.6925 5.82919 9.61948 5.70011 9.4895C5.57103 9.35953 5.49852 9.18324 5.49852 8.99943C5.49852 8.81562 5.57103 8.63933 5.70011 8.50935L8.65191 5.53845H0.687423C0.505107 5.53845 0.330259 5.46552 0.201342 5.33571C0.0724249 5.2059 0 5.02983 0 4.84625Z" fill="#FF7D23"/>
</svg>
