<svg width="21" height="20" viewBox="0 0 21 20" fill="none" xmlns="http://www.w3.org/2000/svg">
<path fillRule="evenodd" clipRule="evenodd" d="M10.9932 0C5.47084 0 0.993164 4.47768 0.993164 10C0.993164 15.5223 5.47084 20 10.9932 20C16.5155 20 20.9932 15.5223 20.9932 10C20.9932 4.47768 16.5155 0 10.9932 0ZM15.8278 13.3706C15.8948 13.4375 15.9305 13.5268 15.9305 13.6206C15.9305 13.7143 15.8948 13.8081 15.8278 13.8706L14.8635 14.8393C14.7921 14.9108 14.7028 14.942 14.6135 14.942C14.5243 14.942 14.4305 14.9063 14.3635 14.8393L10.9931 11.4643L7.6271 14.8438C7.56014 14.9152 7.46639 14.9465 7.37711 14.9465C7.28782 14.9465 7.19408 14.9108 7.12711 14.8438L6.16285 13.875C6.09589 13.8081 6.06017 13.7188 6.06017 13.625C6.06017 13.5313 6.09589 13.4375 6.16285 13.375L9.54223 9.9822L6.15392 6.63399C6.01553 6.4956 6.01553 6.26792 6.15392 6.12953L7.11819 5.16078C7.18515 5.09382 7.27443 5.05811 7.36818 5.05811C7.46193 5.05811 7.55121 5.09382 7.61817 5.16078L10.9976 8.49559L14.3769 5.16078C14.4439 5.09382 14.5332 5.05811 14.6269 5.05811C14.7207 5.05811 14.81 5.09382 14.8769 5.16078L15.8412 6.12953C15.9796 6.26792 15.9796 6.4956 15.8412 6.63399L12.4529 9.9822L15.8278 13.3706Z" fill="#B5BBC6"/>
</svg>
