<svg width="13" height="17" viewBox="0 0 13 17" fill="none" xmlns="http://www.w3.org/2000/svg">
<path d="M5.39978 1.13333V6.33533H2.88028C2.38518 6.33533 2.14313 6.94733 2.4952 7.29867L6.11492 11.0273C6.33497 11.254 6.67603 11.254 6.89608 11.0273L10.5158 7.29867C10.5912 7.21946 10.6424 7.11921 10.663 7.01033C10.6835 6.90146 10.6727 6.78875 10.6317 6.68619C10.5907 6.58362 10.5214 6.4957 10.4323 6.43333C10.3433 6.37097 10.2384 6.33689 10.1307 6.33533H7.60022V1.13333C7.60022 0.51 7.10512 0 6.5 0C5.89488 0 5.39978 0.51 5.39978 1.13333ZM1.10892 10.2C0.43779 10.2 -0.11232 10.8233 0.0197067 11.5033C0.613825 14.6313 3.28736 17 6.5 17C9.71264 17 12.3862 14.6313 12.9803 11.5033C13.1123 10.8233 12.5622 10.2 11.8911 10.2C11.352 10.2 10.9229 10.5967 10.8129 11.1407C10.3838 13.192 8.62342 14.7333 6.5 14.7333C4.37658 14.7333 2.61623 13.192 2.19814 11.1407C2.08812 10.5967 1.64803 10.2 1.10892 10.2Z" fill="#5F40AF"/>
</svg>
