<svg width="30" height="30" viewBox="0 0 30 30" fill="none" xmlns="http://www.w3.org/2000/svg">
<path d="M15 0C6.71437 0 0 6.71437 0 15C0 23.2856 6.71437 30 15 30C23.2856 30 30 23.2856 30 15C30 6.71437 23.2856 0 15 0ZM11.25 22.5C7.1025 22.5 3.75 19.1494 3.75 15C3.75 10.8506 7.1025 7.5 11.25 7.5C13.2769 7.5 14.97 8.23875 16.2769 9.46313L14.2369 11.4206C13.68 10.8881 12.7069 10.2656 11.2481 10.2656C8.68688 10.2656 6.59625 12.3862 6.59625 15C6.59625 17.6138 8.68875 19.7344 11.2481 19.7344C14.2181 19.7344 15.3319 17.6025 15.5025 16.5H11.2481V13.9275H18.3319C18.3956 14.3025 18.45 14.6775 18.45 15.1706C18.45 19.4587 15.5794 22.5 11.2481 22.5H11.25ZM24.375 15V16.875H22.5V15H20.625V13.125H22.5V11.25H24.375V13.125H26.25V15H24.375Z" fill="#DB4437"/>
</svg>
