<svg width="32" height="32" viewBox="0 0 32 32" fill="none" xmlns="http://www.w3.org/2000/svg">
<path d="M27.9998 2.66675H3.99984C3.64622 2.66675 3.30708 2.80722 3.05703 3.05727C2.80698 3.30732 2.6665 3.64646 2.6665 4.00008V28.0001C2.6665 28.3537 2.80698 28.6928 3.05703 28.9429C3.30708 29.1929 3.64622 29.3334 3.99984 29.3334H27.9998C28.3535 29.3334 28.6926 29.1929 28.9427 28.9429C29.1927 28.6928 29.3332 28.3537 29.3332 28.0001V4.00008C29.3332 3.64646 29.1927 3.30732 28.9427 3.05727C28.6926 2.80722 28.3535 2.66675 27.9998 2.66675ZM18.6665 26.6668H5.33317V17.3334H18.6665V26.6668ZM18.6665 14.6668H5.33317V5.33342H18.6665V14.6668ZM26.6665 26.6668H21.3332V5.33342H26.6665V26.6668Z" fill="#808191"/>
</svg>
