<svg width="16" height="14" viewBox="0 0 16 14" fill="none" xmlns="http://www.w3.org/2000/svg">
<path d="M0.103722 7C0.103722 5.71356 1.29137 4.66667 2.75078 4.66667C3.45137 4.66667 4.0849 4.91167 4.55872 5.30444L9.8449 2.64133C9.82902 2.54022 9.8096 2.43911 9.8096 2.33333C9.8096 1.04689 10.9973 0 12.4567 0C13.9161 0 15.1037 1.04689 15.1037 2.33333C15.1037 3.61978 13.9161 4.66667 12.4567 4.66667C11.7561 4.66667 11.1225 4.42167 10.6487 4.02889L5.36255 6.69122C5.37843 6.79311 5.39784 6.89422 5.39784 7C5.39784 7.10578 5.37843 7.20689 5.36255 7.30878L10.6487 9.97111C11.1225 9.57833 11.7561 9.33333 12.4567 9.33333C13.9161 9.33333 15.1037 10.3802 15.1037 11.6667C15.1037 12.9531 13.9161 14 12.4567 14C10.9973 14 9.8096 12.9531 9.8096 11.6667C9.8096 11.5609 9.82902 11.4598 9.8449 11.3579L4.55872 8.69556C4.07078 9.10414 3.42378 9.33238 2.75078 9.33333C1.29137 9.33333 0.103722 8.28644 0.103722 7Z" fill="#808191"/>
</svg>
