<svg width="19" height="16" viewBox="0 0 19 16" fill="none" xmlns="http://www.w3.org/2000/svg">
<path d="M18.4181 3.09767C18.1395 2.49149 17.7377 1.94218 17.2353 1.48048C16.7325 1.01741 16.1398 0.64941 15.4892 0.396498C14.8146 0.133203 14.091 -0.00156599 13.3606 1.37283e-05C12.3357 1.37283e-05 11.3359 0.263686 10.4669 0.761732C10.2591 0.880873 10.0616 1.01173 9.87451 1.15431C9.68742 1.01173 9.48994 0.880873 9.28207 0.761732C8.41315 0.263686 7.41328 1.37283e-05 6.38846 1.37283e-05C5.65051 1.37283e-05 4.93542 0.132826 4.25983 0.396498C3.6071 0.650404 3.01882 1.01564 2.51369 1.48048C2.01062 1.94166 1.60877 2.4911 1.33088 3.09767C1.04194 3.72853 0.894348 4.39845 0.894348 5.0879C0.894348 5.7383 1.0357 6.41603 1.31633 7.10548C1.55123 7.68165 1.88799 8.27931 2.31829 8.88283C3.00011 9.8379 3.93762 10.834 5.10172 11.8438C7.03079 13.5176 8.94115 14.6738 9.02222 14.7207L9.51488 15.0176C9.73315 15.1485 10.0138 15.1485 10.2321 15.0176L10.7247 14.7207C10.8058 14.6719 12.7141 13.5176 14.6452 11.8438C15.8093 10.834 16.7468 9.8379 17.4286 8.88283C17.8589 8.27931 18.1978 7.68165 18.4306 7.10548C18.7112 6.41603 18.8526 5.7383 18.8526 5.0879C18.8547 4.39845 18.7071 3.72853 18.4181 3.09767ZM9.87451 13.4727C9.87451 13.4727 2.47419 9.01759 2.47419 5.0879C2.47419 3.09767 4.22657 1.48439 6.38846 1.48439C7.90802 1.48439 9.22594 2.28126 9.87451 3.44533C10.5231 2.28126 11.841 1.48439 13.3606 1.48439C15.5224 1.48439 17.2748 3.09767 17.2748 5.0879C17.2748 9.01759 9.87451 13.4727 9.87451 13.4727Z" fill="#ACB1C0"/>
</svg>
