<svg width="12" height="11" viewBox="0 0 12 11" fill="none" xmlns="http://www.w3.org/2000/svg">
<path d="M0.34668 5.5C0.34668 4.48922 1.21762 3.66667 2.28786 3.66667C2.80162 3.66667 3.26621 3.85917 3.61368 4.16778L7.49021 2.07533C7.47856 1.99589 7.46433 1.91644 7.46433 1.83333C7.46433 0.822556 8.33527 0 9.4055 0C10.4757 0 11.3467 0.822556 11.3467 1.83333C11.3467 2.84411 10.4757 3.66667 9.4055 3.66667C8.89174 3.66667 8.42715 3.47417 8.07968 3.16556L4.20315 5.25739C4.2148 5.33744 4.22903 5.41689 4.22903 5.5C4.22903 5.58311 4.2148 5.66256 4.20315 5.74261L8.07968 7.83444C8.42715 7.52583 8.89174 7.33333 9.4055 7.33333C10.4757 7.33333 11.3467 8.15589 11.3467 9.16667C11.3467 10.1774 10.4757 11 9.4055 11C8.33527 11 7.46433 10.1774 7.46433 9.16667C7.46433 9.08356 7.47856 9.00411 7.49021 8.92406L3.61368 6.83222C3.25586 7.15325 2.78139 7.33258 2.28786 7.33333C1.21762 7.33333 0.34668 6.51078 0.34668 5.5Z" fill="#ACB1C0"/>
</svg>
