<svg width="20" height="20" viewBox="0 0 20 20" fill="none" xmlns="http://www.w3.org/2000/svg">
<path d="M0.417454 3.71703C3.16238 6.04168 7.97886 10.1314 9.39449 11.4066C9.58453 11.5788 9.78835 11.6663 9.99996 11.6663C10.2111 11.6663 10.4146 11.5796 10.6042 11.4083C12.021 10.1318 16.8375 6.04168 19.5825 3.71703C19.7534 3.57258 19.7794 3.31867 19.6411 3.14207C19.3212 2.73398 18.8444 2.5 18.3333 2.5H1.66663C1.15558 2.5 0.678665 2.73398 0.35886 3.14211C0.220501 3.31867 0.246556 3.57258 0.417454 3.71703Z" fill="#5F40AF"/>
<path d="M19.7583 4.97679C19.6106 4.90804 19.4369 4.93202 19.314 5.03702C16.2699 7.61757 12.3848 10.9253 11.1625 12.0268C10.4764 12.646 9.5243 12.646 8.83664 12.0259C7.53375 10.852 3.17094 7.14312 0.686016 5.03699C0.562305 4.93199 0.388164 4.90882 0.24168 4.97675C0.0944141 5.04515 0 5.19245 0 5.3548V15.8333C0 16.7525 0.747461 17.5 1.66668 17.5H18.3334C19.2525 17.5 20 16.7525 20 15.8333V5.3548C20 5.19245 19.9056 5.04476 19.7583 4.97679Z" fill="#5F40AF"/>
</svg>
