<svg width="24" height="24" viewBox="0 0 24 24" fill="none" xmlns="http://www.w3.org/2000/svg">
<path d="M19.2 3.2H4.79995C3.91595 3.2 3.19995 3.916 3.19995 4.8V19.2C3.19995 20.084 3.91595 20.8 4.79995 20.8H12.8V13.6H10.4V11.2H12.8V9.9112C12.8 7.4712 13.9888 6.4 16.0168 6.4C16.988 6.4 17.5015 6.472 17.7448 6.5048V8.8H16.3616C15.5008 8.8 15.2 9.2544 15.2 10.1744V11.2H17.7231L17.3808 13.6H15.2V20.8H19.2C20.084 20.8 20.7999 20.084 20.7999 19.2V4.8C20.7999 3.916 20.0832 3.2 19.2 3.2Z" fill="white"/>
</svg>
