<svg width="138" height="39" viewBox="0 0 138 39" fill="none" xmlns="http://www.w3.org/2000/svg">
<path d="M40.4775 19.5039H36.6396V25.041H40.1846C42.2842 25.041 43.334 24.1621 43.334 22.4043C43.334 20.4707 42.3818 19.5039 40.4775 19.5039ZM36.6396 11.7695V16.8525H39.4082C40.4531 16.8525 41.249 16.6426 41.7959 16.2227C42.3428 15.793 42.6162 15.1533 42.6162 14.3037C42.6162 13.4541 42.3428 12.8193 41.7959 12.3994C41.249 11.9795 40.4092 11.7695 39.2764 11.7695H36.6396ZM40.1846 28H32.7871V8.81055H39.2764C41.5811 8.81055 43.3535 9.25488 44.5938 10.1436C45.8438 11.0225 46.4688 12.3311 46.4688 14.0693C46.4688 14.9678 46.2295 15.7637 45.751 16.457C45.2822 17.1504 44.6035 17.6729 43.7148 18.0244C44.8379 18.2686 45.6924 18.7861 46.2783 19.5771C46.8643 20.3584 47.1572 21.3008 47.1572 22.4043C47.1572 24.2402 46.5566 25.6318 45.3555 26.5791C44.1641 27.5264 42.4404 28 40.1846 28ZM53.1299 10.1758V28H49.791V10.1758H53.1299ZM59.9473 28.2666C58.61 28.2666 57.5817 27.8434 56.8623 26.9971C56.1514 26.1507 55.7959 24.86 55.7959 23.125V15.6602H59.1094V23.1504C59.1094 24.0391 59.2575 24.6823 59.5537 25.0801C59.8499 25.4779 60.307 25.6768 60.9248 25.6768C61.9658 25.6768 62.7318 25.3382 63.2227 24.6611V15.6602H66.5615V28.0254H63.7178L63.4258 26.248C62.6302 27.5938 61.4707 28.2666 59.9473 28.2666ZM76.248 20.3447C76.248 19.6169 76.0788 19.0498 75.7402 18.6436C75.4102 18.2288 74.9277 18.0215 74.293 18.0215C73.6582 18.0215 73.1589 18.25 72.7949 18.707C72.431 19.1641 72.2067 19.7904 72.1221 20.5859L72.1602 20.6494H76.248V20.3447ZM74.5596 28.2793C72.7822 28.2793 71.3561 27.7165 70.2812 26.5908C69.2148 25.4652 68.6816 24.0052 68.6816 22.2109V21.7539C68.6816 20.5267 68.9059 19.4349 69.3545 18.4785C69.8115 17.5221 70.4632 16.7773 71.3096 16.2441C72.1644 15.7025 73.1504 15.4316 74.2676 15.4316C75.9264 15.4316 77.2171 15.931 78.1396 16.9297C79.0622 17.9199 79.5234 19.2826 79.5234 21.0176V22.833H72.1475L72.1221 22.9092C72.1813 23.7471 72.4564 24.4242 72.9473 24.9404C73.4382 25.4482 74.0645 25.7021 74.8262 25.7021C75.5879 25.7021 76.21 25.6344 76.6924 25.499C77.1748 25.3551 77.7249 25.1139 78.3428 24.7754L79.2441 26.832V26.8447C78.7109 27.2848 78.0381 27.6361 77.2256 27.8984C76.4215 28.1523 75.5329 28.2793 74.5596 28.2793ZM81.7197 16.1934H85.0586V29.0156C85.0586 30.4629 84.6777 31.5801 83.916 32.3672C83.1543 33.1543 82.0837 33.5479 80.7041 33.5479C80.1201 33.5479 79.5742 33.4844 79.0664 33.3574L79.2188 30.8057C79.5911 30.8988 79.9551 30.9453 80.3105 30.9453C81.25 30.9453 81.7197 30.3021 81.7197 29.0156V16.1934ZM84.9951 10.7344V13.21H81.6436V10.7344H84.9951ZM94.8594 20.3447C94.8594 19.6169 94.6901 19.0498 94.3516 18.6436C94.0215 18.2288 93.5391 18.0215 92.9043 18.0215C92.2695 18.0215 91.7702 18.25 91.4062 18.707C91.0423 19.1641 90.818 19.7904 90.7334 20.5859L90.7715 20.6494H94.8594V20.3447ZM93.1709 28.2793C91.3936 28.2793 89.9674 27.7165 88.8926 26.5908C87.8262 25.4652 87.293 24.0052 87.293 22.2109V21.7539C87.293 20.5267 87.5173 19.4349 87.9658 18.4785C88.4229 17.5221 89.0745 16.7773 89.9209 16.2441C90.7757 15.7025 91.7617 15.4316 92.8789 15.4316C94.5378 15.4316 95.8285 15.931 96.751 16.9297C97.6735 17.9199 98.1348 19.2826 98.1348 21.0176V22.833H90.7588L90.7334 22.9092C90.7926 23.7471 91.0677 24.4242 91.5586 24.9404C92.0495 25.4482 92.6758 25.7021 93.4375 25.7021C94.1992 25.7021 94.8213 25.6344 95.3037 25.499C95.7861 25.3551 96.3363 25.1139 96.9541 24.7754L97.8555 26.832V26.8447C97.3223 27.2848 96.6494 27.6361 95.8369 27.8984C95.0329 28.1523 94.1442 28.2793 93.1709 28.2793ZM104.863 25.9814V26.0195C105.473 26.0195 105.938 25.901 106.26 25.6641C106.59 25.4186 106.755 25.0928 106.755 24.6865C106.755 24.2803 106.569 23.9502 106.196 23.6963C105.832 23.4339 105.185 23.1969 104.254 22.9854C102.747 22.6807 101.634 22.2363 100.915 21.6523C100.196 21.0684 99.8359 20.2559 99.8359 19.2148C99.8359 18.1654 100.285 17.2767 101.182 16.5488C102.087 15.821 103.302 15.457 104.825 15.457C106.357 15.457 107.589 15.8252 108.52 16.5615C109.459 17.2894 109.908 18.2246 109.865 19.3672L109.84 19.4307H106.615C106.615 18.9229 106.454 18.5166 106.133 18.2119C105.811 17.9072 105.367 17.7549 104.8 17.7549C104.241 17.7549 103.805 17.8861 103.492 18.1484C103.179 18.4023 103.022 18.7324 103.022 19.1387C103.022 19.5449 103.192 19.8665 103.53 20.1035C103.869 20.332 104.516 20.5352 105.473 20.7129C107.03 21.026 108.168 21.4788 108.888 22.0713C109.616 22.6637 109.979 23.4974 109.979 24.5723C109.979 25.6387 109.501 26.5231 108.545 27.2256C107.597 27.9196 106.332 28.2666 104.749 28.2666C103.166 28.2666 101.884 27.8646 100.902 27.0605C99.929 26.248 99.4678 25.2832 99.5186 24.166L99.5312 24.0898H102.591C102.625 25.3509 103.382 25.9814 104.863 25.9814ZM112.76 12.6387H116.099V15.6602H118.181V18.0088H116.099V24.3057C116.099 25.1943 116.467 25.6387 117.203 25.6387C117.465 25.6387 117.762 25.5964 118.092 25.5117L118.371 27.9238C117.669 28.1523 116.996 28.2666 116.353 28.2666C113.957 28.2666 112.76 26.9505 112.76 24.3184V18.0088H110.957V15.6602H112.76V12.6387ZM123.817 15.6348V28H120.479V15.6348H123.817ZM123.817 10.1758V12.6768H120.479V10.1758H123.817ZM129.327 21.6904V22.0459C129.327 24.4919 130.131 25.7148 131.739 25.7148C132.34 25.7148 132.818 25.5413 133.174 25.1943C133.529 24.8473 133.707 24.3861 133.707 23.8105H136.741L136.767 23.874C136.8 25.1266 136.335 26.1761 135.37 27.0225C134.405 27.8604 133.195 28.2793 131.739 28.2793C129.928 28.2793 128.515 27.7122 127.499 26.5781C126.492 25.4355 125.988 23.9248 125.988 22.0459V21.7031C125.988 19.8242 126.492 18.3135 127.499 17.1709C128.515 16.0199 129.928 15.4443 131.739 15.4443C133.271 15.4443 134.498 15.8802 135.421 16.752C136.352 17.6152 136.8 18.7578 136.767 20.1797L136.754 20.2432H133.707C133.707 19.5915 133.529 19.0583 133.174 18.6436C132.818 18.2204 132.34 18.0088 131.739 18.0088C130.131 18.0088 129.327 19.236 129.327 21.6904Z" fill="#556EE6"/>
<path d="M16.3256 17.8109L17.6134 16.7554L17.2343 15.3427L10.3651 20.1137L14.5701 24.2391L16.687 23.0038L16.3256 17.8109Z" fill="#9333EA"/>
<path d="M22.8159 15.4621L23.825 18.8384L26.1624 17.4743L27.2029 15.7698L27.2127 10.0579L22.8159 15.4621Z" fill="#FF7D23"/>
<path d="M17.3364 22.3322L22.8467 19.1167L21 14L16.7366 17.6858L17.3364 22.3322Z" fill="#6B21A8"/>
<path d="M26.6119 10.8032C26.7727 12.9006 26.5659 15.3668 26.5677 15.39C26.5716 15.4503 26.6463 16.8809 24.4467 18.1645L16.1621 22.999C15.4095 23.4382 14.8722 23.2116 14.6102 23.0359C13.5182 22.3044 12.5703 21.1385 12.2422 20.8425C11.4284 20.1075 10.5218 19.4406 9.51472 18.8706C9.32147 18.7614 9.12307 18.6571 8.92266 18.5557C14.5247 17.0925 21.5301 12.8604 24.3752 11.0462C25.0997 10.5843 25.2594 10.4821 25.6952 10.1813C25.7987 10.1102 26.075 9.91833 26.2578 9.95345C26.3937 9.97948 26.5675 10.2188 26.6119 10.8032ZM26.8159 8.88508C26.0301 8.72966 25.2121 9.29482 25.0276 9.43169C24.5068 9.78067 13.8932 16.8345 7.28316 17.8511C6.9246 17.7232 6.55708 17.6064 6.17792 17.5049C5.94392 17.443 5.41008 17.3161 4.76448 17.2085C4.08632 17.0956 3.24338 17.5596 2.95844 18.2039C2.70012 18.7872 2.99917 19.3005 3.63979 19.3507C4.06567 19.3839 4.52867 19.4423 5.00662 19.5383C6.07802 19.7544 7.0676 20.1501 7.99502 20.6212C8.92323 21.0936 9.78083 21.6631 10.5652 22.3059C10.9577 22.6274 12.7569 24.7183 14.789 25.1731C15.4519 25.3215 16.158 25.3924 16.8807 25.3573C18.3331 25.2876 19.7896 24.8603 21.1357 24.2935C22.4881 23.7222 23.7546 23.0061 24.9534 22.2246C25.5533 21.8322 26.1356 21.4217 26.7026 20.9954C27.2732 20.5643 27.8124 20.1367 28.367 19.6501C28.66 19.3922 28.7214 19.0229 28.5003 18.8156C28.274 18.6033 27.8381 18.6403 27.5265 18.8982L27.5082 18.9134C27.0252 19.3136 26.4766 19.7265 25.9376 20.1095C25.3932 20.4951 24.8359 20.8649 24.2688 21.2134C23.1354 21.909 21.9582 22.5271 20.7676 22.9901C19.5805 23.4519 18.3742 23.7526 17.2753 23.7668C17.1434 23.7691 17.0133 23.7666 16.8852 23.7604L24.9505 19.0223C27.7817 17.3701 27.8376 15.4236 27.8245 15.0869C27.8495 14.778 28.0248 12.5237 27.8667 10.463C27.7963 9.53997 27.4425 9.00912 26.8159 8.88508ZM17.7273 26.2807C16.72 26.8685 16.2444 27.9292 16.6653 28.6505C17.0862 29.3717 18.2438 29.4798 19.2512 28.892C20.2578 28.3046 20.7483 27.2702 20.3276 26.5493C19.9069 25.8284 18.734 25.6933 17.7273 26.2807ZM29.5192 21.5546C29.8425 22.1087 29.4768 22.9248 28.7032 23.3762C27.929 23.828 27.0385 23.7449 26.7152 23.1909C26.3915 22.6362 26.7574 21.8204 27.5317 21.3686C28.3052 20.9172 29.1955 20.9999 29.5192 21.5546Z" fill="#556EE6"/>
<line y1="26.5" x2="15" y2="26.5" stroke="#6B21A8"/>
<line x1="11" y1="30.5" x2="30" y2="30.5" stroke="#6B21A8"/>
<line x1="21" y1="26.5" x2="26" y2="26.5" stroke="#6B21A8"/>
<line x1="3" y1="30.5" x2="8" y2="30.5" stroke="#6B21A8"/>
<path d="M17.998 17.7518C20.8079 19.1585 21.0505 18.4418 20.3254 15.8588" stroke="white" strokeWidth="0.5"/>
</svg>
