<svg width="919" height="691" viewBox="0 0 919 691" fill="none" xmlns="http://www.w3.org/2000/svg">
<path fillRule="evenodd" clipRule="evenodd" d="M594.166 578.793C526.875 603.742 460.734 704.493 401.915 663.372C340.56 620.478 433.648 512.016 401.765 444.283C368.611 373.85 227.929 373.702 228.923 295.862C229.834 224.489 344.209 220.861 405.093 183.602C451.773 155.036 491.234 118.998 543.65 103.261C606.667 84.3421 675.195 57.6724 735.286 84.4689C796.984 111.982 828.681 179.674 854.756 241.993C880.297 303.037 907.067 372.79 881.451 433.802C856.675 492.813 785.844 513.373 728.708 542.209C686.176 563.675 638.836 562.231 594.166 578.793Z" fill="#E2E5FF"/>
<path d="M720.324 187.442C715.393 187.442 711.381 192.231 711.381 198.116C711.381 204.003 715.393 208.791 720.324 208.791H774.914C779.845 208.791 783.857 204.003 783.857 198.117C783.857 192.374 779.945 187.589 775.135 187.449C774.914 187.443 774.707 187.325 774.567 187.125C774.426 186.926 774.363 186.663 774.395 186.404C774.466 185.795 774.504 185.184 774.504 184.587C774.504 177.632 769.762 171.973 763.933 171.973C762.946 171.973 761.959 172.14 761.003 172.468C760.627 172.597 760.225 172.364 760.079 171.927C758.038 165.791 753.148 161.827 747.617 161.827C741.051 161.827 735.354 167.661 734.367 175.397C734.335 175.65 734.215 175.875 734.037 176.018C733.859 176.161 733.641 176.209 733.431 176.149C732.742 175.953 732.039 175.853 731.342 175.853C726.408 175.853 722.396 180.642 722.396 186.528C722.396 187.033 722.054 187.442 721.63 187.442H720.324ZM774.914 210.621H720.324C714.546 210.621 709.845 205.012 709.845 198.117C709.845 191.222 714.546 185.613 720.324 185.613H720.892C721.285 179.143 725.823 174.023 731.342 174.023C731.893 174.023 732.447 174.076 732.995 174.18C734.418 166.03 740.569 159.997 747.617 159.997C753.553 159.997 758.828 164.095 761.241 170.507C762.125 170.265 763.029 170.143 763.933 170.143C770.609 170.143 776.039 176.623 776.039 184.587C776.039 184.95 776.025 185.316 776.002 185.684C781.251 186.343 785.39 191.723 785.39 198.116C785.39 205.012 780.691 210.621 774.914 210.621Z" fill="#F0F2F7"/>
<path d="M119.562 377.308C114.629 377.308 110.617 382.097 110.617 387.981C110.617 393.868 114.629 398.656 119.562 398.656H174.149C179.082 398.656 183.094 393.868 183.094 387.981C183.094 382.237 179.181 377.452 174.371 377.315C174.152 377.308 173.945 377.189 173.804 376.99C173.662 376.791 173.599 376.527 173.631 376.267C173.704 375.661 173.742 375.048 173.742 374.452C173.742 367.496 169 361.838 163.172 361.838C162.182 361.838 161.196 362.005 160.241 362.334C159.862 362.464 159.461 362.228 159.316 361.793C157.275 355.655 152.384 351.689 146.856 351.689C140.287 351.689 134.59 357.525 133.604 365.263C133.572 365.516 133.452 365.739 133.274 365.883C133.096 366.026 132.876 366.071 132.668 366.013C131.981 365.817 131.277 365.718 130.578 365.718C125.645 365.718 121.633 370.506 121.633 376.39C121.633 376.897 121.289 377.308 120.866 377.308H119.562ZM174.149 400.485H119.562C113.784 400.485 109.083 394.875 109.083 387.981C109.083 381.086 113.784 375.476 119.562 375.476H120.128C120.521 369.006 125.058 363.889 130.578 363.889C131.129 363.889 131.683 363.941 132.231 364.043C133.655 355.895 139.805 349.86 146.856 349.86C152.79 349.86 158.064 353.96 160.477 360.372C161.361 360.129 162.265 360.009 163.172 360.009C169.845 360.009 175.275 366.489 175.275 374.452C175.275 374.815 175.263 375.181 175.239 375.548C180.487 376.205 184.627 381.586 184.627 387.981C184.627 394.875 179.927 400.485 174.149 400.485Z" fill="#F0F2F7"/>
<path d="M738.578 344.517C735.656 344.517 733.277 347.357 733.277 350.843C733.277 354.333 735.656 357.173 738.578 357.173H772.696C775.621 357.173 778 354.333 778 350.843C778 347.439 775.678 344.603 772.828 344.521C772.607 344.514 772.401 344.397 772.26 344.195C772.119 343.997 772.056 343.733 772.088 343.473C772.131 343.113 772.154 342.747 772.154 342.389C772.154 338.231 769.318 334.848 765.834 334.848C765.243 334.848 764.655 334.947 764.083 335.144C763.702 335.275 763.303 335.04 763.156 334.602C761.925 330.899 758.975 328.506 755.637 328.506C751.674 328.506 748.235 332.027 747.641 336.697C747.607 336.95 747.489 337.175 747.311 337.318C747.133 337.461 746.912 337.509 746.703 337.448C746.295 337.332 745.879 337.273 745.463 337.273C742.541 337.273 740.162 340.112 740.162 343.603C740.162 344.106 739.818 344.517 739.396 344.517H738.578ZM772.696 359.002H738.578C734.809 359.002 731.744 355.344 731.744 350.843C731.744 346.346 734.809 342.685 738.578 342.685H738.67C739.051 338.617 741.953 335.443 745.463 335.443C745.735 335.443 746.005 335.462 746.275 335.501C747.294 330.41 751.186 326.677 755.637 326.677C759.382 326.677 762.72 329.21 764.316 333.196C764.815 333.078 765.326 333.018 765.834 333.018C770.165 333.018 773.686 337.222 773.686 342.389C773.686 342.517 773.684 342.644 773.681 342.774C776.973 343.353 779.533 346.785 779.533 350.843C779.533 355.344 776.468 359.002 772.696 359.002Z" fill="#F0F2F7"/>
<path d="M113.334 167.02C110.411 167.02 108.032 169.859 108.032 173.348C108.032 176.838 110.411 179.677 113.334 179.677H147.452C150.376 179.677 152.755 176.838 152.755 173.348C152.755 169.944 150.435 167.107 147.584 167.024C147.365 167.018 147.158 166.9 147.017 166.7C146.876 166.5 146.812 166.238 146.844 165.979C146.887 165.615 146.909 165.25 146.909 164.893C146.909 160.734 144.075 157.351 140.59 157.351C140 157.351 139.41 157.451 138.838 157.648C138.458 157.78 138.059 157.543 137.913 157.106C136.682 153.403 133.73 151.01 130.393 151.01C126.429 151.01 122.99 154.531 122.396 159.2C122.363 159.453 122.243 159.678 122.066 159.821C121.888 159.964 121.669 160.012 121.46 159.952C121.051 159.835 120.634 159.776 120.22 159.776C117.296 159.776 114.917 162.616 114.917 166.105C114.917 166.611 114.574 167.02 114.15 167.02H113.334ZM147.452 181.506H113.334C109.565 181.506 106.498 177.847 106.498 173.348C106.498 168.85 109.565 165.19 113.334 165.19H113.427C113.809 161.12 116.709 157.947 120.22 157.947C120.49 157.947 120.76 157.966 121.03 158.005C122.048 152.913 125.941 149.18 130.393 149.18C134.138 149.18 137.476 151.714 139.071 155.699C139.572 155.581 140.081 155.522 140.59 155.522C144.92 155.522 148.443 159.725 148.443 164.893C148.443 165.019 148.441 165.147 148.436 165.275C151.777 165.838 154.288 169.215 154.288 173.348C154.288 177.847 151.222 181.506 147.452 181.506Z" fill="#F0F2F7"/>
<path d="M683.336 150.095V488.546C683.336 495.218 678.801 500.633 673.204 500.633H187.023C181.432 500.633 176.895 495.218 176.895 488.546V150.095H683.336Z" fill="#F0F2F7"/>
<path d="M257.927 198.173H207.283C204.486 198.173 202.219 195.467 202.219 192.129V180.042C202.219 176.704 204.486 173.998 207.283 173.998H257.927C260.724 173.998 262.991 176.704 262.991 180.042V192.129C262.991 195.467 260.724 198.173 257.927 198.173Z" fill="#556EE6"/>
<path d="M287.806 427.502H207.283C204.486 427.502 202.219 424.796 202.219 421.456C202.219 418.121 204.486 415.415 207.283 415.415H287.806C290.605 415.415 292.872 418.121 292.872 421.456C292.872 424.796 290.605 427.502 287.806 427.502Z" fill="white"/>
<path d="M654.228 427.502H611.155C609.066 427.502 607.37 425.481 607.37 422.984V419.933C607.37 417.436 609.066 415.415 611.155 415.415H654.228C656.32 415.415 658.014 417.436 658.014 419.933V422.984C658.014 425.481 656.32 427.502 654.228 427.502Z" fill="white"/>
<path d="M597.242 198.444H561.791C558.993 198.444 556.726 195.738 556.726 192.4V180.312C556.726 176.974 558.993 174.269 561.791 174.269H597.242C600.04 174.269 602.307 176.974 602.307 180.312V192.4C602.307 195.738 600.04 198.444 597.242 198.444Z" fill="white"/>
<path d="M652.951 198.444H617.5C614.702 198.444 612.435 195.738 612.435 192.4V180.312C612.435 176.974 614.702 174.269 617.5 174.269H652.951C655.746 174.269 658.013 176.974 658.013 180.312V192.4C658.013 195.738 655.746 198.444 652.951 198.444Z" fill="#6B21A8"/>
<path d="M536.469 198.173H283.249C280.452 198.173 278.185 195.467 278.185 192.129V180.042C278.185 176.704 280.452 173.998 283.249 173.998H536.469C539.267 173.998 541.535 176.704 541.535 180.042V192.129C541.535 195.467 539.267 198.173 536.469 198.173Z" fill="white"/>
<path d="M349.087 475.852H207.283C204.486 475.852 202.219 473.147 202.219 469.807V451.675C202.219 448.339 204.486 445.634 207.283 445.634H349.087C351.882 445.634 354.149 448.339 354.149 451.675V469.807C354.149 473.147 351.882 475.852 349.087 475.852Z" fill="white"/>
<path d="M341.49 465.276H232.605C230.508 465.276 228.807 463.245 228.807 460.741C228.807 458.238 230.508 456.21 232.605 456.21H341.49C343.588 456.21 345.287 458.238 345.287 460.741C345.287 463.245 343.588 465.276 341.49 465.276Z" fill="#D7D7FF"/>
<path d="M223.742 460.741C223.742 464.917 220.908 468.297 217.412 468.297C213.916 468.297 211.082 464.917 211.082 460.741C211.082 456.57 213.916 453.189 217.412 453.189C220.908 453.189 223.742 456.57 223.742 460.741Z" fill="#B3B3FF"/>
<path d="M516.213 475.852H374.409C371.611 475.852 369.343 473.147 369.343 469.807V451.675C369.343 448.339 371.611 445.634 374.409 445.634H516.213C519.008 445.634 521.275 448.339 521.275 451.675V469.807C521.275 473.147 519.008 475.852 516.213 475.852Z" fill="white"/>
<path d="M508.616 465.276H399.731C397.633 465.276 395.931 463.245 395.931 460.741C395.931 458.238 397.633 456.21 399.731 456.21H508.616C510.714 456.21 512.413 458.238 512.413 460.741C512.413 463.245 510.714 465.276 508.616 465.276Z" fill="#D7D7FF"/>
<path d="M390.868 460.741C390.868 464.917 388.032 468.297 384.537 468.297C381.041 468.297 378.206 464.917 378.206 460.741C378.206 456.57 381.041 453.189 384.537 453.189C388.032 453.189 390.868 456.57 390.868 460.741Z" fill="#B3B3FF"/>
<path d="M683.335 445.634V475.852H541.532C538.736 475.852 536.466 473.147 536.466 469.811V451.679C536.466 448.343 538.736 445.634 541.532 445.634H683.335Z" fill="white"/>
<path d="M675.868 465.276H566.728C564.702 465.276 563.057 463.314 563.057 460.896V460.591C563.057 458.169 564.702 456.21 566.728 456.21H675.868C677.894 456.21 679.539 458.169 679.539 460.591V460.896C679.539 463.314 677.894 465.276 675.868 465.276Z" fill="#D7D7FF"/>
<path d="M557.994 460.741C557.994 464.917 555.159 468.297 551.663 468.297C548.167 468.297 545.332 464.917 545.332 460.741C545.332 456.57 548.167 453.189 551.663 453.189C555.159 453.189 557.994 456.57 557.994 460.741Z" fill="#B3B3FF"/>
<path d="M673.207 119.875H187.025C181.431 119.875 176.897 125.287 176.897 131.962V150.094H683.336V131.962C683.336 125.287 678.801 119.875 673.207 119.875Z" fill="url(#paint0_linear)"/>
<path d="M249.882 326.127H151.573V234.878C151.573 231.278 154.018 228.36 157.034 228.36H244.42C247.436 228.36 249.882 231.278 249.882 234.878V326.127Z" fill="#D7D7FF"/>
<path d="M244.42 391.306H157.034C154.018 391.306 151.573 388.385 151.573 384.785V326.127H249.882V384.785C249.882 388.385 247.436 391.306 244.42 391.306Z" fill="white"/>
<path d="M238.958 342.421H162.495C160.987 342.421 159.765 340.962 159.765 339.162C159.765 337.363 160.987 335.904 162.495 335.904H238.958C240.466 335.904 241.689 337.363 241.689 339.162C241.689 340.962 240.466 342.421 238.958 342.421Z" fill="#B3B3FF"/>
<path d="M222.573 355.457H162.495C160.987 355.457 159.765 353.998 159.765 352.2C159.765 350.398 160.987 348.939 162.495 348.939H222.573C224.081 348.939 225.304 350.398 225.304 352.2C225.304 353.998 224.081 355.457 222.573 355.457Z" fill="#D7D7FF"/>
<path d="M200.726 368.492H162.495C160.987 368.492 159.765 367.033 159.765 365.235C159.765 363.434 160.987 361.975 162.495 361.975H200.726C202.235 361.975 203.457 363.434 203.457 365.235C203.457 367.033 202.235 368.492 200.726 368.492Z" fill="#556EE6"/>
<path d="M163.515 375.175L164.443 377.319L166.519 377.665L165.017 379.333L165.371 381.692L163.515 380.576L161.658 381.692L162.013 379.333L160.511 377.665L162.587 377.319L163.515 375.175Z" fill="#FFC800"/>
<path d="M173.619 375.175L174.547 377.319L176.623 377.665L175.121 379.333L175.476 381.692L173.619 380.576L171.762 381.692L172.117 379.333L170.615 377.665L172.691 377.319L173.619 375.175Z" fill="#FFC800"/>
<path d="M183.723 375.175L184.651 377.319L186.727 377.665L185.225 379.333L185.58 381.692L183.723 380.576L181.867 381.692L182.221 379.333L180.719 377.665L182.795 377.319L183.723 375.175Z" fill="#FFC800"/>
<path d="M193.827 375.175L194.755 377.319L196.831 377.665L195.329 379.333L195.683 381.692L193.827 380.576L191.97 381.692L192.325 379.333L190.823 377.665L192.898 377.319L193.827 375.175Z" fill="#FFC800"/>
<path d="M204.16 380.031C204.088 379.99 204.009 379.966 203.931 379.966C203.852 379.966 203.773 379.99 203.701 380.031L202.758 380.6L202.932 379.442C202.963 379.237 202.904 379.028 202.777 378.887L202.061 378.089L203.073 377.922C203.237 377.894 203.381 377.774 203.457 377.6L203.931 376.504L204.405 377.6C204.481 377.774 204.624 377.894 204.789 377.922L205.8 378.089L205.084 378.887C204.957 379.028 204.899 379.237 204.93 379.442L205.104 380.6L204.16 380.031ZM206.935 377.665L204.859 377.319L203.931 375.175L203.003 377.319L200.927 377.665L202.429 379.333L202.074 381.692L203.931 380.576L205.787 381.692L205.433 379.333L206.935 377.665Z" fill="#FFC800"/>
<path d="M200.768 246.935H211.773L212.801 307.552H207.722L204.721 280.762L200.768 255.667V246.935Z" fill="white"/>
<path d="M200.768 246.935H189.762L188.734 307.552H193.814L196.815 280.762L200.768 255.667V246.935Z" fill="white"/>
<path d="M211.774 245.463H189.762C189.421 245.463 189.145 245.792 189.145 246.199C189.145 246.606 189.421 246.935 189.762 246.935H211.774C212.114 246.935 212.39 246.606 212.39 246.199C212.39 245.792 212.114 245.463 211.774 245.463Z" fill="#B3B3FF"/>
<path d="M193.771 307.552H188.683C188.342 307.552 188.066 307.882 188.066 308.288C188.066 308.695 188.342 309.024 188.683 309.024H193.771C194.112 309.024 194.388 308.695 194.388 308.288C194.388 307.882 194.112 307.552 193.771 307.552Z" fill="#B3B3FF"/>
<path d="M212.771 307.552H207.682C207.342 307.552 207.065 307.882 207.065 308.288C207.065 308.695 207.342 309.024 207.682 309.024H212.771C213.112 309.024 213.388 308.695 213.388 308.288C213.388 307.882 213.112 307.552 212.771 307.552Z" fill="#B3B3FF"/>
<path d="M364.576 326.127H266.266V234.878C266.266 231.278 268.711 228.36 271.728 228.36H359.114C362.131 228.36 364.576 231.278 364.576 234.878V326.127Z" fill="#D7D7FF"/>
<path d="M359.114 391.306H271.728C268.711 391.306 266.266 388.385 266.266 384.785V326.127H364.576V384.785C364.576 388.385 362.131 391.306 359.114 391.306Z" fill="white"/>
<path d="M353.653 342.421H277.189C275.681 342.421 274.458 340.962 274.458 339.162C274.458 337.363 275.681 335.904 277.189 335.904H353.653C355.16 335.904 356.382 337.363 356.382 339.162C356.382 340.962 355.16 342.421 353.653 342.421Z" fill="#B3B3FF"/>
<path d="M348.191 355.457H277.189C275.681 355.457 274.458 353.998 274.458 352.2C274.458 350.398 275.681 348.939 277.189 348.939H348.191C349.698 348.939 350.921 350.398 350.921 352.2C350.921 353.998 349.698 355.457 348.191 355.457Z" fill="#D7D7FF"/>
<path d="M315.422 368.492H277.189C275.681 368.492 274.458 367.033 274.458 365.235C274.458 363.434 275.681 361.975 277.189 361.975H315.422C316.928 361.975 318.151 363.434 318.151 365.235C318.151 367.033 316.928 368.492 315.422 368.492Z" fill="#556EE6"/>
<path d="M278.209 375.175L279.137 377.319L281.212 377.665L279.711 379.333L280.065 381.692L278.209 380.576L276.352 381.692L276.707 379.333L275.205 377.665L277.28 377.319L278.209 375.175Z" fill="#FFC800"/>
<path d="M288.312 375.175L289.241 377.319L291.316 377.665L289.816 379.333L290.169 381.692L288.312 380.576L286.456 381.692L286.811 379.333L285.309 377.665L287.385 377.319L288.312 375.175Z" fill="#FFC800"/>
<path d="M298.417 375.175L299.344 377.319L301.422 377.665L299.918 379.333L300.274 381.692L298.417 380.576L296.56 381.692L296.916 379.333L295.412 377.665L297.487 377.319L298.417 375.175Z" fill="#FFC800"/>
<path d="M308.749 380.031L308.519 379.894L308.29 380.031L307.348 380.6L307.521 379.442L307.572 379.113L307.366 378.887L306.651 378.089L307.664 377.922L307.925 377.88L308.046 377.6L308.519 376.504L308.996 377.6L309.116 377.88L309.378 377.922L310.391 378.089L309.673 378.887L309.469 379.113L309.518 379.442L309.693 380.6L308.749 380.031ZM311.524 377.665L309.449 377.319L308.519 375.175L307.592 377.319L305.517 377.665L307.018 379.333L306.665 381.692L308.519 380.576L310.376 381.692L310.023 379.333L311.524 377.665Z" fill="#FFC800"/>
<path d="M318.854 380.031L318.625 379.894L318.395 380.031L317.451 380.6L317.626 379.442L317.675 379.113L317.471 378.887L316.756 378.089L317.766 377.922L318.028 377.88L318.151 377.6L318.625 376.504L319.098 377.6L319.221 377.88L319.483 377.922L320.493 378.089L319.778 378.887L319.574 379.113L319.623 379.442L319.798 380.6L318.854 380.031ZM321.629 377.665L319.551 377.319L318.625 375.175L317.697 377.319L315.62 377.665L317.123 379.333L316.768 381.692L318.625 380.576L320.481 381.692L320.125 379.333L321.629 377.665Z" fill="#FFC800"/>
<path d="M347.574 267.333L344.173 271.389C343.108 272.66 341.378 272.66 340.313 271.388L334.461 264.403C334.461 264.403 331.927 273.459 331.927 283.582C331.927 293.705 334.461 304.181 334.461 304.181C334.461 305.981 333.239 307.44 331.729 307.44H299.14C297.63 307.44 296.408 305.981 296.408 304.181C296.408 304.181 298.942 291.439 298.942 282.827C298.942 274.214 296.408 264.364 296.408 264.364L290.524 271.387C289.457 272.66 287.729 272.66 286.663 271.387L283.266 267.334C282.2 266.061 282.2 263.998 283.266 262.725L290.433 254.175C294.258 249.611 299.447 247.047 304.857 247.047H325.986C331.399 247.047 336.588 249.612 340.414 254.178L347.574 262.724C348.642 263.997 348.642 266.061 347.574 267.333Z" fill="white"/>
<path d="M307.245 247.047C307.245 252.443 310.91 256.823 315.436 256.823C319.959 256.823 323.63 252.443 323.63 247.047H307.245Z" fill="#D7D7FF"/>
<path d="M321.997 247.047C321.997 251.368 319.058 254.874 315.436 254.874C311.811 254.874 308.878 251.368 308.878 247.047H321.997Z" fill="white"/>
<path d="M479.27 326.127H380.961V234.878C380.961 231.278 383.406 228.36 386.422 228.36H473.808C476.825 228.36 479.27 231.278 479.27 234.878V326.127Z" fill="#D7D7FF"/>
<path d="M473.808 391.306H386.422C383.406 391.306 380.961 388.385 380.961 384.785V326.127H479.27V384.785C479.27 388.385 476.825 391.306 473.808 391.306Z" fill="white"/>
<path d="M468.347 342.421H391.884C390.374 342.421 389.152 340.962 389.152 339.162C389.152 337.363 390.374 335.904 391.884 335.904H468.347C469.853 335.904 471.076 337.363 471.076 339.162C471.076 340.962 469.853 342.421 468.347 342.421Z" fill="#B3B3FF"/>
<path d="M446.5 355.457H391.884C390.374 355.457 389.152 353.998 389.152 352.2C389.152 350.398 390.374 348.939 391.884 348.939H446.5C448.007 348.939 449.23 350.398 449.23 352.2C449.23 353.998 448.007 355.457 446.5 355.457Z" fill="#D7D7FF"/>
<path d="M430.115 368.492H391.884C390.374 368.492 389.152 367.033 389.152 365.235C389.152 363.434 390.374 361.975 391.884 361.975H430.115C431.622 361.975 432.845 363.434 432.845 365.235C432.845 367.033 431.622 368.492 430.115 368.492Z" fill="#556EE6"/>
<path d="M392.903 375.175L393.83 377.319L395.905 377.665L394.404 379.333L394.76 381.692L392.903 380.576L391.046 381.692L391.399 379.333L389.898 377.665L391.973 377.319L392.903 375.175Z" fill="#FFC800"/>
<path d="M403.006 375.175L403.936 377.319L406.011 377.665L404.51 379.333L404.863 381.692L403.006 380.576L401.149 381.692L401.505 379.333L400.004 377.665L402.079 377.319L403.006 375.175Z" fill="#FFC800"/>
<path d="M413.111 375.175L414.038 377.319L416.115 377.665L414.611 379.333L414.967 381.692L413.111 380.576L411.254 381.692L411.61 379.333L410.106 377.665L412.181 377.319L413.111 375.175Z" fill="#FFC800"/>
<path d="M423.213 375.175L424.143 377.319L426.218 377.665L424.717 379.333L425.07 381.692L423.213 380.576L421.359 381.692L421.712 379.333L420.211 377.665L422.286 377.319L423.213 375.175Z" fill="#FFC800"/>
<path d="M433.548 380.031L433.318 379.894L433.089 380.031L432.144 380.6L432.32 379.442L432.368 379.113L432.165 378.887L431.45 378.089L432.46 377.922L432.721 377.88L432.845 377.6L433.318 376.504L433.792 377.6L433.912 377.88L434.176 377.922L435.187 378.089L434.472 378.887L434.268 379.113L434.317 379.442L434.492 380.6L433.548 380.031ZM436.323 377.665L434.245 377.319L433.318 375.175L432.389 377.319L430.313 377.665L431.817 379.333L431.461 381.692L433.318 380.576L435.175 381.692L434.819 379.333L436.323 377.665Z" fill="#FFC800"/>
<path d="M413.162 253.069H447.065V258.889H413.162V253.069Z" fill="#B3B3FF"/>
<path d="M460.233 296.183C460.233 296.183 459.157 296.655 457.157 297.307C453.939 298.371 448.343 299.918 441.036 300.777C438.883 301.03 436.579 301.224 434.148 301.332C432.842 301.387 431.493 301.417 430.116 301.417C416.001 301.417 405.586 298.232 401.685 296.83C400.58 296.437 399.998 296.183 399.998 296.183L400.916 293.18L406.34 275.417L408.654 267.826L413.162 253.067C413.162 253.067 420.843 257.189 430.5 257.189C440.161 257.189 447.066 253.067 447.066 253.067L449.514 261.081L451.078 266.194L459.263 292.992L460.233 296.183Z" fill="#F0F2F7"/>
<path d="M418.595 263.889C418.595 265.447 417.536 266.71 416.23 266.71C414.927 266.71 413.868 265.447 413.868 263.889C413.868 262.332 414.927 261.069 416.23 261.069C417.536 261.069 418.595 262.332 418.595 263.889Z" fill="#D7D7FF"/>
<path d="M460.233 296.184C460.233 296.184 459.157 296.655 457.157 297.308C456.921 296.872 456.792 296.358 456.792 295.809C456.792 294.249 457.848 292.986 459.151 292.986C459.186 292.986 459.226 292.986 459.263 292.992L460.233 296.184Z" fill="#B3B3FF"/>
<path d="M451.078 266.194C450.699 266.521 450.228 266.708 449.72 266.708C448.414 266.708 447.355 265.445 447.355 263.891C447.355 262.417 448.302 261.202 449.514 261.081L451.078 266.194Z" fill="#B3B3FF"/>
<path d="M437.348 270.646C437.348 272.204 436.289 273.467 434.983 273.467C433.677 273.467 432.621 272.204 432.621 270.646C432.621 269.089 433.677 267.826 434.983 267.826C436.289 267.826 437.348 269.089 437.348 270.646Z" fill="#D7D7FF"/>
<path d="M417.889 292.396C417.889 293.953 416.83 295.216 415.524 295.216C414.221 295.216 413.162 293.953 413.162 292.396C413.162 290.838 414.221 289.576 415.524 289.576C416.83 289.576 417.889 290.838 417.889 292.396Z" fill="#D7D7FF"/>
<path d="M443.71 287.939C443.71 289.497 442.651 290.759 441.345 290.759C440.043 290.759 438.984 289.497 438.984 287.939C438.984 286.381 440.043 285.118 441.345 285.118C442.651 285.118 443.71 286.381 443.71 287.939Z" fill="#D7D7FF"/>
<path d="M441.036 300.777C438.883 301.03 436.579 301.224 434.148 301.333C434.133 301.206 434.128 301.085 434.128 300.958C434.128 298.679 435.678 296.83 437.586 296.83C439.446 296.83 440.964 298.583 441.036 300.777Z" fill="#B3B3FF"/>
<path d="M411.196 271.749C411.196 273.991 409.672 275.81 407.793 275.81C407.27 275.81 406.779 275.671 406.34 275.417L408.654 267.826C410.117 268.273 411.196 269.863 411.196 271.749Z" fill="#B3B3FF"/>
<path d="M418.862 278.352C418.862 279.496 418.084 280.424 417.126 280.424C416.164 280.424 415.386 279.496 415.386 278.352C415.386 277.207 416.164 276.279 417.126 276.279C418.084 276.279 418.862 277.207 418.862 278.352Z" fill="#D7D7FF"/>
<path d="M451.457 287.242C451.457 288.387 450.679 289.314 449.72 289.314C448.762 289.314 447.984 288.387 447.984 287.242C447.984 286.097 448.762 285.169 449.72 285.169C450.679 285.169 451.457 286.097 451.457 287.242Z" fill="#D7D7FF"/>
<path d="M435.695 280.424C435.695 281.569 434.917 282.497 433.958 282.497C433 282.497 432.222 281.569 432.222 280.424C432.222 279.28 433 278.352 433.958 278.352C434.917 278.352 435.695 279.28 435.695 280.424Z" fill="#B3B3FF"/>
<path d="M402.334 295.216C402.334 295.869 402.081 296.455 401.685 296.83C400.58 296.437 399.998 296.183 399.998 296.183L400.916 293.18C401.725 293.361 402.334 294.207 402.334 295.216Z" fill="#B3B3FF"/>
<path d="M451.775 277.791C451.775 278.936 450.997 279.864 450.039 279.864C449.08 279.864 448.302 278.936 448.302 277.791C448.302 276.647 449.08 275.719 450.039 275.719C450.997 275.719 451.775 276.647 451.775 277.791Z" fill="#B3B3FF"/>
<path d="M428.101 286.453C428.101 287.598 427.323 288.526 426.364 288.526C425.406 288.526 424.628 287.598 424.628 286.453C424.628 285.308 425.406 284.381 426.364 284.381C427.323 284.381 428.101 285.308 428.101 286.453Z" fill="#D7D7FF"/>
<path d="M425.119 266.697C425.119 267.638 424.479 268.401 423.692 268.401C422.903 268.401 422.263 267.638 422.263 266.697C422.263 265.756 422.903 264.993 423.692 264.993C424.479 264.993 425.119 265.756 425.119 266.697Z" fill="#B3B3FF"/>
<path d="M409.81 285.538C409.81 286.479 409.17 287.242 408.381 287.242C407.595 287.242 406.955 286.479 406.955 285.538C406.955 284.597 407.595 283.834 408.381 283.834C409.17 283.834 409.81 284.597 409.81 285.538Z" fill="#B3B3FF"/>
<path d="M427.343 295.216C427.343 296.157 426.703 296.92 425.914 296.92C425.124 296.92 424.487 296.157 424.487 295.216C424.487 294.275 425.124 293.513 425.914 293.513C426.703 293.513 427.343 294.275 427.343 295.216Z" fill="#B3B3FF"/>
<path d="M448.785 294.691C448.785 295.632 448.145 296.395 447.356 296.395C446.569 296.395 445.929 295.632 445.929 294.691C445.929 293.75 446.569 292.987 447.356 292.987C448.145 292.987 448.785 293.75 448.785 294.691Z" fill="#B3B3FF"/>
<path d="M441.839 262.397C441.839 263.338 441.199 264.101 440.41 264.101C439.624 264.101 438.984 263.338 438.984 262.397C438.984 261.456 439.624 260.694 440.41 260.694C441.199 260.694 441.839 261.456 441.839 262.397Z" fill="#B3B3FF"/>
<path d="M432.222 262.843C432.222 263.538 431.752 264.101 431.169 264.101C430.586 264.101 430.116 263.538 430.116 262.843C430.116 262.149 430.586 261.585 431.169 261.585C431.752 261.585 432.222 262.149 432.222 262.843Z" fill="#D7D7FF"/>
<path d="M426.97 276.279C426.97 276.974 426.497 277.537 425.914 277.537C425.331 277.537 424.861 276.974 424.861 276.279C424.861 275.584 425.331 275.021 425.914 275.021C426.497 275.021 426.97 275.584 426.97 276.279Z" fill="#D7D7FF"/>
<path d="M434.728 290.18C434.728 290.875 434.257 291.438 433.674 291.438C433.092 291.438 432.621 290.875 432.621 290.18C432.621 289.485 433.092 288.922 433.674 288.922C434.257 288.922 434.728 289.485 434.728 290.18Z" fill="#D7D7FF"/>
<path d="M443.946 275.021C443.946 275.716 443.476 276.279 442.893 276.279C442.31 276.279 441.84 275.716 441.84 275.021C441.84 274.327 442.31 273.764 442.893 273.764C443.476 273.764 443.946 274.327 443.946 275.021Z" fill="#D7D7FF"/>
<path d="M593.964 326.127H495.655V234.878C495.655 231.278 498.1 228.36 501.116 228.36H588.502C591.519 228.36 593.964 231.278 593.964 234.878V326.127Z" fill="#D7D7FF"/>
<path d="M588.502 391.306H501.116C498.1 391.306 495.655 388.385 495.655 384.785V326.127H593.964V384.785C593.964 388.385 591.519 391.306 588.502 391.306Z" fill="white"/>
<path d="M583.041 342.421H506.578C505.068 342.421 503.846 340.962 503.846 339.162C503.846 337.363 505.068 335.904 506.578 335.904H583.041C584.548 335.904 585.77 337.363 585.77 339.162C585.77 340.962 584.548 342.421 583.041 342.421Z" fill="#B3B3FF"/>
<path d="M572.117 355.457H506.578C505.068 355.457 503.846 353.998 503.846 352.2C503.846 350.398 505.068 348.939 506.578 348.939H572.117C573.624 348.939 574.847 350.398 574.847 352.2C574.847 353.998 573.624 355.457 572.117 355.457Z" fill="#D7D7FF"/>
<path d="M544.809 368.492H506.578C505.068 368.492 503.846 367.033 503.846 365.235C503.846 363.434 505.068 361.975 506.578 361.975H544.809C546.316 361.975 547.539 363.434 547.539 365.235C547.539 367.033 546.316 368.492 544.809 368.492Z" fill="#556EE6"/>
<path d="M507.597 375.175L508.524 377.319L510.599 377.665L509.098 379.333L509.453 381.692L507.597 380.576L505.74 381.692L506.093 379.333L504.592 377.665L506.667 377.319L507.597 375.175Z" fill="#FFC800"/>
<path d="M517.699 375.175L518.629 377.319L520.704 377.665L519.203 379.333L519.556 381.692L517.699 380.576L515.842 381.692L516.198 379.333L514.697 377.665L516.772 377.319L517.699 375.175Z" fill="#FFC800"/>
<path d="M527.805 375.175L528.732 377.319L530.807 377.665L529.306 379.333L529.662 381.692L527.805 380.576L525.948 381.692L526.301 379.333L524.8 377.665L526.875 377.319L527.805 375.175Z" fill="#FFC800"/>
<path d="M537.907 375.175L538.837 377.319L540.912 377.665L539.411 379.333L539.764 381.692L537.907 380.576L536.053 381.692L536.406 379.333L534.905 377.665L536.98 377.319L537.907 375.175Z" fill="#FFC800"/>
<path d="M548.242 380.031L548.012 379.894L547.782 380.031L546.838 380.6L547.013 379.442L547.062 379.113L546.858 378.887L546.144 378.089L547.154 377.922L547.415 377.88L547.538 377.6L548.012 376.504L548.486 377.6L548.606 377.88L548.87 377.922L549.88 378.089L549.166 378.887L548.962 379.113L549.011 379.442L549.186 380.6L548.242 380.031ZM551.017 377.665L548.939 377.319L548.012 375.175L547.082 377.319L545.007 377.665L546.511 379.333L546.155 381.692L548.012 380.576L549.869 381.692L549.513 379.333L551.017 377.665Z" fill="#FFC800"/>
<path d="M544.809 254.594C539.615 254.594 535.39 259.636 535.39 265.833C535.39 272.031 539.615 277.073 544.809 277.073C550.001 277.073 554.226 272.031 554.226 265.833C554.226 259.636 550.001 254.594 544.809 254.594ZM544.809 280.122C538.206 280.122 532.836 273.712 532.836 265.833C532.836 257.954 538.206 251.544 544.809 251.544C551.41 251.544 556.783 257.954 556.783 265.833C556.783 273.712 551.41 280.122 544.809 280.122Z" fill="#B3B3FF"/>
<path d="M561.352 301.419H528.264C523.414 301.419 519.855 295.979 521.031 290.364L525.465 269.202C525.879 267.222 527.371 265.833 529.082 265.833H560.534C562.245 265.833 563.737 267.222 564.15 269.202L568.584 290.364C569.761 295.979 566.202 301.419 561.352 301.419Z" fill="white"/>
<path d="M549.872 278.204L549.878 278.208C551.276 279.876 551.27 282.581 549.872 284.249L544.804 290.298L539.738 284.253C538.34 282.585 538.346 279.88 539.744 278.212L539.747 278.208C541.144 276.541 543.406 276.541 544.804 278.208L544.809 278.204C546.204 276.537 548.477 276.537 549.872 278.204Z" fill="#E83D6A"/>
<path d="M708.654 326.127H610.349V233.461C610.349 230.644 612.26 228.36 614.622 228.36H704.381C706.743 228.36 708.654 230.644 708.654 233.461V326.127Z" fill="#D7D7FF"/>
<path d="M704.381 391.306H614.622C612.26 391.306 610.349 389.022 610.349 386.203V326.127H708.654V386.203C708.654 389.022 706.743 391.306 704.381 391.306Z" fill="white"/>
<path d="M697.734 342.421H621.272C619.762 342.421 618.54 340.962 618.54 339.162C618.54 337.363 619.762 335.904 621.272 335.904H697.734C699.241 335.904 700.464 337.363 700.464 339.162C700.464 340.962 699.241 342.421 697.734 342.421Z" fill="#B3B3FF"/>
<path d="M697.734 355.457H621.272C619.762 355.457 618.54 353.998 618.54 352.2C618.54 350.398 619.762 348.939 621.272 348.939H697.734C699.241 348.939 700.464 350.398 700.464 352.2C700.464 353.998 699.241 355.457 697.734 355.457Z" fill="#D7D7FF"/>
<path d="M659.503 368.492H621.272C619.762 368.492 618.54 367.033 618.54 365.235C618.54 363.434 619.762 361.975 621.272 361.975H659.503C661.01 361.975 662.233 363.434 662.233 365.235C662.233 367.033 661.01 368.492 659.503 368.492Z" fill="#556EE6"/>
<path d="M622.291 375.175L623.218 377.319L625.293 377.665L623.792 379.333L624.148 381.692L622.291 380.576L620.434 381.692L620.787 379.333L619.286 377.665L621.361 377.319L622.291 375.175Z" fill="#FFC800"/>
<path d="M632.393 375.175L633.323 377.319L635.398 377.665L633.897 379.333L634.25 381.692L632.393 380.576L630.536 381.692L630.892 379.333L629.391 377.665L631.466 377.319L632.393 375.175Z" fill="#FFC800"/>
<path d="M642.498 375.175L643.425 377.319L645.5 377.665L643.999 379.333L644.355 381.692L642.498 380.576L640.641 381.692L640.994 379.333L639.493 377.665L641.568 377.319L642.498 375.175Z" fill="#FFC800"/>
<path d="M652.601 375.175L653.531 377.319L655.606 377.665L654.105 379.333L654.458 381.692L652.601 380.576L650.744 381.692L651.1 379.333L649.599 377.665L651.674 377.319L652.601 375.175Z" fill="#FFC800"/>
<path d="M662.706 375.175L663.633 377.319L665.708 377.665L664.207 379.333L664.563 381.692L662.706 380.576L660.849 381.692L661.205 379.333L659.701 377.665L661.776 377.319L662.706 375.175Z" fill="#FFC800"/>
<path d="M642.527 307.117H631.69C630.912 307.117 630.281 306.364 630.281 305.435V287.543C630.281 286.614 630.912 285.861 631.69 285.861H642.527C643.305 285.861 643.936 286.614 643.936 287.543V305.435C643.936 306.364 643.305 307.117 642.527 307.117Z" fill="#B3B3FF"/>
<path d="M642.194 285.861H632.026V267.041C632.026 266.577 632.341 266.2 632.729 266.2H641.488C641.878 266.2 642.194 266.577 642.194 267.041V285.861Z" fill="white"/>
<path d="M640.831 266.2H633.389V253.343C633.389 252.417 633.802 251.559 634.477 251.076L639.445 247.528C640.05 247.095 640.831 247.605 640.831 248.435V266.2Z" fill="#E83D6A"/>
<path d="M688.723 304.323H658.137V254.136H688.723V304.323Z" fill="#B3B3FF"/>
<path d="M681.074 304.323H650.491V254.136H681.074V304.323Z" fill="white"/>
<path d="M671.382 273.236L671.385 273.24C672.932 275.084 672.926 278.075 671.382 279.918L665.78 286.606L660.178 279.923C658.634 278.079 658.639 275.088 660.183 273.245L660.186 273.24C661.73 271.397 664.233 271.397 665.78 273.24L665.783 273.236C667.327 271.392 669.838 271.392 671.382 273.236Z" fill="#E83D6A"/>
<path d="M209.815 134.984C209.815 137.488 208.115 139.517 206.017 139.517C203.919 139.517 202.219 137.488 202.219 134.984C202.219 132.481 203.919 130.451 206.017 130.451C208.115 130.451 209.815 132.481 209.815 134.984Z" fill="#E83D6A"/>
<path d="M225.008 134.984C225.008 137.488 223.308 139.517 221.21 139.517C219.112 139.517 217.412 137.488 217.412 134.984C217.412 132.481 219.112 130.451 221.21 130.451C223.308 130.451 225.008 132.481 225.008 134.984Z" fill="#FFC800"/>
<path d="M240.202 134.984C240.202 137.488 238.501 139.517 236.403 139.517C234.306 139.517 232.605 137.488 232.605 134.984C232.605 132.481 234.306 130.451 236.403 130.451C238.501 130.451 240.202 132.481 240.202 134.984Z" fill="#7990DD"/>
<path d="M536.174 193.204C535.778 193.676 535.135 193.676 534.741 193.204L529.01 186.366C528.614 185.894 528.614 185.129 529.01 184.657C529.406 184.185 530.046 184.185 530.442 184.657L536.174 191.495C536.567 191.966 536.567 192.732 536.174 193.204Z" fill="#F0F2F7"/>
<path d="M532.592 180.383C534.569 182.743 534.569 186.57 532.592 188.93C530.614 191.291 527.405 191.291 525.428 188.93C523.451 186.57 523.451 182.743 525.428 180.383C527.405 178.023 530.614 178.023 532.592 180.383Z" fill="#F0F2F7"/>
<path d="M531.519 181.666C532.902 183.317 532.902 185.996 531.519 187.648C530.132 189.301 527.888 189.301 526.505 187.648C525.119 185.996 525.119 183.317 526.505 181.666C527.888 180.013 530.132 180.013 531.519 181.666Z" fill="white"/>
<path d="M572.166 188.472V183.359H572.95V187.704H574.95V188.472H572.166Z" fill="#806EFF"/>
<path d="M577.369 187.537C577.498 187.343 577.562 187.058 577.562 186.681C577.562 186.309 577.498 186.024 577.369 185.829C577.237 185.633 577.051 185.535 576.81 185.535C576.566 185.535 576.379 185.633 576.247 185.829C576.115 186.024 576.049 186.309 576.049 186.681C576.049 187.058 576.115 187.343 576.244 187.537C576.374 187.73 576.56 187.827 576.804 187.827C577.051 187.827 577.237 187.73 577.369 187.537ZM576.009 188.305C575.782 188.156 575.604 187.94 575.478 187.66C575.352 187.38 575.289 187.053 575.289 186.681C575.289 186.309 575.352 185.983 575.478 185.705C575.604 185.427 575.782 185.214 576.009 185.064C576.239 184.914 576.505 184.839 576.81 184.839C577.114 184.839 577.378 184.914 577.607 185.064C577.837 185.214 578.012 185.427 578.136 185.705C578.262 185.983 578.322 186.309 578.322 186.681C578.322 187.053 578.262 187.38 578.136 187.66C578.012 187.94 577.837 188.156 577.607 188.305C577.378 188.455 577.114 188.531 576.81 188.531C576.505 188.531 576.239 188.455 576.009 188.305Z" fill="#806EFF"/>
<path d="M580.885 187.384C581.02 187.196 581.086 186.937 581.086 186.608C581.086 186.275 581.02 186.014 580.885 185.825C580.747 185.636 580.558 185.542 580.314 185.542C580.076 185.542 579.889 185.636 579.751 185.825C579.614 186.014 579.545 186.275 579.545 186.608C579.545 186.933 579.614 187.19 579.751 187.381C579.889 187.572 580.076 187.667 580.314 187.667C580.558 187.667 580.747 187.573 580.885 187.384ZM581.841 184.926V188.146C581.841 188.702 581.712 189.122 581.456 189.408C581.198 189.693 580.816 189.836 580.314 189.836C580.056 189.836 579.806 189.795 579.568 189.716C579.33 189.637 579.12 189.524 578.942 189.379L579.155 188.741C579.525 189.006 579.904 189.139 580.297 189.139C580.825 189.139 581.086 188.83 581.086 188.211V187.747C580.997 187.946 580.868 188.098 580.699 188.208C580.529 188.316 580.334 188.371 580.116 188.371C579.855 188.371 579.625 188.297 579.424 188.149C579.224 188.002 579.069 187.796 578.954 187.529C578.842 187.263 578.784 186.956 578.784 186.608C578.784 186.261 578.839 185.952 578.951 185.684C579.063 185.415 579.221 185.207 579.422 185.06C579.625 184.913 579.855 184.839 580.116 184.839C580.334 184.839 580.529 184.893 580.699 185.002C580.868 185.111 580.997 185.264 581.086 185.462V184.926H581.841Z" fill="#806EFF"/>
<path d="M582.625 188.472V184.926H583.385V188.472H582.625ZM582.582 183.279H583.423V184.172H582.582V183.279Z" fill="#806EFF"/>
<path d="M586.69 185.201C586.865 185.443 586.952 185.808 586.952 186.296V188.472H586.191V186.348C586.191 186.072 586.148 185.871 586.062 185.745C585.973 185.62 585.838 185.556 585.652 185.556C585.433 185.556 585.258 185.639 585.126 185.803C584.994 185.968 584.928 186.188 584.928 186.463V188.472H584.168V184.926H584.908V185.455C585.011 185.257 585.146 185.105 585.316 184.998C585.488 184.892 585.68 184.839 585.893 184.839C586.251 184.839 586.515 184.96 586.69 185.201Z" fill="#806EFF"/>
<path d="M625.011 188.378C624.724 188.272 624.48 188.121 624.282 187.928L624.543 187.246C624.75 187.435 624.968 187.573 625.197 187.66C625.427 187.747 625.674 187.79 625.941 187.79C626.236 187.79 626.466 187.729 626.624 187.605C626.784 187.482 626.865 187.309 626.865 187.087C626.865 186.893 626.79 186.746 626.644 186.644C626.494 186.543 626.248 186.446 625.906 186.355C625.547 186.263 625.258 186.156 625.037 186.035C624.813 185.914 624.643 185.759 624.531 185.571C624.417 185.382 624.362 185.143 624.362 184.853C624.362 184.553 624.431 184.285 624.569 184.048C624.707 183.811 624.899 183.627 625.151 183.493C625.404 183.36 625.691 183.294 626.021 183.294C626.32 183.294 626.606 183.348 626.876 183.457C627.149 183.566 627.373 183.715 627.545 183.903L627.284 184.585C626.902 184.222 626.483 184.041 626.021 184.041C625.745 184.041 625.527 184.107 625.367 184.241C625.206 184.373 625.128 184.558 625.128 184.795C625.128 184.994 625.197 185.146 625.341 185.252C625.481 185.359 625.723 185.457 626.064 185.549C626.423 185.646 626.716 185.753 626.942 185.872C627.166 185.99 627.338 186.141 627.459 186.325C627.577 186.509 627.637 186.741 627.637 187.021C627.637 187.326 627.568 187.593 627.433 187.822C627.298 188.053 627.1 188.229 626.845 188.352C626.586 188.475 626.282 188.537 625.935 188.537C625.608 188.537 625.301 188.484 625.011 188.378Z" fill="white"/>
<path d="M628.294 188.472V184.926H629.052V188.472H628.294ZM628.251 183.279H629.089V184.172H628.251V183.279Z" fill="white"/>
<path d="M631.773 187.384C631.908 187.196 631.976 186.937 631.976 186.608C631.976 186.275 631.908 186.014 631.773 185.825C631.638 185.636 631.448 185.542 631.204 185.542C630.966 185.542 630.777 185.636 630.639 185.825C630.501 186.014 630.432 186.275 630.432 186.608C630.432 186.933 630.501 187.19 630.639 187.381C630.777 187.572 630.966 187.667 631.204 187.667C631.448 187.667 631.638 187.573 631.773 187.384ZM632.728 184.926V188.146C632.728 188.702 632.602 189.122 632.344 189.408C632.085 189.693 631.707 189.836 631.204 189.836C630.946 189.836 630.696 189.795 630.455 189.716C630.217 189.637 630.01 189.524 629.83 189.379L630.045 188.741C630.412 189.006 630.794 189.139 631.187 189.139C631.712 189.139 631.976 188.83 631.976 188.211V187.747C631.887 187.946 631.758 188.098 631.586 188.208C631.417 188.316 631.221 188.371 631.003 188.371C630.745 188.371 630.515 188.297 630.315 188.149C630.114 188.002 629.956 187.796 629.844 187.529C629.729 187.263 629.672 186.956 629.672 186.608C629.672 186.261 629.729 185.952 629.841 185.684C629.953 185.415 630.108 185.207 630.312 185.06C630.513 184.913 630.745 184.839 631.003 184.839C631.221 184.839 631.417 184.893 631.586 185.002C631.758 185.111 631.887 185.264 631.976 185.462V184.926H632.728Z" fill="white"/>
<path d="M636.035 185.201C636.21 185.443 636.296 185.808 636.296 186.296V188.472H635.539V186.348C635.539 186.072 635.496 185.871 635.407 185.745C635.32 185.62 635.183 185.556 634.996 185.556C634.778 185.556 634.603 185.639 634.471 185.803C634.339 185.968 634.273 186.188 634.273 186.463V188.472H633.515V184.926H634.256V185.455C634.356 185.257 634.494 185.105 634.663 184.998C634.833 184.892 635.025 184.839 635.24 184.839C635.596 184.839 635.863 184.96 636.035 185.201Z" fill="white"/>
<path d="M639.215 187.994C638.911 187.631 638.759 187.101 638.759 186.405V183.359H639.525V186.456C639.525 186.896 639.611 187.228 639.786 187.453C639.961 187.678 640.216 187.79 640.552 187.79C640.882 187.79 641.138 187.677 641.313 187.449C641.485 187.222 641.571 186.891 641.571 186.456V183.359H642.337V186.405C642.337 187.097 642.185 187.625 641.881 187.99C641.58 188.355 641.135 188.537 640.552 188.537C639.964 188.537 639.519 188.356 639.215 187.994Z" fill="white"/>
<path d="M645.237 187.533C645.371 187.337 645.437 187.06 645.437 186.702C645.437 186.335 645.371 186.05 645.237 185.847C645.105 185.644 644.918 185.542 644.68 185.542C644.436 185.542 644.249 185.642 644.117 185.839C643.985 186.038 643.919 186.32 643.919 186.688C643.919 187.051 643.985 187.331 644.117 187.529C644.249 187.727 644.436 187.827 644.68 187.827C644.918 187.827 645.105 187.729 645.237 187.533ZM645.564 185.071C645.765 185.226 645.92 185.444 646.032 185.727C646.141 186.01 646.198 186.335 646.198 186.702C646.198 187.07 646.141 187.391 646.032 187.667C645.92 187.943 645.765 188.156 645.567 188.305C645.369 188.455 645.139 188.531 644.878 188.531C644.668 188.531 644.479 188.477 644.315 188.371C644.149 188.264 644.02 188.117 643.931 187.928V189.778H643.17V184.926H643.919V185.462C644.008 185.264 644.137 185.111 644.304 185.002C644.473 184.893 644.665 184.839 644.878 184.839C645.133 184.839 645.363 184.916 645.564 185.071Z" fill="white"/>
<path d="M783.401 503.653H76.8319C76.1564 503.653 75.6088 502.999 75.6088 502.194V502.091C75.6088 501.286 76.1564 500.632 76.8319 500.632H783.401C784.075 500.632 784.624 501.286 784.624 502.091V502.194C784.624 502.999 784.075 503.653 783.401 503.653Z" fill="#F0F2F7"/>
<path d="M719.036 411.685C718.545 411.685 718.089 411.767 717.678 411.928C716.743 412.288 716.114 412.976 715.75 414.038C714.372 418.042 716.8 427.056 723.177 441.599L723.229 441.719C729.325 455.433 734.611 467.331 738.242 467.331C738.351 467.331 738.46 467.321 738.566 467.3C739.286 467.156 739.981 466.437 740.575 465.221C743.606 459.022 742.357 446.51 739.559 437.352L739.556 437.349C737.346 429.933 733.383 422.772 728.685 417.696C725.135 413.86 721.593 411.685 719.036 411.685ZM738.245 468.407C734.072 468.407 729.15 457.334 722.434 442.222L722.379 442.099C715.781 427.05 713.411 418.004 714.914 413.627C715.382 412.274 716.217 411.36 717.4 410.908C720.301 409.753 724.747 411.993 729.29 416.898C734.095 422.09 738.144 429.409 740.406 436.986C744.372 449.97 743.677 461.005 741.353 465.762C740.618 467.262 739.708 468.16 738.715 468.359C738.56 468.389 738.402 468.407 738.245 468.407Z" fill="#A7EAE5"/>
<path d="M755.091 414.884C752.118 414.884 746.37 420.604 743.875 428.968V428.975C742.337 434.006 741.643 440.866 743.293 444.243C743.594 444.856 743.93 445.216 744.269 445.281C746.149 445.665 749.268 438.64 752.574 431.201L752.603 431.136C753.895 428.194 757.821 419.241 756.719 416.038C756.541 415.518 756.231 415.182 755.774 415.004C755.568 414.925 755.338 414.884 755.091 414.884ZM744.407 446.37C744.312 446.37 744.214 446.36 744.119 446.339C743.511 446.219 742.954 445.682 742.515 444.784C741.204 442.096 740.802 435.886 743.029 428.608C745.821 419.237 752.64 412.627 756.056 413.983C756.765 414.254 757.27 414.809 757.551 415.631C758.424 418.165 757.143 423.101 753.401 431.636L753.369 431.704C749.61 440.167 746.855 446.37 744.407 446.37Z" fill="#A7EAE5"/>
<path d="M745.69 435.629C745.69 453.134 742.102 467.324 737.679 467.324C733.254 467.324 729.669 453.134 729.669 435.629C729.669 418.121 733.254 403.931 737.679 403.931C742.102 403.931 745.69 418.121 745.69 435.629Z" fill="#36CCC4"/>
<path d="M737.679 461.32C737.429 461.32 737.228 461.08 737.228 460.782V410.473C737.228 410.175 737.429 409.935 737.679 409.935C737.926 409.935 738.129 410.175 738.129 410.473V460.782C738.129 461.08 737.926 461.32 737.679 461.32Z" fill="#A7EAE5"/>
<path d="M758.793 448.49C750.502 459.361 745.327 468.547 742.113 467.513C739.036 466.598 737.191 455.114 743.312 441.904C749.325 428.553 762.811 421.453 767.983 424.902C773.292 428.303 766.929 437.698 758.793 448.49Z" fill="#36CCC4"/>
<path d="M743.411 463.204C743.362 463.204 743.31 463.194 743.259 463.173C743.026 463.074 742.903 462.766 742.989 462.485C746.892 449.545 754.053 437.678 763.696 428.173C763.888 427.985 764.172 428.019 764.33 428.245C764.488 428.474 764.462 428.814 764.27 429.002C754.75 438.387 747.684 450.09 743.836 462.848C743.77 463.067 743.597 463.204 743.411 463.204Z" fill="#A7EAE5"/>
<path d="M730.667 447.148C736.169 457.964 735.982 467.975 733.339 469.164C730.615 470.41 725.538 462.961 718.992 453.367C712.532 443.794 707.925 435.098 711.671 432.625C715.336 430.136 725.231 436.273 730.667 447.148Z" fill="#36CCC4"/>
<path d="M731.899 465.653C731.73 465.653 731.563 465.533 731.489 465.334C727.468 454.761 721.71 445.02 714.372 436.393C714.194 436.184 714.191 435.845 714.366 435.633C714.541 435.424 714.825 435.42 715.003 435.629C722.419 444.349 728.243 454.196 732.309 464.892C732.413 465.163 732.312 465.482 732.086 465.601C732.025 465.636 731.962 465.653 731.899 465.653Z" fill="#A7EAE5"/>
<path d="M746.831 500.632H728.202C726.167 500.632 724.414 498.916 724.015 496.533L718.803 465.444C718.539 463.865 719.549 462.396 720.898 462.396H754.135C755.484 462.396 756.494 463.865 756.23 465.444L751.018 496.533C750.619 498.916 748.866 500.632 746.831 500.632Z" fill="#F0F2F7"/>
<path d="M670.509 510.558H637.114V470.704H670.509V510.558Z" fill="#B3B3FF"/>
<path d="M660.232 510.558H626.837V470.704H660.232V510.558Z" fill="#CCCCFF"/>
<path d="M646.103 510.558H640.966V470.704H646.103V510.558Z" fill="#B3B3FF"/>
<path d="M626.837 493.697V487.566H660.232V493.697H626.837Z" fill="#B3B3FF"/>
<path d="M670.509 493.697V487.566H660.232V493.697H670.509Z" fill="#A9A9FF"/>
<path d="M694.298 470.705H660.903V430.848H694.298V470.705Z" fill="#B3B3FF"/>
<path d="M684.022 470.705H650.626V430.848H684.022V470.705Z" fill="#CCCCFF"/>
<path d="M669.896 470.705H664.755V430.848H669.896V470.705Z" fill="#B3B3FF"/>
<path d="M650.626 453.844V447.709H684.022V453.844H650.626Z" fill="#B3B3FF"/>
<path d="M694.299 453.844V447.709H684.022V453.844H694.299Z" fill="#A9A9FF"/>
<path d="M711.327 510.558H677.932V470.704H711.327V510.558Z" fill="#B3B3FF"/>
<path d="M701.052 510.558H667.654V470.704H701.052V510.558Z" fill="#CCCCFF"/>
<path d="M686.923 510.558H681.783V470.704H686.923V510.558Z" fill="#B3B3FF"/>
<path d="M667.654 493.697V487.566H701.052V493.697H667.654Z" fill="#B3B3FF"/>
<path d="M711.326 493.697V487.566H701.052V493.697H711.326Z" fill="#A9A9FF"/>
<path d="M563.295 552.651C563.295 552.651 564.113 505.575 568.335 468.129V410.075H584.467C584.467 410.075 580.937 454.593 578.669 468.129L568.84 552.651H563.295Z" fill="#4C62CC"/>
<path d="M578.428 332.768C578.428 332.768 582.217 336.306 583.729 347.473H579.097L578.428 332.768Z" fill="#ED7CAA"/>
<path d="M583.729 347.473C583.729 347.473 584.2 359.204 585.807 366.198C587.414 373.192 596.771 402.742 599.23 407.479C601.687 412.219 605.091 415.713 604.428 416.73C603.765 417.744 601.213 416.165 598.662 412.442C596.11 408.722 591.857 399.811 588.927 392.817C585.997 385.823 580.42 366.084 579.476 361.348C578.529 356.611 579.097 347.473 579.097 347.473H583.729Z" fill="#FECCC6"/>
<path d="M573.46 292.992C573.46 292.992 570.068 287.113 563.76 287.113C558.49 287.113 554.05 292.017 554.05 297.392C554.05 304.498 556.128 308.558 553.577 314.424C551.026 320.289 532.867 361.372 557.546 361.372C577.206 361.372 575.507 342.624 575.412 332.133C575.317 321.643 572.008 317.356 570.306 310.25C568.604 303.144 573.46 292.992 573.46 292.992Z" fill="#481AA0"/>
<path d="M562.839 344.877V313.07C562.839 313.07 560.098 309.912 560.098 304.723C560.098 299.535 563.123 295.474 567.66 295.474C572.198 295.474 573.71 299.648 573.426 306.19C573.142 312.732 569.836 313.973 568.794 314.424C568.794 314.424 567.534 322.664 572.872 327.509V344.877H562.839Z" fill="#FECCC6"/>
<path d="M573.461 304.498C573.461 304.498 569.741 303.257 568.134 298.632C568.134 298.632 567.465 303.591 562.839 307.576V313.07H558.115V292.992H573.461C573.461 292.992 575.082 296.233 573.461 304.498Z" fill="#481AA0"/>
<path d="M563.295 552.651V564.512H566.475V560.676C566.475 560.676 567.987 564.118 574.792 564.118H581.318C582.294 564.118 582.831 562.711 582.154 561.875C581.97 561.649 581.714 561.46 581.361 561.354C579.708 560.847 577.157 557.689 574.557 557.689C571.957 557.689 568.84 555.508 568.84 552.651H563.295Z" fill="#481AA0"/>
<path d="M549.304 552.651C549.304 552.651 550.125 505.575 554.346 468.129V410.075H570.476C570.476 410.075 566.949 454.593 564.681 468.129L554.851 552.651H549.304Z" fill="#556EE6"/>
<path d="M549.304 552.651V564.512H552.487V560.676C552.487 560.676 553.999 564.118 560.804 564.118H567.416C568.237 564.118 568.788 563.056 568.375 562.207C568.194 561.834 567.887 561.512 567.373 561.354C565.72 560.847 563.169 557.689 560.569 557.689C557.968 557.689 554.851 555.508 554.851 552.651H549.304Z" fill="#481AA0"/>
<path d="M554.346 410.075C554.346 410.075 562.79 413.384 568.335 413.384C573.879 413.384 580.937 410.075 584.467 410.075C584.467 410.075 585.348 387.967 583.583 376.236C581.818 364.506 580.056 358.94 580.937 347.963C581.818 336.984 577.533 328.411 572.872 327.509C572.872 327.509 571.233 330.667 570.476 337.585C570.476 337.585 566.191 327.358 561.025 327.509C561.025 327.509 548.675 326.306 547.415 349.467V351.837L554.22 352.056L554.427 350.237C554.427 350.237 555.354 345.254 556.175 342.398C556.175 342.398 561.151 350.069 562.411 359.091C563.671 368.116 561.782 377.291 559.26 385.713C556.74 394.132 554.346 398.797 554.346 410.075Z" fill="#FF92B9"/>
<path d="M632.109 556.121C632.109 561.094 628.731 565.125 624.564 565.125C620.396 565.125 617.015 561.094 617.015 556.121C617.015 551.144 620.396 547.113 624.564 547.113C628.731 547.113 632.109 551.144 632.109 556.121Z" fill="#481AA0"/>
<path d="M628.344 556.121C628.344 558.611 626.651 560.631 624.564 560.631C622.475 560.631 620.781 558.611 620.781 556.121C620.781 553.627 622.475 551.607 624.564 551.607C626.651 551.607 628.344 553.627 628.344 556.121Z" fill="white"/>
<path d="M704.508 556.121C704.508 561.094 701.127 565.125 696.959 565.125C692.792 565.125 689.414 561.094 689.414 556.121C689.414 551.144 692.792 547.113 696.959 547.113C701.127 547.113 704.508 551.144 704.508 556.121Z" fill="#481AA0"/>
<path d="M700.742 556.121C700.742 558.611 699.049 560.631 696.959 560.631C694.873 560.631 693.18 558.611 693.18 556.121C693.18 553.627 694.873 551.607 696.959 551.607C699.049 551.607 700.742 553.627 700.742 556.121Z" fill="white"/>
<path d="M624.939 510.305H713.181L725.458 436.588L603.526 428.529L624.939 510.305ZM713.6 511.524H624.564C624.34 511.524 624.142 511.353 624.076 511.096L602.332 428.06C602.33 428.057 602.33 428.053 602.327 428.05L599.858 418.621C597.451 409.421 590.405 403.239 582.329 403.239H573.713C573.429 403.239 573.202 402.969 573.202 402.629C573.202 402.294 573.429 402.02 573.713 402.02H582.329C590.855 402.02 598.291 408.544 600.834 418.258L603.199 427.286L726.104 435.41C726.25 435.417 726.388 435.506 726.48 435.643C726.569 435.783 726.606 435.965 726.578 436.136L714.099 511.034C714.053 511.319 713.843 511.524 713.6 511.524Z" fill="#481AA0"/>
<path d="M701.052 522.128H624.564C624.28 522.128 624.053 521.853 624.053 521.518V510.914C624.053 510.578 624.28 510.304 624.564 510.304C624.845 510.304 625.075 510.578 625.075 510.914V520.908H701.052C701.333 520.908 701.563 521.179 701.563 521.518C701.563 521.853 701.333 522.128 701.052 522.128Z" fill="#481AA0"/>
<path d="M711.14 546.942H611.709C611.428 546.942 611.199 546.668 611.199 546.332V536.859C611.199 528.063 617.194 520.908 624.564 520.908C624.845 520.908 625.075 521.179 625.075 521.518C625.075 521.854 624.845 522.128 624.564 522.128C617.756 522.128 612.22 528.735 612.22 536.859V545.723H711.14C711.425 545.723 711.654 545.997 711.654 546.332C711.654 546.668 711.425 546.942 711.14 546.942Z" fill="#481AA0"/>
<path d="M586.944 406.767H569.428C567.93 406.767 566.719 405.318 566.719 403.534C566.719 401.746 567.93 400.3 569.428 400.3H586.944C588.442 400.3 589.653 401.746 589.653 403.534C589.653 405.318 588.442 406.767 586.944 406.767Z" fill="#B3B3FF"/>
<path d="M635.61 511.524C635.352 511.524 635.128 511.291 635.102 510.976L628.099 429.639C628.07 429.304 628.274 429.002 628.555 428.968C628.834 428.937 629.089 429.177 629.118 429.512L636.118 510.853C636.147 511.188 635.943 511.486 635.662 511.521C635.644 511.524 635.627 511.524 635.61 511.524Z" fill="#481AA0"/>
<path d="M652.018 511.524C651.748 511.524 651.522 511.271 651.507 510.945L648.061 430.923C648.046 430.588 648.261 430.3 648.546 430.283C648.801 430.259 649.068 430.526 649.082 430.862L652.529 510.884C652.544 511.219 652.328 511.507 652.044 511.524C652.036 511.524 652.027 511.524 652.018 511.524Z" fill="#481AA0"/>
<path d="M668.419 511.524C668.135 511.524 667.909 511.253 667.909 510.914V432.211C667.909 431.872 668.135 431.601 668.419 431.601C668.701 431.601 668.93 431.872 668.93 432.211V510.914C668.93 511.253 668.701 511.524 668.419 511.524Z" fill="#481AA0"/>
<path d="M684.82 511.524C684.811 511.524 684.802 511.524 684.794 511.524C684.513 511.507 684.295 511.219 684.309 510.883L687.644 433.478C687.658 433.143 687.908 432.879 688.181 432.9C688.462 432.917 688.68 433.204 688.666 433.54L685.331 510.945C685.316 511.27 685.092 511.524 684.82 511.524Z" fill="#481AA0"/>
<path d="M701.23 511.524C701.213 511.524 701.196 511.524 701.176 511.52C700.897 511.486 700.691 511.188 700.719 510.853L707.277 434.746C707.306 434.41 707.553 434.174 707.837 434.201C708.118 434.235 708.322 434.537 708.293 434.872L701.738 510.976C701.71 511.291 701.489 511.524 701.23 511.524Z" fill="#481AA0"/>
<path d="M723.708 450.84H608.669C608.385 450.84 608.158 450.569 608.158 450.23C608.158 449.894 608.385 449.62 608.669 449.62H723.708C723.992 449.62 724.218 449.894 724.218 450.23C724.218 450.569 723.992 450.84 723.708 450.84Z" fill="#481AA0"/>
<path d="M720.252 471.595H614.105C613.824 471.595 613.595 471.321 613.595 470.986C613.595 470.647 613.824 470.376 614.105 470.376H720.252C720.537 470.376 720.766 470.647 720.766 470.986C720.766 471.321 720.537 471.595 720.252 471.595Z" fill="#481AA0"/>
<path d="M716.791 492.347H619.541C619.26 492.347 619.03 492.077 619.03 491.737C619.03 491.402 619.26 491.128 619.541 491.128H716.791C717.072 491.128 717.302 491.402 717.302 491.737C717.302 492.077 717.072 492.347 716.791 492.347Z" fill="#481AA0"/>
<path d="M547.415 349.467C547.415 349.467 547.415 375.483 547.415 378.49C547.415 381.501 571.285 394.433 573.3 398.043C575.317 401.653 574.686 402.931 574.686 404.66C574.686 406.39 576.072 408.572 577.585 408.572C579.097 408.572 580.105 406.465 580.105 404.51C580.105 402.554 579.338 397.094 577.071 395.817C574.801 394.536 569.773 390.149 567.376 387.892C564.983 385.635 554.774 376.373 553.072 374.794C553.072 374.794 553.118 360.916 554.427 350.237C554.427 350.237 552.828 351.052 550.661 350.86C548.492 350.669 547.415 349.467 547.415 349.467Z" fill="#FECCC6"/>
<path d="M173.83 507.965H140.433V468.112H173.83V507.965Z" fill="#B3B3FF"/>
<path d="M163.554 507.965H130.157V468.112H163.554V507.965Z" fill="#CCCCFF"/>
<path d="M149.425 507.965H144.287V468.112H149.425V507.965Z" fill="#B3B3FF"/>
<path d="M130.157 491.104V484.974H163.554V491.104H130.157Z" fill="#B3B3FF"/>
<path d="M173.829 491.104V484.974H163.553V491.104H173.829Z" fill="#A9A9FF"/>
<path d="M184.772 553.528C184.772 558.501 188.15 562.532 192.318 562.532C196.486 562.532 199.864 558.501 199.864 553.528C199.864 548.552 196.486 544.52 192.318 544.52C188.15 544.52 184.772 548.552 184.772 553.528Z" fill="#481AA0"/>
<path d="M188.537 553.528C188.537 556.018 190.23 558.039 192.318 558.039C194.406 558.039 196.099 556.018 196.099 553.528C196.099 551.035 194.406 549.014 192.318 549.014C190.23 549.014 188.537 551.035 188.537 553.528Z" fill="white"/>
<path d="M112.375 553.528C112.375 558.501 115.753 562.532 119.921 562.532C124.089 562.532 127.467 558.501 127.467 553.528C127.467 548.552 124.089 544.52 119.921 544.52C115.753 544.52 112.375 548.552 112.375 553.528Z" fill="#481AA0"/>
<path d="M116.14 553.528C116.14 556.018 117.833 558.039 119.921 558.039C122.009 558.039 123.702 556.018 123.702 553.528C123.702 551.035 122.009 549.014 119.921 549.014C117.833 549.014 116.14 551.035 116.14 553.528Z" fill="white"/>
<path d="M103.701 507.712H191.942L213.356 425.936L91.4213 433.995L103.701 507.712ZM192.318 508.931H103.282C103.038 508.931 102.828 508.726 102.781 508.441L90.3043 433.543C90.2754 433.372 90.3108 433.191 90.4016 433.05C90.4925 432.913 90.6292 432.824 90.777 432.817L213.682 424.693L216.046 415.665C218.589 405.951 226.026 399.427 234.552 399.427H243.169C243.452 399.427 243.68 399.701 243.68 400.037C243.68 400.376 243.452 400.646 243.169 400.646H234.552C226.475 400.646 219.431 406.828 217.022 416.028L214.553 425.457C214.551 425.46 214.551 425.464 214.551 425.467L192.806 508.503C192.739 508.756 192.542 508.931 192.318 508.931Z" fill="#481AA0"/>
<path d="M192.318 519.535H115.83C115.547 519.535 115.319 519.261 115.319 518.925C115.319 518.586 115.547 518.316 115.83 518.316H191.806V508.321C191.806 507.986 192.035 507.712 192.318 507.712C192.6 507.712 192.829 507.986 192.829 508.321V518.925C192.829 519.261 192.6 519.535 192.318 519.535Z" fill="#481AA0"/>
<path d="M205.173 544.349H105.74C105.457 544.349 105.229 544.075 105.229 543.74C105.229 543.404 105.457 543.13 105.74 543.13H204.662V534.266C204.662 526.142 199.125 519.535 192.319 519.535C192.036 519.535 191.807 519.261 191.807 518.925C191.807 518.586 192.036 518.316 192.319 518.316C199.688 518.316 205.684 525.471 205.684 534.266V543.74C205.684 544.075 205.455 544.349 205.173 544.349Z" fill="#481AA0"/>
<path d="M229.936 404.174H247.454C248.95 404.174 250.163 402.725 250.163 400.941C250.163 399.153 248.95 397.708 247.454 397.708H229.936C228.44 397.708 227.227 399.153 227.227 400.941C227.227 402.725 228.44 404.174 229.936 404.174Z" fill="#B3B3FF"/>
<path d="M181.271 508.931C181.254 508.931 181.237 508.931 181.219 508.928C180.938 508.894 180.734 508.596 180.762 508.26L187.764 426.92C187.793 426.584 188.045 426.348 188.325 426.375C188.606 426.409 188.81 426.711 188.781 427.043L181.78 508.383C181.753 508.698 181.531 508.931 181.271 508.931Z" fill="#481AA0"/>
<path d="M164.863 508.931C164.854 508.931 164.845 508.931 164.836 508.931C164.554 508.914 164.337 508.627 164.352 508.291L167.8 428.269C167.814 427.93 168.073 427.67 168.336 427.69C168.618 427.707 168.835 427.995 168.821 428.331L165.373 508.352C165.358 508.678 165.133 508.931 164.863 508.931Z" fill="#481AA0"/>
<path d="M148.462 508.931C148.179 508.931 147.951 508.657 147.951 508.321V429.615C147.951 429.279 148.179 429.005 148.462 429.005C148.744 429.005 148.973 429.279 148.973 429.615V508.321C148.973 508.657 148.744 508.931 148.462 508.931Z" fill="#481AA0"/>
<path d="M132.061 508.931C131.79 508.931 131.565 508.678 131.55 508.352L128.216 430.947C128.201 430.611 128.418 430.324 128.7 430.307C128.964 430.286 129.222 430.547 129.237 430.886L132.571 508.291C132.586 508.626 132.369 508.914 132.087 508.931C132.079 508.931 132.069 508.931 132.061 508.931Z" fill="#481AA0"/>
<path d="M115.652 508.931C115.393 508.931 115.171 508.698 115.144 508.383L108.588 432.28C108.559 431.944 108.763 431.643 109.044 431.608C109.326 431.578 109.576 431.817 109.605 432.153L116.161 508.26C116.189 508.596 115.985 508.894 115.704 508.928C115.687 508.931 115.669 508.931 115.652 508.931Z" fill="#481AA0"/>
<path d="M208.212 448.247H93.1725C92.8901 448.247 92.6614 447.973 92.6614 447.637C92.6614 447.298 92.8901 447.028 93.1725 447.028H208.212C208.495 447.028 208.723 447.298 208.723 447.637C208.723 447.973 208.495 448.247 208.212 448.247Z" fill="#481AA0"/>
<path d="M202.775 469.002H96.628C96.3456 469.002 96.1169 468.729 96.1169 468.393C96.1169 468.054 96.3456 467.78 96.628 467.78H202.775C203.058 467.78 203.286 468.054 203.286 468.393C203.286 468.729 203.058 469.002 202.775 469.002Z" fill="#481AA0"/>
<path d="M197.339 489.755H100.091C99.8085 489.755 99.5798 489.484 99.5798 489.145C99.5798 488.809 99.8085 488.535 100.091 488.535H197.339C197.622 488.535 197.85 488.809 197.85 489.145C197.85 489.484 197.622 489.755 197.339 489.755Z" fill="#481AA0"/>
<path d="M303.569 436.211L305.538 427.06L297.998 421.241L295.972 431.968L303.569 436.211Z" fill="#FECCC6"/>
<path d="M298.402 426.964L303.568 436.211C303.568 436.211 295.349 474.386 295.349 490.919C295.349 507.451 292.743 548.021 292.743 548.021H284.313L278.342 452.186L265.142 549.702H257.576V426.964H298.402Z" fill="#6B21A8"/>
<path d="M284.313 547.873V552.672C284.313 553.898 284.781 555.052 285.587 555.806C287.789 557.871 292.456 561.885 296.488 562.923C301.982 564.337 304.062 559.974 301.164 557.145C298.265 554.312 292.743 552.439 292.743 547.873H284.313Z" fill="black"/>
<path d="M265.131 549.702H257.61C257.61 549.702 256.736 554.72 256.736 558.35C256.736 561.981 257.426 565.125 260.68 565.125C263.934 565.125 266.064 561.8 265.861 557.412C265.658 553.028 265.131 549.702 265.131 549.702Z" fill="black"/>
<path d="M288.045 326.083C288.045 326.083 285.225 320.112 284.972 312.104H274.843C274.843 312.104 274.59 322.53 273.172 326.083H288.045Z" fill="#FECCC6"/>
<path d="M257.579 345.531V426.964C257.579 426.964 266.071 428.779 278.901 428.779C291.73 428.779 298.402 426.964 298.402 426.964L298.695 423.32L305.279 428.646L308.312 410.044C309.059 403.595 309.194 397.074 308.714 390.587L306.151 356.186C305.27 344.36 299.556 333.813 290.886 327.993L290.467 327.709L288.208 326.192L288.045 326.083H273.172L270.857 327.207L266.801 329.178C261.225 331.879 257.579 338.346 257.579 345.531Z" fill="#806EFF"/>
<path d="M257.576 345.531L253.398 380.203L240.787 394.536L246.156 400.037L257.576 390.676V345.531Z" fill="#806EFF"/>
<path d="M305.276 428.951C305.228 428.951 305.179 428.933 305.136 428.899L298.552 423.573C298.483 423.519 298.44 423.423 298.44 423.32V402.969C298.44 399.77 298.052 396.591 297.289 393.522C295.834 387.666 295.094 381.597 295.094 375.486V349.901C295.094 349.734 295.208 349.597 295.349 349.597C295.49 349.597 295.604 349.734 295.604 349.901V375.486C295.604 381.538 296.336 387.546 297.78 393.348C298.557 396.471 298.951 399.708 298.951 402.969V423.159L305.42 428.392C305.537 428.488 305.569 428.677 305.489 428.817C305.44 428.903 305.359 428.951 305.276 428.951Z" fill="#481AA0"/>
<path d="M272.237 303.232C272.237 303.232 267.547 297.882 268.876 295.532C270.206 293.182 275.228 294.768 275.228 294.768C275.228 294.768 279.364 290.009 284.928 292.653C290.493 295.297 292.691 299.018 291.54 307.323H280.238L272.237 303.232Z" fill="#481AA0"/>
<path d="M272.423 314.043C272.967 319.341 274.464 324.286 278.348 324.286C284.977 324.286 287.342 313.785 287.342 313.785C288.688 315.942 290.392 313.122 290.854 311.904C291.311 310.692 292.198 308.379 291.543 307.322C290.886 306.263 289.968 306.499 289.968 306.499C289.968 306.499 288.607 304.877 286.998 303.382C286.005 302.461 284.918 301.586 283.992 301.173C281.562 300.078 272.305 297.962 272.175 303.913C272.12 306.381 272.034 310.297 272.423 314.043Z" fill="#FECCC6"/>
<path d="M272.423 314.044C272.967 319.341 274.464 324.286 278.347 324.286C284.977 324.286 287.341 313.785 287.341 313.785C287.341 313.785 286.702 312.633 287.341 310.161C287.979 307.697 289.968 306.499 289.968 306.499L287.143 301.173C287.143 301.173 287.103 302.038 286.997 303.382C286.895 304.642 286.741 306.32 286.505 308.107C286.009 311.806 285.024 314.1 283.748 315.862C282.464 317.625 281.193 316.101 280.414 314.453C279.396 312.298 277.737 312.511 275.72 312.69C274.507 312.797 273.239 313.498 272.423 314.044Z" fill="#481AA0"/>
<path d="M270.858 327.207C271.329 333.19 275.552 337.869 280.688 337.869C285.681 337.869 289.81 333.45 290.467 327.709L288.208 326.192L288.045 326.083H273.172L270.858 327.207Z" fill="white"/>
<path d="M273.172 326.083C273.172 331.039 276.54 335.052 280.687 335.052C284.81 335.052 288.157 331.1 288.208 326.192L288.045 326.083H273.172Z" fill="#FECCC6"/>
<path d="M257.579 390.981C257.438 390.981 257.323 390.844 257.323 390.676V345.531C257.323 345.363 257.438 345.226 257.579 345.226C257.72 345.226 257.834 345.363 257.834 345.531V390.676C257.834 390.844 257.72 390.981 257.579 390.981Z" fill="#481AA0"/>
<path d="M303.569 436.517C303.485 436.517 303.405 436.468 303.356 436.379L298.282 427.3C296.299 427.707 277.025 431.441 257.534 427.266C257.395 427.235 257.303 427.077 257.328 426.913C257.353 426.745 257.486 426.635 257.624 426.666C278.011 431.033 298.156 426.707 298.357 426.663C298.457 426.646 298.558 426.694 298.615 426.796L303.781 436.044C303.859 436.181 303.827 436.373 303.709 436.465C303.666 436.499 303.617 436.517 303.569 436.517Z" fill="#481AA0"/>
<path d="M240.787 394.536C240.787 394.536 235.011 399.622 236.91 403.702C238.809 407.781 243.494 404.106 243.494 404.106C243.494 404.106 243.393 403.154 244.063 402.116C244.734 401.078 246.156 400.037 246.156 400.037L240.787 394.536Z" fill="#FECCC6"/>
<path d="M246.156 400.341C246.097 400.341 246.037 400.318 245.989 400.27L240.62 394.766C240.513 394.656 240.501 394.464 240.593 394.338C240.685 394.211 240.847 394.194 240.954 394.303L246.322 399.807C246.429 399.917 246.442 400.109 246.349 400.235C246.299 400.307 246.227 400.341 246.156 400.341Z" fill="#481AA0"/>
<path d="M278.342 452.49C278.332 452.49 278.322 452.487 278.312 452.487C278.172 452.466 278.072 452.316 278.087 452.148L279.323 439.554C279.341 439.386 279.465 439.27 279.607 439.287C279.747 439.304 279.847 439.458 279.831 439.626L278.596 452.22C278.58 452.374 278.47 452.49 278.342 452.49Z" fill="#481AA0"/>
<path d="M257.576 440.571C257.528 440.571 257.479 440.554 257.436 440.52C257.318 440.428 257.285 440.239 257.363 440.099C257.389 440.051 259.968 435.331 260.554 429.992C260.572 429.824 260.701 429.707 260.841 429.728C260.981 429.748 261.079 429.903 261.061 430.071C260.459 435.554 257.817 440.387 257.789 440.434C257.741 440.524 257.659 440.571 257.576 440.571Z" fill="#481AA0"/>
<defs>
<linearGradient id="paint0_linear" x1="176.897" y1="120.814" x2="526.228" y2="370.181" gradientUnits="userSpaceOnUse">
<stop stop-color="#556EE6"/>
<stop offset="1" stop-color="#6B21A8"/>
</linearGradient>
</defs>
</svg>
