<svg width="24" height="24" viewBox="0 0 24 24" fill="none" xmlns="http://www.w3.org/2000/svg">
<path d="M22.3999 5.54961C21.6343 5.88961 20.8119 6.11841 19.9487 6.22161C20.8303 5.69361 21.5063 4.85761 21.8247 3.86081C21.0007 4.34961 20.0871 4.70481 19.1143 4.89681C18.3359 4.06721 17.2271 3.54881 15.9999 3.54881C13.6431 3.54881 11.7327 5.46001 11.7327 7.81601C11.7327 8.15041 11.7711 8.47681 11.8431 8.78801C8.29672 8.61041 5.15272 6.91121 3.04712 4.32881C2.68072 4.95921 2.47032 5.69201 2.47032 6.47521C2.47032 7.95521 3.22312 9.26161 4.36792 10.0264C3.66872 10.004 3.01032 9.81201 2.43512 9.49281C2.43512 9.51121 2.43512 9.52801 2.43512 9.54641C2.43512 11.6144 3.90552 13.3392 5.85832 13.7304C5.50072 13.828 5.12312 13.88 4.73352 13.88C4.45912 13.88 4.19112 13.8528 3.93112 13.804C4.47432 15.4992 6.05032 16.7336 7.91752 16.768C6.45752 17.9128 4.61752 18.5952 2.61752 18.5952C2.27352 18.5952 1.93352 18.5752 1.59912 18.5352C3.48792 19.7456 5.73032 20.452 8.14072 20.452C15.9903 20.452 20.2815 13.9496 20.2815 8.31041C20.2815 8.12561 20.2775 7.94161 20.2695 7.75841C21.1039 7.15601 21.8279 6.40481 22.3999 5.54961Z" fill="white"/>
</svg>
