<svg width="24" height="24" viewBox="0 0 24 24" fill="none" xmlns="http://www.w3.org/2000/svg">
<path d="M24 0H0V24H24V0Z" fill="white" fillOpacity="0.01"/>
<path d="M12 10C13.933 10 15.5 8.433 15.5 6.5C15.5 4.56701 13.933 3 12 3C10.067 3 8.5 4.56701 8.5 6.5C8.5 8.433 10.067 10 12 10Z" fill="#5F40AF"/>
<path d="M3 20.4V21H21V20.4C21 18.1598 21 17.0397 20.5641 16.184C20.1806 15.4314 19.5686 14.8194 18.816 14.4359C17.9603 14 16.8402 14 14.6 14H9.4C7.1598 14 6.0397 14 5.18405 14.4359C4.43139 14.8194 3.81947 15.4314 3.43598 16.184C3 17.0397 3 18.1598 3 20.4Z" fill="#5F40AF"/>
</svg>
