<svg width="138" height="39" viewBox="0 0 138 39" fill="none" xmlns="http://www.w3.org/2000/svg">
<path d="M40.4775 19.5039H36.6396V25.041H40.1846C42.2842 25.041 43.334 24.1621 43.334 22.4043C43.334 20.4707 42.3818 19.5039 40.4775 19.5039ZM36.6396 11.7695V16.8525H39.4082C40.4531 16.8525 41.249 16.6426 41.7959 16.2227C42.3428 15.793 42.6162 15.1533 42.6162 14.3037C42.6162 13.4541 42.3428 12.8193 41.7959 12.3994C41.249 11.9795 40.4092 11.7695 39.2764 11.7695H36.6396ZM40.1846 28H32.7871V8.81055H39.2764C41.5811 8.81055 43.3535 9.25488 44.5938 10.1436C45.8438 11.0225 46.4688 12.3311 46.4688 14.0693C46.4688 14.9678 46.2295 15.7637 45.751 16.457C45.2822 17.1504 44.6035 17.6729 43.7148 18.0244C44.8379 18.2686 45.6924 18.7861 46.2783 19.5771C46.8643 20.3584 47.1572 21.3008 47.1572 22.4043C47.1572 24.2402 46.5566 25.6318 45.3555 26.5791C44.1641 27.5264 42.4404 28 40.1846 28ZM53.1299 10.1758V28H49.791V10.1758H53.1299ZM59.9473 28.2666C58.61 28.2666 57.5817 27.8434 56.8623 26.9971C56.1514 26.1507 55.7959 24.86 55.7959 23.125V15.6602H59.1094V23.1504C59.1094 24.0391 59.2575 24.6823 59.5537 25.0801C59.8499 25.4779 60.307 25.6768 60.9248 25.6768C61.9658 25.6768 62.7318 25.3382 63.2227 24.6611V15.6602H66.5615V28.0254H63.7178L63.4258 26.248C62.6302 27.5938 61.4707 28.2666 59.9473 28.2666ZM76.248 20.3447C76.248 19.6169 76.0788 19.0498 75.7402 18.6436C75.4102 18.2288 74.9277 18.0215 74.293 18.0215C73.6582 18.0215 73.1589 18.25 72.7949 18.707C72.431 19.1641 72.2067 19.7904 72.1221 20.5859L72.1602 20.6494H76.248V20.3447ZM74.5596 28.2793C72.7822 28.2793 71.3561 27.7165 70.2812 26.5908C69.2148 25.4652 68.6816 24.0052 68.6816 22.2109V21.7539C68.6816 20.5267 68.9059 19.4349 69.3545 18.4785C69.8115 17.5221 70.4632 16.7773 71.3096 16.2441C72.1644 15.7025 73.1504 15.4316 74.2676 15.4316C75.9264 15.4316 77.2171 15.931 78.1396 16.9297C79.0622 17.9199 79.5234 19.2826 79.5234 21.0176V22.833H72.1475L72.1221 22.9092C72.1813 23.7471 72.4564 24.4242 72.9473 24.9404C73.4382 25.4482 74.0645 25.7021 74.8262 25.7021C75.5879 25.7021 76.21 25.6344 76.6924 25.499C77.1748 25.3551 77.7249 25.1139 78.3428 24.7754L79.2441 26.832V26.8447C78.7109 27.2848 78.0381 27.6361 77.2256 27.8984C76.4215 28.1523 75.5329 28.2793 74.5596 28.2793ZM81.7197 16.1934H85.0586V29.0156C85.0586 30.4629 84.6777 31.5801 83.916 32.3672C83.1543 33.1543 82.0837 33.5479 80.7041 33.5479C80.1201 33.5479 79.5742 33.4844 79.0664 33.3574L79.2188 30.8057C79.5911 30.8988 79.9551 30.9453 80.3105 30.9453C81.25 30.9453 81.7197 30.3021 81.7197 29.0156V16.1934ZM84.9951 10.7344V13.21H81.6436V10.7344H84.9951ZM94.8594 20.3447C94.8594 19.6169 94.6901 19.0498 94.3516 18.6436C94.0215 18.2288 93.5391 18.0215 92.9043 18.0215C92.2695 18.0215 91.7702 18.25 91.4062 18.707C91.0423 19.1641 90.818 19.7904 90.7334 20.5859L90.7715 20.6494H94.8594V20.3447ZM93.1709 28.2793C91.3936 28.2793 89.9674 27.7165 88.8926 26.5908C87.8262 25.4652 87.293 24.0052 87.293 22.2109V21.7539C87.293 20.5267 87.5173 19.4349 87.9658 18.4785C88.4229 17.5221 89.0745 16.7773 89.9209 16.2441C90.7757 15.7025 91.7617 15.4316 92.8789 15.4316C94.5378 15.4316 95.8285 15.931 96.751 16.9297C97.6735 17.9199 98.1348 19.2826 98.1348 21.0176V22.833H90.7588L90.7334 22.9092C90.7926 23.7471 91.0677 24.4242 91.5586 24.9404C92.0495 25.4482 92.6758 25.7021 93.4375 25.7021C94.1992 25.7021 94.8213 25.6344 95.3037 25.499C95.7861 25.3551 96.3363 25.1139 96.9541 24.7754L97.8555 26.832V26.8447C97.3223 27.2848 96.6494 27.6361 95.8369 27.8984C95.0329 28.1523 94.1442 28.2793 93.1709 28.2793ZM104.863 25.9814V26.0195C105.473 26.0195 105.938 25.901 106.26 25.6641C106.59 25.4186 106.755 25.0928 106.755 24.6865C106.755 24.2803 106.569 23.9502 106.196 23.6963C105.832 23.4339 105.185 23.1969 104.254 22.9854C102.747 22.6807 101.634 22.2363 100.915 21.6523C100.196 21.0684 99.8359 20.2559 99.8359 19.2148C99.8359 18.1654 100.285 17.2767 101.182 16.5488C102.087 15.821 103.302 15.457 104.825 15.457C106.357 15.457 107.589 15.8252 108.52 16.5615C109.459 17.2894 109.908 18.2246 109.865 19.3672L109.84 19.4307H106.615C106.615 18.9229 106.454 18.5166 106.133 18.2119C105.811 17.9072 105.367 17.7549 104.8 17.7549C104.241 17.7549 103.805 17.8861 103.492 18.1484C103.179 18.4023 103.022 18.7324 103.022 19.1387C103.022 19.5449 103.192 19.8665 103.53 20.1035C103.869 20.332 104.516 20.5352 105.473 20.7129C107.03 21.026 108.168 21.4788 108.888 22.0713C109.616 22.6637 109.979 23.4974 109.979 24.5723C109.979 25.6387 109.501 26.5231 108.545 27.2256C107.597 27.9196 106.332 28.2666 104.749 28.2666C103.166 28.2666 101.884 27.8646 100.902 27.0605C99.929 26.248 99.4678 25.2832 99.5186 24.166L99.5312 24.0898H102.591C102.625 25.3509 103.382 25.9814 104.863 25.9814ZM112.76 12.6387H116.099V15.6602H118.181V18.0088H116.099V24.3057C116.099 25.1943 116.467 25.6387 117.203 25.6387C117.465 25.6387 117.762 25.5964 118.092 25.5117L118.371 27.9238C117.669 28.1523 116.996 28.2666 116.353 28.2666C113.957 28.2666 112.76 26.9505 112.76 24.3184V18.0088H110.957V15.6602H112.76V12.6387ZM123.817 15.6348V28H120.479V15.6348H123.817ZM123.817 10.1758V12.6768H120.479V10.1758H123.817ZM129.327 21.6904V22.0459C129.327 24.4919 130.131 25.7148 131.739 25.7148C132.34 25.7148 132.818 25.5413 133.174 25.1943C133.529 24.8473 133.707 24.3861 133.707 23.8105H136.741L136.767 23.874C136.8 25.1266 136.335 26.1761 135.37 27.0225C134.405 27.8604 133.195 28.2793 131.739 28.2793C129.928 28.2793 128.515 27.7122 127.499 26.5781C126.492 25.4355 125.988 23.9248 125.988 22.0459V21.7031C125.988 19.8242 126.492 18.3135 127.499 17.1709C128.515 16.0199 129.928 15.4443 131.739 15.4443C133.271 15.4443 134.498 15.8802 135.421 16.752C136.352 17.6152 136.8 18.7578 136.767 20.1797L136.754 20.2432H133.707C133.707 19.5915 133.529 19.0583 133.174 18.6436C132.818 18.2204 132.34 18.0088 131.739 18.0088C130.131 18.0088 129.327 19.236 129.327 21.6904Z" fill="#556EE6"/>
<path d="M16.3256 17.8109L17.6134 16.7554L17.2343 15.3427L10.3651 20.1136L14.5701 24.2391L16.687 23.0037L16.3256 17.8109Z" fill="#9333EA"/>
<path d="M22.8159 15.4621L23.825 18.8384L26.1624 17.4744L27.2029 15.7698L27.2127 10.058L22.8159 15.4621Z" fill="#FF7D23"/>
<path d="M17.3364 22.3322L22.8467 19.1166L21 13.9999L16.7366 17.6858L17.3364 22.3322Z" fill="#6B21A8"/>
<path d="M26.612 10.8031C26.7727 12.9005 26.5659 15.3667 26.5678 15.39C26.5717 15.4503 26.6464 16.8808 24.4467 18.1644L16.1622 22.9989C15.4096 23.4381 14.8723 23.2115 14.6103 23.0358C13.5182 22.3043 12.5703 21.1385 12.2423 20.8424C11.4284 20.1074 10.5219 19.4405 9.51478 18.8705C9.32153 18.7614 9.12313 18.657 8.92273 18.5557C14.5247 17.0925 21.5302 12.8603 24.3753 11.0461C25.0997 10.5842 25.2594 10.482 25.6953 10.1813C25.7988 10.1101 26.0751 9.91827 26.2579 9.95339C26.3937 9.97942 26.5675 10.2187 26.612 10.8031ZM26.8159 8.88502C26.0302 8.7296 25.2121 9.29476 25.0277 9.43163C24.5068 9.78061 13.8933 16.8344 7.28322 17.851C6.92466 17.7232 6.55714 17.6063 6.17798 17.5049C5.94398 17.4429 5.41014 17.316 4.76454 17.2084C4.08639 17.0956 3.24344 17.5596 2.9585 18.2039C2.70018 18.7872 2.99923 19.3004 3.63985 19.3506C4.06573 19.3839 4.52873 19.4422 5.00668 19.5383C6.07808 19.7543 7.06766 20.15 7.99508 20.6211C8.92329 21.0936 9.78089 21.663 10.5653 22.3058C10.9577 22.6273 12.757 24.7182 14.7891 25.1731C15.452 25.3214 16.158 25.3924 16.8808 25.3573C18.3331 25.2875 19.7897 24.8602 21.1358 24.2934C22.4881 23.7221 23.7546 23.006 24.9535 22.2245C25.5533 21.8321 26.1356 21.4217 26.7026 20.9954C27.2733 20.5642 27.8124 20.1366 28.3671 19.65C28.6601 19.3922 28.7214 19.0228 28.5004 18.8156C28.2741 18.6033 27.8382 18.6402 27.5266 18.8982L27.5083 18.9133C27.0253 19.3136 26.4767 19.7265 25.9377 20.1094C25.3933 20.495 24.8359 20.8649 24.2689 21.2133C23.1355 21.9089 21.9582 22.5271 20.7676 22.99C19.5806 23.4519 18.3743 23.7525 17.2754 23.7667C17.1434 23.769 17.0134 23.7666 16.8853 23.7603L24.9506 19.0222C27.7818 17.3701 27.8377 15.4236 27.8246 15.0869C27.8496 14.7779 28.0248 12.5236 27.8668 10.463C27.7964 9.53991 27.4426 9.00906 26.8159 8.88502ZM17.7274 26.2806C16.72 26.8685 16.2445 27.9292 16.6654 28.6504C17.0863 29.3717 18.2439 29.4798 19.2512 28.8919C20.2579 28.3045 20.7484 27.2702 20.3277 26.5493C19.907 25.8284 18.734 25.6932 17.7274 26.2806ZM29.5192 21.5546C29.8425 22.1086 29.4768 22.9247 28.7033 23.3761C27.929 23.828 27.0386 23.7449 26.7153 23.1908C26.3916 22.6362 26.7575 21.8204 27.5317 21.3685C28.3053 20.9171 29.1955 20.9999 29.5192 21.5546Z" fill="#556EE6"/>
<line y1="26.5" x2="15" y2="26.5" stroke="#6B21A8"/>
<line x1="11" y1="30.5" x2="30" y2="30.5" stroke="#6B21A8"/>
<line x1="21" y1="26.5" x2="26" y2="26.5" stroke="#6B21A8"/>
<line x1="3" y1="30.5" x2="8" y2="30.5" stroke="#6B21A8"/>
<path d="M17.9979 17.7518C20.8078 19.1586 21.0504 18.4418 20.3253 15.8589" stroke="white" strokeWidth="0.5"/>
</svg>
