<svg width="12" height="7" viewBox="0 0 12 7" fill="none" xmlns="http://www.w3.org/2000/svg">
<path d="M11 0.500269C10.8053 0.499889 10.6166 0.567701 10.4667 0.691936L6.00001 4.42527L1.52501 0.82527C1.43977 0.756048 1.34169 0.704355 1.23641 0.673162C1.13113 0.641969 1.02072 0.631891 0.911528 0.643507C0.802337 0.655123 0.696519 0.688203 0.600155 0.740848C0.503792 0.793493 0.418782 0.864664 0.350013 0.95027C0.280791 1.03551 0.229099 1.13359 0.197905 1.23887C0.166712 1.34415 0.156634 1.45456 0.16825 1.56376C0.179866 1.67295 0.212947 1.77876 0.265592 1.87513C0.318237 1.97149 0.389407 2.0565 0.475013 2.12527L5.47501 6.15027C5.62412 6.27284 5.81116 6.33984 6.00418 6.33984C6.1972 6.33984 6.38424 6.27284 6.53335 6.15027L11.5333 1.9836C11.6177 1.91365 11.6875 1.82773 11.7386 1.73077C11.7897 1.63382 11.8212 1.52773 11.8313 1.41858C11.8414 1.30943 11.8298 1.19937 11.7973 1.0947C11.7647 0.990032 11.7118 0.89281 11.6417 0.808603C11.5641 0.713008 11.4664 0.63578 11.3554 0.582468C11.2445 0.529155 11.1231 0.501083 11 0.500269Z" fill="white"/>
</svg>
