<svg width="24" height="24" viewBox="0 0 24 24" fill="none" xmlns="http://www.w3.org/2000/svg">
<path d="M24 0H0V24H24V0Z" fill="white" fillOpacity="0.01"/>
<path d="M9.5 10C11.433 10 13 8.433 13 6.5C13 4.567 11.433 3 9.5 3C7.567 3 6 4.567 6 6.5C6 8.433 7.567 10 9.5 10Z" stroke="#556EE6" strokeWidth="2.33333" strokeLinecap="round" strokeLinejoin="round"/>
<path d="M16.304 3.5C17.3204 4.11245 18.0002 5.22685 18.0002 6.5C18.0002 7.77315 17.3204 8.88755 16.304 9.5" stroke="#556EE6" strokeWidth="2.33333" strokeLinecap="round" strokeLinejoin="round"/>
<path d="M2 20.4V21H17V20.4C17 18.1598 17 17.0397 16.5641 16.184C16.1806 15.4314 15.5686 14.8195 14.816 14.436C13.9603 14 12.8402 14 10.6 14H8.4C6.1598 14 5.0397 14 4.18404 14.436C3.43139 14.8195 2.81947 15.4314 2.43598 16.184C2 17.0397 2 18.1598 2 20.4Z" stroke="#556EE6" strokeWidth="2.33333" strokeLinecap="round" strokeLinejoin="round"/>
<path d="M22 21.0001V20.4001C22 18.1599 22 17.0398 21.564 16.1841C21.1805 15.4315 20.5686 14.8195 19.8159 14.436" stroke="#556EE6" strokeWidth="2.33333" strokeLinecap="round" strokeLinejoin="round"/>
</svg>
