<svg width="28" height="28" viewBox="0 0 28 28" fill="none" xmlns="http://www.w3.org/2000/svg">
<path d="M14 4.229C14.8674 4.22897 15.701 4.56495 16.326 5.16643C16.951 5.7679 17.3186 6.58809 17.3518 7.45484L17.3542 7.58317H21.5833C21.7698 7.58377 21.949 7.65582 22.084 7.78449C22.219 7.91317 22.2996 8.08868 22.3092 8.27494C22.3187 8.46121 22.2566 8.64405 22.1354 8.78588C22.0143 8.9277 21.8435 9.01772 21.658 9.03742L21.5833 9.0415H20.9469L19.9535 22.2073C19.9064 22.8308 19.6255 23.4134 19.1671 23.8385C18.7087 24.2636 18.1065 24.4998 17.4813 24.4998H10.5187C9.89346 24.4998 9.29133 24.2636 8.83289 23.8385C8.37446 23.4134 8.09357 22.8308 8.0465 22.2073L7.0525 9.0415H6.41667C6.23615 9.04159 6.06202 8.9747 5.92797 8.8538C5.79392 8.7329 5.70948 8.56657 5.691 8.387L5.6875 8.31234C5.6875 7.93492 5.9745 7.624 6.342 7.58725L6.41667 7.58317H10.6458C10.6458 6.69359 10.9992 5.84045 11.6282 5.21142C12.2573 4.58239 13.1104 4.229 14 4.229ZM19.4845 9.0415H8.5155L9.50133 22.0977C9.52074 22.3542 9.63633 22.594 9.82496 22.769C10.0136 22.944 10.2614 23.0414 10.5187 23.0415H17.4813C17.7387 23.0415 17.9867 22.9443 18.1754 22.7692C18.3642 22.5942 18.4798 22.3543 18.4992 22.0977L19.4851 9.0415H19.4845ZM15.8958 12.104C16.2732 12.104 16.5842 12.391 16.6215 12.7585L16.625 12.8332V19.2498C16.6259 19.4373 16.5545 19.618 16.4257 19.7542C16.2968 19.8904 16.1205 19.9718 15.9332 19.9814C15.746 19.991 15.5622 19.9282 15.4201 19.8058C15.278 19.6835 15.1885 19.5111 15.1702 19.3245L15.1667 19.2498V12.8332C15.1667 12.4307 15.4933 12.104 15.8958 12.104ZM12.1042 12.104C12.4816 12.104 12.7925 12.391 12.8298 12.7585L12.8333 12.8332V19.2498C12.8342 19.4373 12.7628 19.618 12.634 19.7542C12.5052 19.8904 12.3288 19.9718 12.1415 19.9814C11.9543 19.991 11.7705 19.9282 11.6284 19.8058C11.4863 19.6835 11.3968 19.5111 11.3785 19.3245L11.375 19.2498V12.8332C11.375 12.4307 11.7017 12.104 12.1042 12.104ZM14 5.68734C13.5158 5.68731 13.0498 5.87258 12.6979 6.20515C12.3459 6.53771 12.1345 6.99237 12.1071 7.47584L12.1042 7.58317H15.8958C15.8958 7.08036 15.6961 6.59815 15.3406 6.24261C14.985 5.88708 14.5028 5.68734 14 5.68734Z" fill="#808191"/>
</svg>
