<svg width="28" height="28" viewBox="0 0 28 28" fill="none" xmlns="http://www.w3.org/2000/svg">
<path d="M22.1666 23.3335H5.83331C5.52389 23.3335 5.22715 23.4564 5.00836 23.6752C4.78956 23.894 4.66665 24.1907 4.66665 24.5002C4.66665 24.8096 4.78956 25.1063 5.00836 25.3251C5.22715 25.5439 5.52389 25.6668 5.83331 25.6668H22.1666C22.4761 25.6668 22.7728 25.5439 22.9916 25.3251C23.2104 25.1063 23.3333 24.8096 23.3333 24.5002C23.3333 24.1907 23.2104 23.894 22.9916 23.6752C22.7728 23.4564 22.4761 23.3335 22.1666 23.3335ZM5.83331 21.0002H5.93831L10.8033 20.5568C11.3362 20.5037 11.8347 20.2689 12.215 19.8918L22.715 9.39183C23.1225 8.96129 23.3428 8.38675 23.3275 7.79412C23.3121 7.20148 23.0625 6.63908 22.6333 6.23016L19.4366 3.03349C19.0194 2.64161 18.4727 2.41675 17.9005 2.40169C17.3283 2.38663 16.7706 2.58242 16.3333 2.95183L5.83331 13.4518C5.45621 13.8321 5.2214 14.3306 5.16831 14.8635L4.66665 19.7285C4.65093 19.8994 4.6731 20.0716 4.73158 20.2329C4.79007 20.3943 4.88342 20.5407 5.00498 20.6618C5.11399 20.77 5.24328 20.8555 5.38542 20.9136C5.52757 20.9716 5.67977 21.001 5.83331 21.0002ZM17.815 4.66683L21 7.85183L18.6666 10.1268L15.54 7.00016L17.815 4.66683ZM7.43165 15.0618L14 8.54016L17.15 11.6902L10.6166 18.2235L7.11665 18.5502L7.43165 15.0618Z" fill="#808191"/>
</svg>
