<svg width="24" height="25" viewBox="0 0 24 25" fill="none" xmlns="http://www.w3.org/2000/svg">
<path fillRule="evenodd" clipRule="evenodd" d="M5.00607 19.9631C5.0081 21.2058 6.01711 22.2115 7.25975 22.2094C7.75591 22.2086 8.2379 22.0438 8.6307 21.7407L12.4225 18.8145H19.5C21.5711 18.8145 23.25 17.1356 23.25 15.0645V5.5C23.25 3.42893 21.5711 1.75 19.5 1.75H4.5C2.42893 1.75 0.75 3.42893 0.75 5.5V15.0645C0.75 17.1356 2.42893 18.8145 4.5 18.8145H5.0042L5.00607 19.9631ZM7.50216 17.5625C7.50103 16.8729 6.94172 16.3145 6.25216 16.3145H4.5C3.80964 16.3145 3.25 15.7549 3.25 15.0645V5.5C3.25 4.80964 3.80964 4.25 4.5 4.25H19.5C20.1904 4.25 20.75 4.80964 20.75 5.5V15.0645C20.75 15.7549 20.1904 16.3145 19.5 16.3145H11.9781C11.6233 16.3145 11.3118 16.4591 11.0884 16.6862L7.50524 19.4514L7.50216 17.5625Z" fill="#92929D"/>
</svg>
