<svg width="26" height="24" viewBox="0 0 26 24" fill="none" xmlns="http://www.w3.org/2000/svg">
<path fillRule="evenodd" clipRule="evenodd" d="M2.28564 12C2.28564 17.799 7.18417 22.5 13.2268 22.5C19.2694 22.5 24.168 17.799 24.168 12C24.168 6.20101 19.2694 1.5 13.2268 1.5C7.18417 1.5 2.28564 6.20101 2.28564 12ZM23.1259 12C23.1259 17.2467 18.6939 21.5 13.2268 21.5C7.75966 21.5 3.32766 17.2467 3.32766 12C3.32766 6.75329 7.75966 2.5 13.2268 2.5C18.6939 2.5 23.1259 6.75329 23.1259 12ZM8.75345 16.4196C8.52307 16.2541 8.47608 15.9408 8.64848 15.7197C8.82088 15.4986 9.1474 15.4535 9.37778 15.619C11.463 17.1165 15.055 17.1258 17.0798 15.6237C17.3075 15.4548 17.6347 15.495 17.8107 15.7135C17.9867 15.932 17.9448 16.246 17.7171 16.4149C15.3182 18.1945 11.2101 18.1839 8.75345 16.4196ZM11.1428 10C11.1428 10.5523 10.6762 11 10.1008 11C9.52527 11 9.05874 10.5523 9.05874 10C9.05874 9.44772 9.52527 9 10.1008 9C10.6762 9 11.1428 9.44772 11.1428 10ZM17.3949 10C17.3949 10.5523 16.9283 11 16.3528 11C15.7774 11 15.3108 10.5523 15.3108 10C15.3108 9.44772 15.7774 9 16.3528 9C16.9283 9 17.3949 9.44772 17.3949 10Z" fill="#92929D"/>
</svg>
