<svg width="26" height="24" viewBox="0 0 26 24" fill="none" xmlns="http://www.w3.org/2000/svg">
<path fillRule="evenodd" clipRule="evenodd" d="M23.8067 14.852V18.65C23.8067 20.5061 22.168 22 20.1596 22H18.326H18.3217H5.57138C3.56297 22 1.92432 20.5061 1.92432 18.65V5.35C1.92432 3.49395 3.56297 2 5.57138 2H20.1596C22.168 2 23.8067 3.49395 23.8067 5.35V14.8483C23.8067 14.8495 23.8067 14.8508 23.8067 14.852ZM22.7647 15.0708L17.8532 10.775L12.941 15.0284L18.5553 21H20.1596C21.6042 21 22.7647 19.942 22.7647 18.65V15.0708ZM22.7647 13.7178V5.35C22.7647 4.05803 21.6042 3 20.1596 3H5.57138C4.12684 3 2.96633 4.05803 2.96633 5.35V17.445L9.02416 11.646C9.23514 11.444 9.57932 11.4527 9.77894 11.6651L12.243 14.2859L17.5059 9.72878C17.7049 9.55643 18.0077 9.55716 18.2059 9.73045L22.7647 13.7178ZM17.1519 21L9.37223 12.7253L2.97554 18.8487C3.08725 20.0487 4.20163 21 5.57138 21H17.1519ZM8.89591 8.7C7.78633 8.7 6.88631 7.83843 6.88631 6.775C6.88631 5.71157 7.78633 4.85 8.89591 4.85C10.0055 4.85 10.9055 5.71157 10.9055 6.775C10.9055 7.83843 10.0055 8.7 8.89591 8.7ZM8.89591 7.7C9.43059 7.7 9.8635 7.28558 9.8635 6.775C9.8635 6.26442 9.43059 5.85 8.89591 5.85C8.36124 5.85 7.92833 6.26442 7.92833 6.775C7.92833 7.28558 8.36124 7.7 8.89591 7.7Z" fill="#92929D"/>
</svg>
