<svg width="22" height="21" viewBox="0 0 22 21" fill="none" xmlns="http://www.w3.org/2000/svg">
<path fillRule="evenodd" clipRule="evenodd" d="M18 5H20C20.8284 5 21.5 5.67157 21.5 6.5V19.5C21.5 20.3284 20.8284 21 20 21H18C17.1716 21 16.5 20.3284 16.5 19.5V6.5C16.5 5.67157 17.1716 5 18 5ZM18 6C17.7239 6 17.5 6.22386 17.5 6.5V19.5C17.5 19.7761 17.7239 20 18 20H20C20.2761 20 20.5 19.7761 20.5 19.5V6.5C20.5 6.22386 20.2761 6 20 6H18ZM2 12H4C4.82843 12 5.5 12.6716 5.5 13.5V19.5C5.5 20.3284 4.82843 21 4 21H2C1.17157 21 0.5 20.3284 0.5 19.5V13.5C0.5 12.6716 1.17157 12 2 12ZM2 13C1.72386 13 1.5 13.2239 1.5 13.5V19.5C1.5 19.7761 1.72386 20 2 20H4C4.27614 20 4.5 19.7761 4.5 19.5V13.5C4.5 13.2239 4.27614 13 4 13H2ZM10 0H12C12.8284 0 13.5 0.671573 13.5 1.5V19.5C13.5 20.3284 12.8284 21 12 21H10C9.17157 21 8.5 20.3284 8.5 19.5V1.5C8.5 0.671573 9.17157 0 10 0ZM10 1C9.72386 1 9.5 1.22386 9.5 1.5V19.5C9.5 19.7761 9.72386 20 10 20H12C12.2761 20 12.5 19.7761 12.5 19.5V1.5C12.5 1.22386 12.2761 1 12 1H10Z" fill="#92929D"/>
</svg>
