<svg width="24" height="24" viewBox="0 0 24 24" fill="none" xmlns="http://www.w3.org/2000/svg">
<path fillRule="evenodd" clipRule="evenodd" d="M7.85713 1.04785H17.1428C19.2468 1.04785 20.9524 2.75343 20.9524 4.85738V20.2121C20.9524 21.2641 20.0996 22.1169 19.0476 22.1169C18.615 22.1169 18.1954 21.9697 17.8576 21.6994L12.5 17.4128L7.14236 21.6994C6.32095 22.3567 5.12229 22.2235 4.46508 21.4021C4.19484 21.0644 4.04761 20.6447 4.04761 20.2121V4.85738C4.04761 2.75343 5.75319 1.04785 7.85713 1.04785ZM7.85713 2.95261C6.80516 2.95261 5.95237 3.8054 5.95237 4.85738V20.2121L11.31 15.9255C12.0057 15.3689 12.9943 15.3689 13.69 15.9255L19.0476 20.2121V4.85738C19.0476 3.8054 18.1948 2.95261 17.1428 2.95261H7.85713Z" fill="#92929D"/>
</svg>
