<svg width="46" height="40" viewBox="0 0 46 40" fill="none" xmlns="http://www.w3.org/2000/svg">
<path d="M2.09091 35H38.3333C39.4861 35 40.4242 34.1587 40.4242 33.125V1.875C40.4242 0.84125 39.4861 0 38.3333 0H2.09091C0.938121 0 0 0.84125 0 1.875V33.125C0 34.1587 0.938121 35 2.09091 35ZM1.39394 1.875C1.39394 1.70924 1.46737 1.55027 1.59808 1.43306C1.72878 1.31585 1.90606 1.25 2.09091 1.25H38.3333C38.5182 1.25 38.6955 1.31585 38.8262 1.43306C38.9569 1.55027 39.0303 1.70924 39.0303 1.875V33.125C39.0303 33.2908 38.9569 33.4497 38.8262 33.5669C38.6955 33.6842 38.5182 33.75 38.3333 33.75H2.09091C1.90606 33.75 1.72878 33.6842 1.59808 33.5669C1.46737 33.4497 1.39394 33.2908 1.39394 33.125V1.875Z" fill="#808191"/>
<path d="M25.0909 13.75C26.6284 13.75 27.8788 12.6288 27.8788 11.25C27.8788 9.87125 26.6284 8.75 25.0909 8.75C23.5534 8.75 22.303 9.87125 22.303 11.25C22.303 12.6288 23.5534 13.75 25.0909 13.75ZM25.0909 10C25.367 9.99975 25.637 10.073 25.8666 10.2104C26.0963 10.3477 26.2754 10.5432 26.3812 10.7718C26.4869 11.0005 26.5147 11.2522 26.4609 11.4951C26.4071 11.7379 26.2742 11.961 26.0789 12.136C25.8837 12.3111 25.635 12.4303 25.3642 12.4785C25.0934 12.5268 24.8127 12.5019 24.5577 12.407C24.3027 12.3122 24.0848 12.1516 23.9315 11.9456C23.7783 11.7397 23.6967 11.4976 23.697 11.25C23.697 10.5612 24.3215 10 25.0909 10Z" fill="#808191"/>
<path d="M4.87879 28.75H35.5455C35.7303 28.75 35.9076 28.6842 36.0383 28.5669C36.169 28.4497 36.2424 28.2908 36.2424 28.125V4.375C36.2424 4.20924 36.169 4.05027 36.0383 3.93306C35.9076 3.81585 35.7303 3.75 35.5455 3.75H4.87879C4.69394 3.75 4.51666 3.81585 4.38595 3.93306C4.25525 4.05027 4.18182 4.20924 4.18182 4.375V28.125C4.18182 28.2908 4.25525 28.4497 4.38595 28.5669C4.51666 28.6842 4.69394 28.75 4.87879 28.75ZM5.57576 27.5V21.7025C5.60642 21.6825 5.64127 21.6712 5.66915 21.6462L12.8005 15.2513C12.9831 15.0951 13.2257 15.0079 13.478 15.0079C13.7303 15.0079 13.9729 15.0951 14.1555 15.2513L24.6393 24.6525C24.7677 24.7686 24.9419 24.8347 25.1242 24.8366C25.3065 24.8384 25.4823 24.7759 25.6136 24.6625L31.0026 20.0725C31.0913 19.9924 31.1969 19.9288 31.3132 19.8855C31.4294 19.8421 31.5541 19.8199 31.6801 19.82C31.9365 19.82 32.1749 19.91 32.3268 20.0425L34.8485 22.6163V27.5H5.57576ZM34.8485 5V20.7262L33.3416 19.1912C33.1245 18.9946 32.8659 18.8386 32.5808 18.7324C32.2958 18.6261 31.9901 18.5718 31.6815 18.5725H31.6801C31.3737 18.5713 31.0701 18.6244 30.7866 18.7286C30.5032 18.8329 30.2454 18.9862 30.0282 19.18L25.1439 23.34L15.141 14.3687C14.2502 13.5712 12.703 13.5725 11.815 14.3687L5.57576 19.9637V5H34.8485Z" fill="#808191"/>
<path d="M6.27273 36.3538C6.08788 36.3538 5.9106 36.4196 5.7799 36.5368C5.64919 36.654 5.57576 36.813 5.57576 36.9788V38.125C5.57576 39.1587 6.51388 40 7.66667 40H43.9091C45.0619 40 46 39.1587 46 38.125V5.625C46 4.59125 45.0619 3.75 43.9091 3.75H42.6309C42.446 3.75 42.2687 3.81585 42.138 3.93306C42.0073 4.05027 41.9339 4.20924 41.9339 4.375C41.9339 4.54076 42.0073 4.69973 42.138 4.81694C42.2687 4.93415 42.446 5 42.6309 5H43.9091C44.0939 5 44.2712 5.06585 44.4019 5.18306C44.5326 5.30027 44.6061 5.45924 44.6061 5.625V38.125C44.6061 38.2908 44.5326 38.4497 44.4019 38.5669C44.2712 38.6842 44.0939 38.75 43.9091 38.75H7.66667C7.48182 38.75 7.30454 38.6842 7.17384 38.5669C7.04313 38.4497 6.9697 38.2908 6.9697 38.125V36.9788C6.9697 36.813 6.89627 36.654 6.76556 36.5368C6.63485 36.4196 6.45758 36.3538 6.27273 36.3538Z" fill="#808191"/>
</svg>
