<svg width="24" height="28" viewBox="0 0 24 28" fill="none" xmlns="http://www.w3.org/2000/svg">
<path fillRule="evenodd" clipRule="evenodd" d="M6 9.33333C6 8.40508 6.31607 7.51484 6.87868 6.85846C7.44129 6.20208 8.20435 5.83333 9 5.83333H19C19.7956 5.83333 20.5587 6.20208 21.1213 6.85846C21.6839 7.51484 22 8.40508 22 9.33333V16.3333C22 17.2616 21.6839 18.1518 21.1213 18.8082C20.5587 19.4646 19.7956 19.8333 19 19.8333H9C8.20435 19.8333 7.44129 19.4646 6.87868 18.8082C6.31607 18.1518 6 17.2616 6 16.3333V9.33333ZM4 9.53167C3.41493 9.77318 2.90842 10.2204 2.55024 10.8117C2.19206 11.403 1.99982 12.1093 2 12.8333V21C2 21.9283 2.31607 22.8185 2.87868 23.4749C3.44129 24.1313 4.20435 24.5 5 24.5H15C15.6206 24.5002 16.226 24.2759 16.7329 23.8581C17.2397 23.4402 17.623 22.8493 17.83 22.1667H9C7.67392 22.1667 6.40215 21.5521 5.46447 20.4581C4.52678 19.3642 4 17.8804 4 16.3333V9.53167ZM14 3.5C14.2652 3.5 14.5196 3.62292 14.7071 3.84171C14.8946 4.0605 15 4.35725 15 4.66667V11.1837L16.293 9.67517C16.3852 9.56374 16.4956 9.47486 16.6176 9.41371C16.7396 9.35257 16.8708 9.32039 17.0036 9.31904C17.1364 9.31769 17.2681 9.34721 17.391 9.40587C17.5138 9.46454 17.6255 9.55116 17.7194 9.66071C17.8133 9.77025 17.8875 9.90051 17.9378 10.0439C17.9881 10.1873 18.0134 10.3409 18.0123 10.4958C18.0111 10.6507 17.9835 10.8038 17.9311 10.9461C17.8787 11.0885 17.8025 11.2172 17.707 11.3248L14.707 14.8248C14.5195 15.0435 14.2652 15.1664 14 15.1664C13.7348 15.1664 13.4805 15.0435 13.293 14.8248L10.293 11.3248C10.1975 11.2172 10.1213 11.0885 10.0689 10.9461C10.0165 10.8038 9.9889 10.6507 9.98775 10.4958C9.9866 10.3409 10.0119 10.1873 10.0622 10.0439C10.1125 9.90051 10.1867 9.77025 10.2806 9.66071C10.3745 9.55116 10.4861 9.46454 10.609 9.40587C10.7319 9.34721 10.8636 9.31769 10.9964 9.31904C11.1292 9.32039 11.2604 9.35257 11.3824 9.41371C11.5044 9.47486 11.6148 9.56374 11.707 9.67517L13 11.1837V4.66667C13 4.35725 13.1054 4.0605 13.2929 3.84171C13.4804 3.62292 13.7348 3.5 14 3.5Z" fill="#808191"/>
</svg>
